<?xml version="1.0" encoding="UTF-8" standalone="no"?>
<!-- Created with Inkscape (http://www.inkscape.org/) -->
<!-- Copyright (C) 2001-2023 Graeme Walker <graeme_walker@users.sourceforge.net>. All rights reserved. -->

<svg
   xmlns:dc="http://purl.org/dc/elements/1.1/"
   xmlns:cc="http://creativecommons.org/ns#"
   xmlns:rdf="http://www.w3.org/1999/02/22-rdf-syntax-ns#"
   xmlns:svg="http://www.w3.org/2000/svg"
   xmlns="http://www.w3.org/2000/svg"
   xmlns:sodipodi="http://sodipodi.sourceforge.net/DTD/sodipodi-0.dtd"
   xmlns:inkscape="http://www.inkscape.org/namespaces/inkscape"
   id="svg3036"
   version="1.1"
   inkscape:version="0.92.4 (5da689c313, 2019-01-14)"
   width="1650"
   height="1023"
   sodipodi:docname="authentication.svg"
   inkscape:export-filename="/home/graeme/src/gnetapps/emailrelay/doc/graphics/authentication.png"
   inkscape:export-xdpi="18"
   inkscape:export-ydpi="18">
  <metadata
     id="metadata3042">
    <rdf:RDF>
      <cc:Work
         rdf:about="">
        <dc:format>image/svg+xml</dc:format>
        <dc:type
           rdf:resource="http://purl.org/dc/dcmitype/StillImage" />
        <dc:title />
      </cc:Work>
    </rdf:RDF>
  </metadata>
  <defs
     id="defs3040" />
  <sodipodi:namedview
     pagecolor="#ffffff"
     bordercolor="#666666"
     borderopacity="1"
     objecttolerance="10"
     gridtolerance="10"
     guidetolerance="10"
     inkscape:pageopacity="0"
     inkscape:pageshadow="2"
     inkscape:window-width="2108"
     inkscape:window-height="1169"
     id="namedview3038"
     showgrid="false"
     inkscape:zoom="0.7584233"
     inkscape:cx="701.35349"
     inkscape:cy="362.80329"
     inkscape:window-x="0"
     inkscape:window-y="150"
     inkscape:window-maximized="0"
     inkscape:current-layer="layer4" />
  <g
     inkscape:groupmode="layer"
     id="layer6"
     inkscape:label="colour"
     style="display:inline" />
  <g
     inkscape:groupmode="layer"
     id="layer4"
     inkscape:label="shapes"
     style="display:inline">
    <g
       id="g3401"
       transform="translate(-91.993978,-3.4071843)">
      <path
         inkscape:connector-curvature="0"
         id="path7860"
         d="m 809.83225,449.90435 c -75.21714,-9.37864 -141.10301,-48.21472 -165.49853,-97.5523 -12.16037,-24.59314 -14.91307,-37.10424 -13.36523,-60.7455 2.83502,-43.30151 25.87459,-86.11586 70.69643,-131.37492 35.78606,-36.13513 64.67414,-55.66718 107.95002,-72.988042 20.00723,-8.007756 27.06735,-12.945778 19.01164,-13.29721 -8.19547,-0.357528 23.83022,-10.32233 51.07725,-15.8927 27.73809,-5.670761 34.51142,-6.171832 68.38466,-5.058892 30.95125,1.016936 41.65196,2.386243 60.53611,7.746461 91.2608,25.904136 149.1482,94.538613 154.4554,183.130973 6.1079,101.95624 -77.0761,174.58867 -230.75806,201.48742 -33.24747,5.81926 -94.14629,8.07877 -122.48969,4.54471 l 0,0 z"
         style="fill:#ddffdd;fill-opacity:1;stroke:none;display:inline" />
      <path
         sodipodi:nodetypes="csscscsssccsscsssscccssssssscsccsccssssssssssccsscssscsssssssccsccsscsssscsscscssccssssccccscssc"
         style="fill:#161616"
         d="m 737.19034,432.52548 c 15.97401,6.391 17.99931,6.9368 41.00961,13.2088 1.925,0.5247 6.2,1.3483 9.5,1.8302 3.3,0.4819 9.825,1.5796 14.5,2.4392 17.83747,3.28 56.54521,4.4905 83.63111,2.6152 19.5949,-1.3566 48.1731,-5.2192 59.3689,-8.0242 1.925,-0.4822 5.627,-1.1465 8.2267,-1.476 2.5997,-0.3295 4.9887,-1.0232 5.309,-1.5414 0.3203,-0.5182 1.9863,-0.9422 3.7023,-0.9422 1.716,0 4.502,-0.4155 6.191,-0.9233 1.6891,-0.5078 5.546,-1.4777 8.571,-2.1554 3.025,-0.6776 8.875,-2.3516 13,-3.7199 4.125,-1.3683 9.075,-2.8431 11.00004,-3.2773 5.3321,-1.2027 16.6146,-5.3717 25.3054,-9.3506 4.293,-1.9654 8.4985,-3.5735 9.3457,-3.5735 0.8472,0 2.7347,-0.6123 4.1946,-1.3607 1.4599,-0.7484 7.6043,-3.729 13.6543,-6.6236 15.903,-7.6089 31.0245,-16.4939 43.8243,-25.7501 13.6987,-9.9064 35.6511,-32.5881 41.7134,-43.0994 0.8458,-1.4664 2.681,-4.4662 4.0783,-6.6662 4.0531,-6.3817 10.4319,-19.4825 12.6593,-26 7.4046,-21.6652 9.2579,-33.5212 8.8056,-56.3298 -0.5545,-27.9635 -3.0912,-41.6208 -12.8472,-69.1702 -12.4462,-35.146 -38.334,-68.37969 -70.2337,-90.162894 -19.7598,-13.4933 -45.5209,-25.7893 -64,-30.548 -3.3,-0.8498 -9.825,-2.6122 -14.5,-3.9165 -19.73684,-5.5063 -37.65074,-7.579 -66.50004,-7.6941 -20.805,-0.083 -24.5747,0.1742 -39.5,2.6948 -16.6511,2.8122 -37.5958,7.4185 -46.1342,10.1462 -2.5488,0.8143 -5.1808,1.4805 -5.8489,1.4805 -0.6681,0 -2.6327,0.6379 -4.3658,1.4176 -1.7331,0.7796 -6.0761,2.4123 -9.65111,3.6281 -3.575,1.2157 -7.4,2.6922 -8.5,3.281 -1.76298,0.9437 -1.47997,1.1621 2.3881,1.8433 4.89608,0.8623 5.58547,1.2547 4.70551,2.6785 -0.59258,0.9589 -4.78106,2.6321 -23.09246,9.2254 -4.94937,1.7821 -13.94937,5.6049 -20,8.4951 -10.02655,4.7893 -13.66541,6.800004 -28.91174,15.975704 -7.36301,4.4312 -26.94189,19.1179 -34.08941,25.5713 -1.1,0.9932 -4.23798,3.73589 -6.97328,6.09489 -10.58231,9.1265 -32.29146,31.7526 -39.02672,40.6752 -2.2,2.9145 -5.59107,7.1699 -7.53572,9.4565 -8.12985,9.5593 -15.86194,22.0848 -25.00502,40.5063 -17.24179,34.7388 -21.21508,68.6397 -11.54015,98.463 3.88903,11.988 11.95767,28.5452 18.36622,37.6881 18.11851,25.8493 47.76836,47.9125 83.71467,62.2942 m -0.81538,8.4516 c -35.55321,-14.6977 -61.63316,-33.5314 -81.60544,-57.9645 -13.88533,-16.9867 -18.78696,-25.1602 -25.05631,-41.7813 -1.76337,-4.675 -3.8399,-9.9778 -4.6145,-11.7839 -0.7746,-1.8062 -1.40837,-4.5894 -1.40837,-6.1849 0,-1.5956 -0.49266,-4.1678 -1.09481,-5.7161 -1.51337,-3.8914 -2.19029,-27.2119 -1.05412,-36.3151 1.34654,-10.7888 4.16023,-25.3075 5.13336,-26.4884 0.45852,-0.5564 1.79409,-3.9366 2.96793,-7.5116 1.17383,-3.575 3.51454,-9.425 5.20156,-13 7.93762,-16.8208 8.52886,-17.8653 18.54657,-32.7651 2.86027,-4.2542 6.46027,-9.6918 8,-12.0835 4.2959,-6.673 23.35565,-28.3363 36.23671,-41.1866 32.32046,-32.24309 57.53908,-49.361494 97.0628,-65.885894 4.44028,-1.8564 8.92787,-4.5997 11,-6.7243 3.84614,-3.9435 7.17902,-5.6069 9.4718,-4.727 0.83531,0.3205 3.58332,-0.9597 6.25868,-2.9158 6.17055,-4.5115 15.18643,-8.5345 28.26953,-12.6144 5.775,-1.8009 11.85,-3.8838 13.5,-4.6286 3.292,-1.4861 26.9165,-6.5352 32.5,-6.9461 1.925,-0.1416 6.65,-0.8343 10.5,-1.5393 10.3175,-1.8894 54.2348,-1.6505 66.5,0.3617 5.225,0.8572 12.425,2.0415 16,2.6318 12.4944,2.0632 30.66524,7.385 47.00004,13.7651 50.4688,19.7124 88.0026,51.695504 113.1983,96.457794 5.8626,10.4154 13.6377,28.0067 16.707,37.8002 4.3293,13.8135 5.0947,16.5219 5.0947,18.0278 0,0.9336 0.8805,5.2468 1.9567,9.5848 2.5122,10.1268 4.27,34.7721 3.4868,48.8874 -1.0134,18.2659 -6.2292,40.5191 -12.7737,54.4988 -1.509,3.2234 -11.991,21.2673 -15.4804,26.6485 -9.1235,14.0694 -27.2624,32.4805 -41.3219,41.9418 -2.8287,1.9036 -6.7686,4.7071 -8.7553,6.2299 -1.9867,1.5229 -4.7372,3.3099 -6.1122,3.9712 -1.375,0.6613 -5.2,2.9871 -8.5,5.1685 -3.3,2.1814 -7.125,4.4328 -8.5,5.0031 -1.375,0.5704 -3.175,1.4686 -4,1.9962 -1.9517,1.248 -13.8635,7.042 -14.4776,7.042 -0.2598,0 -3.5211,1.4069 -7.2474,3.1265 -3.7262,1.7196 -9.7,4.1751 -13.275,5.4568 -3.575,1.2817 -8.975,3.2999 -12,4.4849 -3.025,1.185 -7.525,2.7454 -10,3.4677 -2.475,0.7222 -7.2,2.1976 -10.5,3.2785 -3.30004,1.081 -8.47504,2.5244 -11.50004,3.2076 -3.025,0.6833 -6.3958,1.7066 -7.4907,2.2741 -2.0349,1.0548 -15.878,4.1736 -25.2028,5.6781 -2.8565,0.4609 -5.5827,1.0784 -6.0582,1.3724 -3.6903,2.2807 -78.4885,10.1442 -89.7483,9.4352 -1.65,-0.1039 -6.825,-0.3049 -11.5,-0.4467 -42.75848,-1.2969 -82.19252,-8.9163 -113.825,-21.9931"
         id="path3257"
         inkscape:connector-curvature="0" />
    </g>
    <path
       inkscape:connector-curvature="0"
       id="path3237"
       d="m 468.89325,209.04327 c -1.31585,-1.144 -1.20126,-2.6234 0.53745,-6.9392 2.39819,-5.9527 5.49124,-8.1216 16.67164,-11.6903 3.46347,-1.1055 6.29639,-2.3264 6.29539,-2.7132 -0.003,-0.8314 -22.35133,-7.3615 -33.25814,-9.7176 -4.19214,-0.9055 -8.93573,-2.0212 -10.5413,-2.4792 -4.0213,-1.1471 -34.4214,-7.6813 -49.66451,-10.6749 -13.46267,-2.6439 -21.27117,-3.9512 -43.03864,-7.2057 -7.62208,-1.1396 -18.32299,-2.7566 -23.77979,-3.5933 -23.17844,-3.5541 -90.10952,-5.8316 -100.25214,-3.4113 -2.66773,0.6365 -7.65672,1.2938 -11.08666,1.4605 -15.18289,0.7382 -29.41703,2.9999 -37.87621,6.0183 -7.69838,2.747 -11.1649,1.4899 -12.31617,-4.4663 -0.59719,-3.0896 -0.24145,-3.4881 4.32985,-4.8495 2.73928,-0.8159 5.91594,-2.0668 7.05925,-2.7798 2.68193,-1.6725 15.74058,-3.5731 22.86622,-3.3279 7.80147,0.2684 25.11022,-1.0802 29.53994,-2.3017 5.09959,-1.4062 26.99746,-1.7936 36.28706,-0.6419 4.19214,0.5197 14.21094,1.0611 22.264,1.203 8.05306,0.142 15.75281,0.7068 17.11055,1.255 1.35774,0.5483 5.55449,0.783 9.32611,0.5215 4.48322,-0.3109 8.63516,0.071 11.99191,1.1027 2.82393,0.8679 10.31825,2.0463 16.65401,2.6185 6.33577,0.5722 12.84945,1.7125 14.47485,2.5341 1.95868,0.9899 4.64103,1.2991 7.95414,0.9168 3.12927,-0.3611 6.97884,0.02 10.2929,1.0194 2.91172,0.8778 6.46982,1.5961 7.9069,1.5961 3.17903,0 43.82844,8.1204 51.09609,10.2073 1.90551,0.5472 7.51813,1.7946 12.47248,2.772 10.43387,2.0585 25.93172,5.4915 29.44892,6.5232 1.46684,0.4303 2.42521,0.2616 2.42521,-0.4269 0,-0.6261 -1.09134,-1.4314 -2.42521,-1.7895 -3.00839,-0.8076 -10.38786,-4.4395 -11.75666,-5.7861 -1.43923,-1.4159 0.27562,-7.7171 2.57859,-9.4751 1.70008,-1.2977 2.38863,-1.2641 5.72845,0.2802 2.08783,0.9654 9.4087,3.8166 16.26856,6.336 17.91725,6.5803 35.30031,14.1659 40.68932,17.756 4.53569,3.0216 8.50154,8.3024 10.38633,13.8299 0.81177,2.3807 0.2443,3.0544 -4.46848,5.3049 -4.93809,2.358 -7.21408,2.6529 -26.69566,3.4581 -24.21907,1.001 -29.25256,1.8302 -36.56564,6.0238 -5.95022,3.4122 -6.63374,3.5294 -8.93091,1.5321 z"
       style="fill:#161616" />
    <path
       inkscape:connector-curvature="0"
       id="path3235"
       d="m 1080.9768,180.45936 c -1.9182,-2.6689 -2.0996,-8.1501 -0.3147,-9.5093 3.1189,-2.3749 20.8492,-10.3099 36.6848,-16.4176 4.2328,-1.6327 8.498,-3.3919 9.4779,-3.9095 0.98,-0.5176 2.4859,-0.9411 3.3462,-0.9411 0.8604,0 3.5218,-0.8585 5.9143,-1.9077 2.3924,-1.0493 5.5043,-2.1378 6.9153,-2.4191 2.4111,-0.4806 10.3027,-3.0192 14.8791,-4.7864 3.3718,-1.3021 16.1177,-4.6431 20.5229,-5.3795 2.2576,-0.3775 4.6769,-1.1471 5.3763,-1.7103 0.6995,-0.5633 4.1627,-1.1275 7.6961,-1.2538 4.1752,-0.1493 7.9385,-0.9856 10.7491,-2.3887 2.3786,-1.1874 5.8417,-2.115 7.6961,-2.0614 1.8543,0.054 6.142,-0.6133 9.5283,-1.4822 3.3863,-0.8688 7.688,-1.5867 9.5593,-1.5953 1.8714,-0.01 4.323,-0.4957 5.4482,-1.0826 6.9618,-3.6309 89.9032,-6.6163 129.1662,-4.6492 11.0054,0.5514 22.2838,1.0506 25.0631,1.1094 l 5.0532,0.1068 -0.246,-6.6506 c -0.1483,-4.0056 0.2021,-6.9206 0.8808,-7.3294 0.6198,-0.3733 2.6125,0.1603 4.4281,1.1858 1.8157,1.0254 5.3792,2.4644 7.9189,3.1978 13.2776,3.8339 29.4804,10.5812 34.8318,14.505 1.9439,1.4253 4.1863,2.5914 4.9831,2.5914 0.7969,0 3.2467,1.3878 5.4445,3.084 3.9373,3.0391 3.9956,3.1826 3.9956,9.845 0,9.1369 -0.7701,9.6913 -18.8779,13.5875 -3.8925,0.8376 -9.8219,2.9485 -13.1765,4.6909 -7.4877,3.8892 -9.3585,3.2337 -9.8121,-3.4381 -0.2978,-4.3798 -0.1487,-4.6373 4.6177,-7.9813 4.2265,-2.9653 10.2752,-5.7018 18.1907,-8.2298 1.7027,-0.5438 1.7741,-0.8189 0.5132,-1.9769 -1.7771,-1.632 -33.9292,-4.8032 -51.3,-5.0597 -6.5273,-0.096 -12.4101,-0.502 -13.0731,-0.9013 -1.2981,-0.7818 -74.0035,-0.9391 -85.8831,-0.1859 -3.9506,0.2506 -12.2624,0.7397 -18.4706,1.087 -6.2082,0.3473 -14.5201,1.1056 -18.4707,1.6851 -3.9506,0.5795 -9.03,1.1879 -11.2876,1.3519 -4.8154,0.3499 -20.9957,2.977 -23.935,3.8861 -1.1182,0.3459 -4.5021,1.0529 -7.5197,1.5711 -13.2174,2.27 -41.3884,9.5065 -48.5848,12.4803 -1.6931,0.6997 -5.1563,1.8159 -7.696,2.4805 -10.8361,2.8353 -50.574,18.8745 -60.6013,24.4599 -5.616,3.1284 -7.5785,3.1979 -9.6317,0.3412 z"
       style="fill:#161616" />
    <text
       xml:space="preserve"
       style="font-style:normal;font-variant:normal;font-weight:bold;font-stretch:normal;line-height:0%;font-family:'DejaVu Sans';-inkscape-font-specification:'DejaVu Sans Bold';text-align:start;letter-spacing:0px;word-spacing:0px;writing-mode:lr-tb;text-anchor:start;fill:#000000;fill-opacity:1;stroke:none"
       x="1066.4489"
       y="380.74576"
       id="text3324"><tspan
         sodipodi:role="line"
         id="tspan3326"
         x="1066.4489"
         y="380.74576"
         style="font-size:48px;line-height:1.25">--client-auth</tspan></text>
    <text
       xml:space="preserve"
       style="font-style:normal;font-variant:normal;font-weight:bold;font-stretch:normal;line-height:0%;font-family:'DejaVu Sans';-inkscape-font-specification:'DejaVu Sans Bold';text-align:start;letter-spacing:0px;word-spacing:0px;writing-mode:lr-tb;text-anchor:start;display:inline;fill:#000000;fill-opacity:1;stroke:none"
       x="176.8667"
       y="385.01154"
       id="text3324-9"><tspan
         sodipodi:role="line"
         id="tspan3326-1"
         x="176.8667"
         y="385.01154"
         style="font-size:48px;line-height:1.25">--server-auth</tspan></text>
    <g
       id="g3384"
       transform="translate(-155.02689,-30.664659)">
      <path
         inkscape:connector-curvature="0"
         id="path8377"
         d="m 1661.9361,118.9409 c -1.771,-3.3091 -1.6446,-6.39842 0.4329,-10.58363 2.4886,-5.01311 4.9505,-6.02558 16.216,-6.66877 18.5597,-1.05965 29.5411,1.28198 28.5934,6.09719 -1.4666,7.45155 -13.4826,13.712 -28.3874,14.79011 -12.3126,0.89062 -14.7096,0.37369 -16.8549,-3.6349 z"
         style="fill:#fbdeb2;fill-opacity:1;stroke:none;display:inline" />
      <path
         inkscape:connector-curvature="0"
         id="path3239"
         d="m 1654.2227,237.16914 c -2.154,-2.2928 -2.2798,-3.0697 -1.7838,-11.0193 0.558,-8.9437 3.3281,-16.3433 8.0954,-21.6244 1.1864,-1.3143 3.3402,-3.9646 4.7861,-5.8896 1.446,-1.925 4.0263,-5.075 5.7341,-7 3.2914,-3.7102 3.3422,-3.8329 3.5216,-8.5 0.097,-2.5285 0.5082,-2.9859 2.6153,-2.9103 1.375,0.049 3.175,0.2743 4,0.5 1.0035,0.2745 1.4438,-0.2517 1.3303,-1.5897 -0.2702,-3.1859 -2.5316,-10.8828 -3.5992,-12.25 -1.2121,-1.55241 -8.9685,-1.61551 -17.4309,-0.14181 -4.7845,0.83321 -7.068,0.81641 -9.2022,-0.068 -3.1033,-1.2854 -5.3823,-5.1362 -4.4609,-7.5374 0.7469,-1.9462 2.2502,-2.223 17.3629,-3.1973 l 12.5,-0.8059 0.5,-9 c 0.4551,-8.1922 0.6885,-9.0269 2.6001,-9.2999 1.3402,-0.1914 3.3961,0.9961 5.6819,3.2819 3.1076,3.1076 3.5075,4.04 3.0205,7.0415 -0.8789,5.416 0.7005,6.4765 9.6456,6.4765 6.7592,0 7.9697,0.2837 9.8776,2.3144 4.5646,4.8589 1.8972,7.624 -7.51,7.7853 -9.2541,0.1586 -10.7644,0.8649 -11.1269,5.20381 -0.1712,2.0485 0.6631,7.6558 1.854,12.4605 l 2.1652,8.736 8.979,9.1999 c 9.4407,9.673 10.6653,12.5254 5.6285,13.1094 -3.4107,0.3954 -8.9308,-3.1513 -15.0799,-9.6889 -6.5015,-6.9122 -7.908,-7.5592 -11.0539,-5.0847 -3.9039,3.0708 -15.0491,16.9481 -17.5586,21.863 -1.2353,2.4192 -2.7028,6.9192 -3.2612,10 -0.9998,5.5157 -3.1382,10.1013 -4.7106,10.1013 -0.4415,0 -1.8455,-1.11 -3.12,-2.4667 z"
         style="fill:#161616" />
      <path
         sodipodi:nodetypes="ccccsscscsscccccscssssc"
         inkscape:connector-curvature="0"
         id="path3066"
         d="m 1680.1083,124.22703 c 7.0818,-0.2751 10.2071,-1.0243 14.2901,-2.5674 l 0,-2e-4 c 7.0507,-2.6646 11.1812,-6.0188 13.8472,-11.2445 1.9056,-3.7354 1.9254,-4.0795 0.3352,-5.8366 -3.0633,-3.3849 -8.2846,-4.43 -20.9479,-4.1932 -6.8882,0.1288 -13.6023,-0.2658 -15.7613,-0.926202 -3.4318,-1.0499 -3.9877,-0.9393 -6.3473,1.263102 -3.0038,2.8037 -5.8546,8.0568 -6.8328,12.5908 -0.9266,4.2944 1.6041,9.1015 5.2095,9.896 1.5025,0.3311 3.1819,0.783 3.7319,1.0042 0.55,0.2212 5.5,0.2275 11,0.014 m -0.3448,10.1672 c -0.39,-0.075 -0.7802,-0.1993 -2.1552,-0.4052 -12.019,-1.8001 -14.4349,-2.7238 -18.7581,-7.1721 -2.3812,-2.45 -4.9847,-6.023 -5.7857,-7.94 -4.7123,-11.2783 1.6556,-23.835002 15.8795,-31.312402 9.2319,-4.8531 12.0541,-4.7682 20.1517,0.6068 3.5494,2.3559 6.6277,3.5194 10.2516,3.8745 6.4828,0.6353 11.9926,3.4083 17.7688,8.942902 3.6122,3.4611 4.4922,4.9758 4.4922,7.7323 0,13.5694 -10.6345,21.7402 -32.2909,24.8103 -4.285,0.6075 -8.11,1.0432 -8.5,0.9683"
         style="fill:#161616" />
      <text
         id="text3379"
         y="288.75177"
         x="1633.7449"
         style="font-style:normal;font-variant:normal;font-weight:bold;font-stretch:normal;line-height:0%;font-family:'DejaVu Sans';-inkscape-font-specification:'DejaVu Sans Bold';text-align:start;letter-spacing:0px;word-spacing:0px;writing-mode:lr-tb;text-anchor:start;fill:#000000;fill-opacity:1;stroke:none"
         xml:space="preserve"><tspan
           y="288.75177"
           x="1633.7449"
           id="tspan3381"
           sodipodi:role="line"
           style="font-size:48px;line-height:1.25">bob</tspan></text>
    </g>
    <path
       style="fill:#161616;display:inline"
       d="m 311.95448,476.78664 c 24.58022,-0.4873 42.77494,-0.9269 45.45641,-0.9767 2.68148,-0.05 8.89763,-0.2859 13.81367,-0.5246 4.91606,-0.2386 20.63927,-0.7058 34.94048,-1.038 14.30122,-0.3323 29.33033,-0.8366 33.39806,-1.1206 12.42628,-0.8679 81.80619,-2.0079 114.13509,-1.8754 27.9904,0.1147 78.5421,2.7498 81.8676,4.2675 7.0635,3.2237 8.904,6.0438 9.9447,15.2381 0.5833,5.1531 1.0373,10.9443 1.0091,12.8693 -0.062,4.1586 -4.7443,29.1768 -7.5808,40.5 -1.4465,5.7738 -1.9156,24.1011 -1.6859,65.8615 0.3544,64.4154 -0.1495,61.6385 11.2037,61.6385 7.8853,0 5.2544,-1.20564 9.4039,2.38016 2.7897,2.4107 0.853,6.28274 -0.4039,7.50144 -1.3723,1.3308 5.93,1.5563 -5.2986,1.2691 l -13.6549,-0.3493 -2.7894,3.5993 c -2.8607,3.6914 -6.2908,4.5598 -9.2791,2.3493 -0.9292,-0.6875 -3.0364,-2.3361 -4.6821,-3.6636 -2.6687,-2.1525 -4.4708,-2.4515 -16.6571,-2.7639 -7.5156,-0.1926 -30.1191,0.1098 -50.2302,0.6719 -20.1111,0.5622 -44.6101,1.2489 -54.4421,1.5261 -9.83212,0.2773 -21.53311,0.7153 -26.00224,0.9734 -26.6222,1.5379 -133.39053,3.4824 -161.70125,2.945 -53.94127,-1.0239 -84.94478,-2.9391 -91.17945,-6.9251 -4.90207,-3.134 -7.82651,-8.5054 -5.88772,-10.8143 0.97671,-1.1632 0.5922,-6.119 -1.08639,-14 -1.42899,-6.7097 -1.65543,-20.2995 -2.94774,-30.1995 -2.80971,-21.5241 -4.64015,-44.5512 -6.89959,-53.5 -4.48895,-17.7787 -4.55992,-47.49 -5.04762,-66.0309 -0.29692,-11.292 -1.02238,-21.3045 -1.61198,-22.25 -3.01869,-4.8405 1.34317,-5.5332 39.09156,-6.2079 14.30121,-0.2556 46.11329,-0.8634 70.69351,-1.3508 m -7.36074,10.8144 c -15.64196,0.53 -35.29914,1.2175 -48.70653,1.5277 -13.40739,0.3102 -27.4684,0.8235 -31.24669,1.1407 l -6.86962,0.5768 0.8883,18.1399 c 1.06772,21.804 -2.91279,21.9841 0.54617,42.1399 1.51007,8.8 1.44804,17.382 2.30628,19.071 0.8584,1.689 1.56078,5.0927 1.56078,7.5636 0,2.4709 1.59875,9.55628 2.59129,15.929 1.1216,7.20139 1.65562,13.45001 1.99707,17.02501 0.34143,3.575 0.20667,8.76139 0.6596,10.41139 0.45293,1.65 1.96219,10.875 3.35396,20.5 3.59805,24.8838 4.80294,30.0601 7.20993,30.9754 11.03566,4.1968 80.28241,5.4772 169.76592,3.3817 l 0,2e-4 c 18.77035,-0.4395 35.22487,-0.7068 36.56561,-0.594 1.34074,0.1129 15.60133,-0.4571 31.6902,-1.2666 33.12808,-1.6668 99.51048,-3.4798 127.78058,-3.4898 14.302,-0.01 19.3606,-0.3508 20.8055,-1.4221 1.402,-1.0396 1.6563,-7.4785 0.9577,-24.25 -2.872,-68.9384 -2.2018,-91.939 3.3315,-114.3346 1.291,-5.225 2.8188,-16.9688 3.3952,-26.0973 0.8625,-13.6582 0.6447,-16.757 -1.2297,-17.4994 -2.3828,-0.9438 -20.7022,-3.1881 -27.1349,-3.3243 -56.518,-3.26162 -107.62546,-1.67151 -157.15837,-0.2613 -14.30122,0.6344 -45.01633,1.6125 -68.25581,2.1734 -23.23947,0.561 -55.05154,1.4536 -70.69351,1.9837"
       id="path3255-3-2"
       inkscape:connector-curvature="0"
       sodipodi:nodetypes="cccccsssssssccscssscsccsscssssssccsccssssssssccccscsssscccsc" />
    <path
       style="font-size:medium;font-style:normal;font-variant:normal;font-weight:normal;font-stretch:normal;text-indent:0;text-align:start;text-decoration:none;line-height:normal;letter-spacing:normal;word-spacing:normal;text-transform:none;direction:ltr;block-progression:tb;writing-mode:lr-tb;text-anchor:start;baseline-shift:baseline;color:#000000;fill:#000000;fill-opacity:1;stroke:none;stroke-width:1px;marker:none;visibility:visible;display:inline;overflow:visible;enable-background:accumulate;font-family:Sans;-inkscape-font-specification:Sans"
       d="m 1011.6284,387.35747 c -5.0743,5.05658 2.2532,9.37808 8.4237,11.75071 31.7564,17.83841 58.0478,43.73861 92.3449,56.99351 14.9653,6.74659 28.0431,11.81756 43.0194,18.53707 4.8155,-3.79198 4.9285,-7.14478 -1.7635,-9.69948 -20.1954,-8.63561 -35.188,-11.25388 -58.3955,-24.06174 -23.2075,-12.80786 -53.6574,-37.82502 -79.6525,-54.46677 -2.9805,-2.19336 -2.1639,-2.3389 -3.9765,0.9467 z"
       id="path3439"
       inkscape:connector-curvature="0"
       sodipodi:nodetypes="ccccczcc" />
    <path
       style="font-size:medium;font-style:normal;font-variant:normal;font-weight:normal;font-stretch:normal;text-indent:0;text-align:start;text-decoration:none;line-height:normal;letter-spacing:normal;word-spacing:normal;text-transform:none;direction:ltr;block-progression:tb;writing-mode:lr-tb;text-anchor:start;baseline-shift:baseline;color:#000000;fill:#000000;fill-opacity:1;stroke:none;stroke-width:1px;marker:none;visibility:visible;display:inline;overflow:visible;enable-background:accumulate;font-family:Sans;-inkscape-font-specification:Sans"
       d="m 431.96386,477.5158 c -5.0743,-5.05658 2.2532,-9.37808 8.4237,-11.75071 31.7564,-17.83841 58.0478,-43.73861 92.3449,-56.99351 14.9653,-6.74659 28.0431,-11.81756 43.0194,-18.53707 4.8155,3.79198 4.9285,7.14478 -1.7635,9.69948 -20.1954,8.63561 -35.188,11.25388 -58.3955,24.06174 -23.2075,12.80786 -53.6574,37.82502 -79.6525,54.46677 -2.9805,2.19336 -2.1639,2.3389 -3.9765,-0.9467 z"
       id="path3439-0"
       inkscape:connector-curvature="0"
       sodipodi:nodetypes="ccccczcc" />
    <path
       style="fill:#161616;display:inline"
       d="m 1021.3328,474.27836 c 24.5803,-0.4873 42.775,-0.9269 45.4564,-0.9767 2.6815,-0.05 8.8977,-0.2859 13.8137,-0.5246 4.9161,-0.2386 20.6393,-0.7058 34.9405,-1.038 14.3012,-0.3323 29.3303,-0.8366 33.398,-1.1206 12.4263,-0.8679 81.8062,-2.0079 114.1351,-1.8754 27.9904,0.1147 78.5421,2.7498 81.8676,4.2675 7.0635,3.2237 8.904,6.0438 9.9447,15.2381 0.5833,5.1531 1.0373,10.9443 1.0091,12.8693 -0.062,4.1586 -4.7443,29.1768 -7.5808,40.5 -1.4465,5.7738 -1.9156,24.1011 -1.6859,65.8615 0.3544,64.4154 -0.1495,61.6385 11.2037,61.6385 7.8853,0 5.2544,-1.20564 9.4039,2.38016 2.7897,2.4107 0.853,6.28274 -0.4039,7.50144 -1.3723,1.3308 5.93,1.5563 -5.2986,1.2691 l -13.6549,-0.3493 -2.7894,3.5993 c -2.8607,3.6914 -6.2908,4.5598 -9.2791,2.3493 -0.9292,-0.6875 -3.0364,-2.3361 -4.6821,-3.6636 -2.6687,-2.1525 -4.4708,-2.4515 -16.6571,-2.7639 -7.5156,-0.1926 -30.1191,0.1098 -50.2302,0.6719 -20.1111,0.5622 -44.6101,1.2489 -54.4421,1.5261 -9.8321,0.2773 -21.5331,0.7153 -26.0022,0.9734 -26.6222,1.5379 -133.3905,3.4824 -161.7012,2.945 -53.94131,-1.0239 -84.94482,-2.9391 -91.17949,-6.9251 -4.90207,-3.134 -7.82651,-8.5054 -5.88772,-10.8143 0.97671,-1.1632 0.5922,-6.119 -1.08639,-14 -1.42899,-6.7097 -1.65543,-20.2995 -2.94774,-30.1995 -2.80971,-21.5241 -4.64015,-44.5512 -6.89959,-53.5 -4.48895,-17.7787 -4.55992,-47.49 -5.04762,-66.0309 -0.29692,-11.292 -1.02238,-21.3045 -1.61198,-22.25 -3.01869,-4.8405 1.34317,-5.5332 39.09156,-6.2079 14.30121,-0.2556 46.11329,-0.8634 70.69347,-1.3508 m -7.3607,10.8144 c -15.64196,0.53 -35.29914,1.2175 -48.70653,1.5277 -13.40739,0.3102 -27.4684,0.8235 -31.24669,1.1407 l -6.86962,0.5768 0.8883,18.1399 c 1.06772,21.804 -2.91279,21.9841 0.54617,42.1399 1.51007,8.8 1.44804,17.382 2.30628,19.071 0.8584,1.689 1.56078,5.0927 1.56078,7.5636 0,2.4709 1.59875,9.55628 2.59129,15.929 1.1216,7.20139 1.65562,13.45001 1.99707,17.02501 0.34143,3.575 0.20667,8.76139 0.6596,10.41139 0.45293,1.65 1.96219,10.875 3.35396,20.5 3.59805,24.8838 4.80294,30.0601 7.20993,30.9754 11.03566,4.1968 80.28246,5.4772 169.76586,3.3817 l 0,2e-4 c 18.7704,-0.4395 35.2249,-0.7068 36.5657,-0.594 1.3407,0.1129 15.6013,-0.4571 31.6902,-1.2666 33.128,-1.6668 99.5104,-3.4798 127.7805,-3.4898 14.302,-0.01 19.3606,-0.3508 20.8055,-1.4221 1.402,-1.0396 1.6563,-7.4785 0.9577,-24.25 -2.872,-68.9384 -2.2018,-91.939 3.3315,-114.3346 1.291,-5.225 2.8188,-16.9688 3.3952,-26.0973 0.8625,-13.6582 0.6447,-16.757 -1.2297,-17.4994 -2.3828,-0.9438 -20.7022,-3.1881 -27.1349,-3.3243 -56.518,-3.26162 -107.6254,-1.67151 -157.1583,-0.2613 -14.3013,0.6344 -45.0164,1.6125 -68.2558,2.1734 -23.2395,0.561 -55.0516,1.4536 -70.6935,1.9837"
       id="path3255-3-2-3"
       inkscape:connector-curvature="0"
       sodipodi:nodetypes="cccccsssssssccscssscsccsscssssssccsccssssssssccccscsssscccsc" />
    <path
       style="fill:#fff6d5;stroke:none"
       d="m 241.02081,672.36506 c -7.17795,-1.7118 -7.35326,-2.13464 -11.297,-27.24711 -9.6652,-61.54492 -14.28972,-102.65603 -14.257,-126.74218 l 0.0352,-25.89255 24.91124,-1.43226 c 13.70118,-0.78775 67.01731,-2.52796 118.48028,-3.86713 51.46297,-1.33917 114.34866,-3.07693 139.74597,-3.86169 48.76938,-1.50693 124.42585,2.12252 128.46621,6.16289 1.57306,1.57306 0.79182,13.05247 -2.27649,33.44986 -3.59488,23.89791 -4.67148,44.21739 -4.67148,88.16846 l 0,57.11357 -35.24029,1.5381 c -55.3579,2.41615 -335.78506,4.54449 -343.89661,2.61004 z"
       id="path3088"
       inkscape:connector-curvature="0" />
    <path
       style="fill:#fff6d5;stroke:none"
       d="m 950.71481,669.92649 c -6.7719,-1.62947 -7.46902,-2.88127 -10.29836,-18.4923 -1.66912,-9.20948 -4.66724,-29.43367 -6.66248,-44.94264 -1.99524,-15.50897 -4.72122,-35.30695 -6.05773,-43.9955 -1.33652,-8.68855 -2.45201,-28.54586 -2.47889,-44.12734 l -0.0489,-28.32998 22.48088,-1.4083 c 12.36448,-0.77457 64.58694,-2.51393 116.04994,-3.86523 51.4629,-1.35131 115.9891,-3.11198 143.3915,-3.91261 51.0226,-1.49074 125.5025,2.02317 129.5935,6.11414 1.3848,1.38479 0.1708,17.08301 -3.1485,40.71432 -4.5092,32.10264 -5.2625,46.69669 -4.5569,88.28302 l 0.8453,49.82248 -36.4555,1.52842 c -57.9773,2.43073 -334.64218,4.53932 -342.65389,2.61152 z"
       id="path3090"
       inkscape:connector-curvature="0" />
    <text
       xml:space="preserve"
       style="font-style:normal;font-variant:normal;font-weight:bold;font-stretch:normal;line-height:0%;font-family:'DejaVu Sans Mono';-inkscape-font-specification:'DejaVu Sans Mono Bold';text-align:start;letter-spacing:0px;word-spacing:0px;writing-mode:lr-tb;text-anchor:start;fill:#000000;fill-opacity:1;stroke:none"
       x="218.47667"
       y="514.90009"
       id="text3405"><tspan
         sodipodi:role="line"
         id="tspan3407"
         x="218.47667"
         y="514.90009"
         style="font-size:28px;line-height:1.25">server plain alice ...</tspan><tspan
         sodipodi:role="line"
         x="218.47667"
         y="549.90009"
         id="tspan3409"
         style="font-size:28px;line-height:1.25">server plain carol ...</tspan><tspan
         sodipodi:role="line"
         x="218.47667"
         y="584.90009"
         id="tspan3411"
         style="font-size:28px;line-height:1.25">server plain dave ...</tspan></text>
    <text
       xml:space="preserve"
       style="font-style:normal;font-variant:normal;font-weight:bold;font-stretch:normal;line-height:0%;font-family:'DejaVu Sans Mono';-inkscape-font-specification:'DejaVu Sans Mono Bold';text-align:start;letter-spacing:0px;word-spacing:0px;writing-mode:lr-tb;text-anchor:start;fill:#000000;fill-opacity:1;stroke:none"
       x="928.94977"
       y="521.77808"
       id="text3413"><tspan
         sodipodi:role="line"
         id="tspan3415"
         x="928.94977"
         y="521.77808"
         style="font-size:28px;line-height:1.25">client plain bob ...</tspan></text>
  </g>
  <g
     inkscape:groupmode="layer"
     id="layer5"
     inkscape:label="text"
     style="display:inline">
    <g
       id="g3393"
       transform="translate(-52.811358,-27.257475)">
      <text
         id="text3375"
         y="283.64099"
         x="95.401161"
         style="font-style:normal;font-variant:normal;font-weight:bold;font-stretch:normal;line-height:0%;font-family:'DejaVu Sans';-inkscape-font-specification:'DejaVu Sans Bold';text-align:start;letter-spacing:0px;word-spacing:0px;writing-mode:lr-tb;text-anchor:start;display:inline;fill:#000000;fill-opacity:1;stroke:none"
         xml:space="preserve"><tspan
           y="283.64099"
           x="95.401161"
           id="tspan3377"
           sodipodi:role="line"
           style="font-size:48px;line-height:1.25">alice</tspan></text>
      <path
         inkscape:connector-curvature="0"
         id="path8377-5"
         d="m 129.84106,124.82785 c -1.771,-3.3091 -1.6446,-6.39842 0.4329,-10.58363 2.4886,-5.01311 4.9505,-6.02558 16.216,-6.66877 18.5597,-1.05965 29.5411,1.28198 28.5934,6.09719 -1.4666,7.45155 -13.4826,13.712 -28.3874,14.79011 -12.3126,0.89062 -14.7096,0.37369 -16.8549,-3.6349 z"
         style="fill:#fbdeb2;fill-opacity:1;stroke:none;display:inline" />
      <path
         inkscape:connector-curvature="0"
         id="path3239-6"
         d="m 122.12766,243.05609 c -2.154,-2.2928 -2.2798,-3.0697 -1.7838,-11.0193 0.558,-8.9437 3.3281,-16.3433 8.0954,-21.6244 1.1864,-1.3143 3.3402,-3.9646 4.7861,-5.8896 1.446,-1.925 4.0263,-5.075 5.7341,-7 3.2914,-3.7102 3.3422,-3.8329 3.5216,-8.5 0.097,-2.5285 0.5082,-2.9859 2.6153,-2.9103 1.375,0.049 3.175,0.2743 4,0.5 1.0035,0.2745 1.4438,-0.2517 1.3303,-1.5897 -0.2702,-3.1859 -2.5316,-10.8828 -3.5992,-12.25 -1.2121,-1.55241 -8.9685,-1.61551 -17.4309,-0.14181 -4.7845,0.83321 -7.068,0.81641 -9.2022,-0.068 -3.1033,-1.2854 -5.3823,-5.1362 -4.4609,-7.5374 0.7469,-1.9462 2.2502,-2.223 17.3629,-3.1973 l 12.5,-0.8059 0.5,-9 c 0.4551,-8.1922 0.6885,-9.0269 2.6001,-9.2999 1.3402,-0.1914 3.3961,0.9961 5.6819,3.2819 3.1076,3.1076 3.5075,4.04 3.0205,7.0415 -0.8789,5.416 0.7005,6.4765 9.6456,6.4765 6.7592,0 7.9697,0.2837 9.8776,2.3144 4.5646,4.8589 1.8972,7.624 -7.51,7.7853 -9.2541,0.1586 -10.7644,0.8649 -11.1269,5.20381 -0.1712,2.0485 0.6631,7.6558 1.854,12.4605 l 2.1652,8.736 8.979,9.1999 c 9.4407,9.673 10.6653,12.5254 5.6285,13.1094 -3.4107,0.3954 -8.9308,-3.1513 -15.0799,-9.6889 -6.5015,-6.9122 -7.908,-7.5592 -11.0539,-5.0847 -3.9039,3.0708 -15.0491,16.9481 -17.5586,21.863 -1.2353,2.4192 -2.7028,6.9192 -3.2612,10 -0.9998,5.5157 -3.1382,10.1013 -4.7106,10.1013 -0.4415,0 -1.8455,-1.11 -3.12,-2.4667 z"
         style="fill:#161616;display:inline" />
      <path
         sodipodi:nodetypes="ccccsscscsscccccscssssc"
         inkscape:connector-curvature="0"
         id="path3066-2"
         d="m 148.01326,130.11398 c 7.0818,-0.2751 10.2071,-1.0243 14.2901,-2.5674 l 0,-2e-4 c 7.0507,-2.6646 11.1812,-6.0188 13.8472,-11.2445 1.9056,-3.7354 1.9254,-4.0795 0.3352,-5.8366 -3.0633,-3.3849 -8.2846,-4.43 -20.9479,-4.1932 -6.8882,0.1288 -13.6023,-0.2658 -15.7613,-0.9262 -3.4318,-1.0499 -3.9877,-0.9393 -6.3473,1.2631 -3.0038,2.8037 -5.8546,8.0568 -6.8328,12.5908 -0.9266,4.2944 1.6041,9.1015 5.2095,9.896 1.5025,0.3311 3.1819,0.783 3.7319,1.0042 0.55,0.2212 5.5,0.2275 11,0.014 m -0.3448,10.1672 c -0.39,-0.075 -0.7802,-0.1993 -2.1552,-0.4052 -12.019,-1.8001 -14.4349,-2.7238 -18.7581,-7.1721 -2.3812,-2.45 -4.9847,-6.023 -5.7857,-7.94 -4.7123,-11.2783 1.6556,-23.835 15.8795,-31.312398 9.2319,-4.8531 12.0541,-4.7682 20.1517,0.6068 3.5494,2.3559 6.6277,3.5194 10.2516,3.8745 6.4828,0.6353 11.9926,3.408298 17.7688,8.942898 3.6122,3.4611 4.4922,4.9758 4.4922,7.7323 0,13.5694 -10.6345,21.7402 -32.2909,24.8103 -4.285,0.6075 -8.11,1.0432 -8.5,0.9683"
         style="fill:#161616;display:inline" />
    </g>
  </g>
</svg>

