<?xml version="1.0" encoding="UTF-8" standalone="no"?>
<svg
<!-- Copyright (C) 2001-2023 Graeme Walker <graeme_walker@users.sourceforge.net>. All rights reserved. -->
   xmlns:dc="http://purl.org/dc/elements/1.1/"
   xmlns:cc="http://creativecommons.org/ns#"
   xmlns:rdf="http://www.w3.org/1999/02/22-rdf-syntax-ns#"
   xmlns:svg="http://www.w3.org/2000/svg"
   xmlns="http://www.w3.org/2000/svg"
   xmlns:sodipodi="http://sodipodi.sourceforge.net/DTD/sodipodi-0.dtd"
   xmlns:inkscape="http://www.inkscape.org/namespaces/inkscape"
   version="1.0"
   width="210mm"
   height="297mm"
   viewBox="0 0 595.27559 841.88976"
   preserveAspectRatio="xMidYMid meet"
   id="svg8"
   sodipodi:docname="mailserver.svg"
   inkscape:version="1.0.2 (e86c870879, 2021-01-15)"
   inkscape:export-filename="/home/graeme/src/trunk/gnetapps/emailrelay/doc/graphics/mailserver.png"
   inkscape:export-xdpi="57.367428"
   inkscape:export-ydpi="57.367428">
  <defs
     id="defs12">
    <inkscape:path-effect
       effect="fill_between_many"
       method="originald"
       linkedpaths="#path4,0"
       id="path-effect2166"
       is_visible="true"
       allow_transforms="false" />
    <inkscape:path-effect
       allow_transforms="false"
       is_visible="true"
       effect="fill_between_many"
       method="originald"
       linkedpaths="#path4,0"
       id="path-effect2166-3" />
    <inkscape:path-effect
       allow_transforms="false"
       is_visible="true"
       id="path-effect2166-6"
       linkedpaths="#path4,0"
       method="originald"
       effect="fill_between_many" />
    <inkscape:path-effect
       id="path-effect2166-3-2"
       linkedpaths="#path4,0"
       method="originald"
       effect="fill_between_many"
       is_visible="true"
       allow_transforms="false" />
  </defs>
  <sodipodi:namedview
     pagecolor="#ffffff"
     bordercolor="#666666"
     borderopacity="1"
     objecttolerance="10"
     gridtolerance="10"
     guidetolerance="10"
     inkscape:pageopacity="0"
     inkscape:pageshadow="2"
     inkscape:window-width="2560"
     inkscape:window-height="1380"
     id="namedview10"
     showgrid="false"
     inkscape:zoom="1.5352946"
     inkscape:cx="250.23625"
     inkscape:cy="398.01192"
     inkscape:window-x="0"
     inkscape:window-y="0"
     inkscape:window-maximized="1"
     inkscape:current-layer="g2839"
     inkscape:pagecheckerboard="0"
     inkscape:document-units="pt"
     units="mm"
     inkscape:document-rotation="0" />
  <metadata
     id="metadata2">
Created by potrace 1.16, written by Peter Selinger 2001-2019
<rdf:RDF>
  <cc:Work
     rdf:about="">
    <dc:format>image/svg+xml</dc:format>
    <dc:type
       rdf:resource="http://purl.org/dc/dcmitype/StillImage" />
    <dc:title />
  </cc:Work>
</rdf:RDF>
</metadata>
  <g
     inkscape:groupmode="layer"
     id="layer2"
     inkscape:label="lines"
     style="display:inline"
     transform="translate(0,614.88976)">
    <g
       id="g2839"
       transform="matrix(0.75058102,0,0,0.77099094,115.95815,-132.17932)">
      <flowRoot
         style="font-style:normal;font-variant:normal;font-weight:bold;font-stretch:normal;font-size:48px;line-height:125%;font-family:'DejaVu Sans';-inkscape-font-specification:'DejaVu Sans Bold';text-align:start;letter-spacing:0px;word-spacing:0px;writing-mode:lr-tb;text-anchor:start;fill:#000000;fill-opacity:1;stroke:none;stroke-width:1px;stroke-linecap:butt;stroke-linejoin:miter;stroke-opacity:1"
         id="flowRoot1095"
         xml:space="preserve"><flowRegion
           id="flowRegion1097"><rect
             y="1673.1166"
             x="258.28561"
             height="213.43361"
             width="218.07347"
             id="rect1099" /></flowRegion><flowPara
           id="flowPara1101" /></flowRoot>
      <flowRoot
         style="font-style:normal;font-variant:normal;font-weight:bold;font-stretch:normal;font-size:48px;line-height:125%;font-family:'DejaVu Sans';-inkscape-font-specification:'DejaVu Sans Bold';text-align:start;letter-spacing:0px;word-spacing:0px;writing-mode:lr-tb;text-anchor:start;fill:#000000;fill-opacity:1;stroke:none;stroke-width:1px;stroke-linecap:butt;stroke-linejoin:miter;stroke-opacity:1"
         id="flowRoot1103"
         xml:space="preserve"><flowRegion
           id="flowRegion1105"><rect
             y="1683.9429"
             x="133.00935"
             height="157.75528"
             width="406.76117"
             id="rect1107" /></flowRegion><flowPara
           id="flowPara1109" /></flowRoot>
      <path
         inkscape:connector-curvature="0"
         id="path3237"
         d="m 134.59062,-482.21782 c -0.41203,-0.28759 -0.37615,-0.65951 0.16828,-1.74448 0.75095,-1.49647 1.71948,-2.04172 5.2204,-2.93887 1.08451,-0.27791 1.97158,-0.58484 1.97127,-0.68208 -0.001,-0.20901 -6.99886,-1.85065 -10.41411,-2.44295 -1.31269,-0.22764 -2.79804,-0.50812 -3.30079,-0.62326 -1.25919,-0.28837 -10.77836,-1.93104 -15.55144,-2.68361 -4.21557,-0.66466 -6.66062,-0.99331 -13.476633,-1.81148 -2.386716,-0.28648 -5.737552,-0.69299 -7.446189,-0.90333 -7.257884,-0.89348 -28.215983,-1.46603 -31.391923,-0.85758 -0.835374,0.16001 -2.397582,0.32525 -3.471592,0.36716 -4.754208,0.18558 -9.21133,0.75416 -11.860146,1.51297 -2.410598,0.69058 -3.496071,0.37455 -3.856562,-1.1228 -0.186992,-0.77671 -0.07558,-0.87689 1.355871,-1.21914 0.857704,-0.20511 1.852428,-0.51958 2.210352,-0.69883 0.839852,-0.42045 4.92896,-0.89825 7.160149,-0.83661 2.442897,0.0675 7.862742,-0.27156 9.249839,-0.57864 1.596836,-0.35351 8.453689,-0.4509 11.362515,-0.16137 1.312706,0.13065 4.449898,0.26676 6.971544,0.30243 2.521647,0.0357 4.932663,0.17769 5.357813,0.3155 0.42515,0.13784 1.739289,0.19684 2.920289,0.1311 1.403873,-0.0782 2.703922,0.0179 3.755006,0.27722 0.884272,0.21818 3.230963,0.51442 5.214858,0.65827 1.983919,0.14385 4.023579,0.43051 4.532489,0.63706 0.6134,0.24885 1.45331,0.32659 2.49072,0.23048 0.97986,-0.0908 2.18528,0.005 3.22299,0.25627 0.9118,0.22067 2.02593,0.40125 2.47591,0.40125 0.99544,0 13.72399,2.04142 15.9997,2.56606 0.59667,0.13756 2.35416,0.45115 3.9055,0.69686 3.26716,0.5175 8.12,1.38053 9.22133,1.6399 0.45932,0.10817 0.7594,0.0658 0.7594,-0.10732 0,-0.1574 -0.34172,-0.35985 -0.7594,-0.44987 -0.94201,-0.20303 -3.25275,-1.11607 -3.68135,-1.4546 -0.45068,-0.35594 0.0863,-1.94003 0.80743,-2.38198 0.53234,-0.32624 0.74795,-0.31779 1.79375,0.0704 0.65376,0.2427 2.94614,0.95947 5.09417,1.59283 5.61042,1.65425 11.05358,3.56123 12.74103,4.46376 1.42026,0.75962 2.66208,2.08718 3.25227,3.47676 0.25419,0.5985 0.0765,0.76786 -1.39921,1.33362 -1.54627,0.59279 -2.25894,0.66692 -8.35921,0.86935 -7.58371,0.25165 -9.15984,0.4601 -11.44979,1.51435 -1.86319,0.85781 -2.07722,0.88727 -2.79653,0.38516 z"
         style="fill:#161616;stroke-width:0.28719714" />
      <text
         xml:space="preserve"
         style="font-style:normal;font-variant:normal;font-weight:bold;font-stretch:normal;font-size:3.7832px;line-height:0%;font-family:'DejaVu Sans';-inkscape-font-specification:'DejaVu Sans Bold';text-align:start;letter-spacing:0px;word-spacing:0px;writing-mode:lr-tb;text-anchor:start;display:inline;fill:#000000;fill-opacity:1;stroke:none;stroke-width:0.315267"
         x="84.211464"
         y="-565.79468"
         id="text3053-3"
         transform="scale(1.0407029,0.96088898)"><tspan
           id="tspan1141"
           sodipodi:role="line"
           x="84.211464"
           y="-565.79468"
           style="font-size:15.1328px;line-height:1.25;stroke-width:0.315267">--remote-clients</tspan><tspan
           id="tspan1133"
           sodipodi:role="line"
           x="84.211464"
           y="-546.87866"
           style="font-size:15.1328px;line-height:1.25;stroke-width:0.315267">--port=25</tspan></text>
      <g
         id="g1573"
         transform="matrix(0.59703729,0,0,0.55486049,706.76708,-550.42365)">
        <g
           style="fill:#000000;stroke:none"
           transform="matrix(0.13621129,0,0,-0.13160476,-1424.8083,235.04321)"
           id="g881">
          <path
             inkscape:connector-curvature="0"
             d="m 1332,1799 c -81,-10 -121,-23 -206,-67 -79,-41 -183,-141 -227,-217 -33,-58 -39,-141 -14,-202 8,-19 15,-36 15,-38 0,-1 -17,1 -37,4 -73,12 -236,-34 -325,-90 -134,-86 -160,-181 -77,-285 16,-20 29,-39 29,-41 0,-3 -25,-32 -55,-66 C 287,634 270,460 396,400 c 78,-38 260,-36 444,5 21,5 28,0 41,-27 39,-82 256,-133 471,-111 178,19 347,73 458,147 21,15 57,26 93,30 65,7 226,60 305,100 62,31 127,88 148,128 18,35 20,124 4,175 -18,55 -75,137 -126,182 l -45,39 23,38 c 19,33 23,53 23,130 0,84 -3,95 -37,165 -92,185 -247,299 -408,299 -35,0 -79,-6 -98,-12 -29,-11 -36,-11 -40,0 -27,80 -169,130 -320,111 z m 201,-94 c 43,-18 56,-39 50,-80 -10,-63 68,-107 94,-53 11,21 25,29 70,38 119,25 215,-10 308,-112 76,-85 97,-127 103,-214 5,-80 -7,-114 -59,-162 -39,-37 -34,-59 23,-93 110,-65 178,-158 178,-244 0,-39 -6,-51 -42,-91 -78,-84 -282,-162 -399,-151 -45,4 -63,2 -72,-9 -54,-65 -97,-93 -202,-132 -172,-63 -423,-80 -561,-38 -67,21 -83,39 -55,63 28,24 26,57 -5,82 -21,16 -30,18 -46,10 -36,-19 -182,-57 -261,-68 -156,-22 -241,-8 -265,42 -18,37 3,99 63,189 58,86 99,118 153,118 37,0 42,3 42,23 0,31 -29,64 -65,73 -15,4 -45,24 -66,45 -34,34 -37,41 -29,68 12,44 16,48 81,96 69,51 147,82 231,94 56,7 61,6 96,-21 48,-39 87,-36 87,7 0,17 4,35 8,42 4,6 -4,36 -18,67 -45,98 -29,155 68,254 63,64 174,134 251,158 58,18 195,17 239,-1 z"
             id="path879" />
        </g>
        <path
           transform="matrix(1.2562029,0,0,1.3516911,-1155.935,-149.90388)"
           inkscape:connector-curvature="0"
           id="path920"
           d="m -96.297678,249.97747 c -4.381462,-0.68332 -9.214782,-1.91057 -10.740712,-2.72722 -2.53523,-1.35681 -2.5971,-1.75546 -0.71762,-4.62391 1.83203,-2.79603 1.81186,-3.4888 -0.18462,-6.33916 -2.45799,-3.50928 -3.94647,-3.46514 -18.44781,0.54703 -19.49929,5.39499 -39.95122,5.39652 -43.89484,0.003 -5.4297,-7.42556 12.8806,-29.77971 24.39259,-29.77971 1.81352,0 2.81631,-0.91046 2.81631,-2.557 0,-2.75791 -4.07917,-7.14429 -6.64392,-7.14429 -0.86626,0 -3.71829,-1.88181 -6.33784,-4.18181 -5.65545,-4.96555 -5.39665,-8.23161 1.03402,-13.04952 7.07748,-5.3025 14.94473,-8.7329 24.20714,-10.55517 8.18358,-1.61002 9.06913,-1.52424 14.23438,1.37879 3.02936,1.7026 6.33629,2.77775 7.34875,2.38923 3.03712,-1.16545 3.97223,-10.00182 1.55344,-14.67924 -1.17393,-2.27012 -2.13441,-6.39114 -2.13441,-9.15782 0,-4.28654 1.17832,-6.19526 7.96892,-12.90864 4.647992,-4.59513 11.979428,-9.89128 17.592579,-12.70868 8.392196,-4.21229 11.189328,-4.89253 21.858943,-5.31593 13.971981,-0.55444 19.102682,1.44571 19.102682,7.44697 0,3.56883 4.329379,8.97639 7.186646,8.97639 0.903675,0 3.06612,-1.3369 4.805422,-2.97089 4.023277,-3.77967 14.878395,-4.94414 23.5240452,-2.52351 7.51499243,2.10407 22.0730098,14.7679 24.9850728,21.7342 1.025329,2.45281 1.864241,7.26443 1.864241,10.69248 0,4.94914 -0.856305,7.20812 -4.157695,10.96819 -2.286732,2.60444 -4.157695,5.73659 -4.157695,6.96033 0,1.22374 2.650531,3.86717 5.890068,5.87429 16.77393,10.39262 22.112619,22.05483 13.869655,30.2978 -8.008538,8.00853 -25.9671478,14.5941 -39.7976098,14.5941 -7.6709202,0 -9.1113252,0.49869 -15.6661542,5.4239 -14.448393,10.85631 -48.480377,17.5028 -71.353978,13.93551 z"
           style="fill:#e8f3f7;fill-opacity:1;stroke:none;stroke-width:1.38589835px;stroke-linecap:butt;stroke-linejoin:miter;stroke-opacity:1" />
      </g>
      <text
         xml:space="preserve"
         style="font-style:normal;font-variant:normal;font-weight:bold;font-stretch:normal;font-size:3.7832px;line-height:0%;font-family:'DejaVu Sans';-inkscape-font-specification:'DejaVu Sans Bold';text-align:start;letter-spacing:0px;word-spacing:0px;writing-mode:lr-tb;text-anchor:start;display:inline;fill:#000000;fill-opacity:1;stroke:none;stroke-width:0.315267"
         x="59.188995"
         y="-490.17343"
         id="text3053-3-7-3"
         transform="scale(1.0407029,0.96088899)"><tspan
           sodipodi:role="line"
           x="59.188995"
           y="-490.17343"
           style="font-size:15.1328px;line-height:1.25;stroke-width:0.315267"
           id="tspan1215-5">SMTP</tspan></text>
      <flowRoot
         xml:space="preserve"
         id="flowRoot1095-9"
         style="font-style:normal;font-variant:normal;font-weight:bold;font-stretch:normal;font-size:48px;line-height:125%;font-family:'DejaVu Sans';-inkscape-font-specification:'DejaVu Sans Bold';text-align:start;letter-spacing:0px;word-spacing:0px;writing-mode:lr-tb;text-anchor:start;fill:#000000;fill-opacity:1;stroke:none;stroke-width:1px;stroke-linecap:butt;stroke-linejoin:miter;stroke-opacity:1"
         transform="translate(538.65334,11.022668)"><flowRegion
           id="flowRegion1097-3"><rect
             id="rect1099-6"
             width="218.07347"
             height="213.43361"
             x="258.28561"
             y="1673.1166" /></flowRegion><flowPara
           id="flowPara1101-0" /></flowRoot>
      <flowRoot
         xml:space="preserve"
         id="flowRoot1103-6"
         style="font-style:normal;font-variant:normal;font-weight:bold;font-stretch:normal;font-size:48px;line-height:125%;font-family:'DejaVu Sans';-inkscape-font-specification:'DejaVu Sans Bold';text-align:start;letter-spacing:0px;word-spacing:0px;writing-mode:lr-tb;text-anchor:start;fill:#000000;fill-opacity:1;stroke:none;stroke-width:1px;stroke-linecap:butt;stroke-linejoin:miter;stroke-opacity:1"
         transform="translate(538.65334,11.022668)"><flowRegion
           id="flowRegion1105-2"><rect
             id="rect1107-6"
             width="406.76117"
             height="157.75528"
             x="133.00935"
             y="1683.9429" /></flowRegion><flowPara
           id="flowPara1109-1" /></flowRoot>
      <path
         sodipodi:nodetypes="csscscsssccsscsssscccssssssscsccsccssssssssssccsscssscsssssssccsccsscsssscsscscssccssssccccscssc"
         style="fill:#161616;stroke-width:0.31526655"
         d="m 188.20358,-413.84941 c 5.24105,1.93607 5.90555,2.10141 13.4552,4.00142 0.63159,0.15896 2.03421,0.40845 3.11694,0.55444 1.08273,0.14599 3.22357,0.47852 4.75743,0.73892 5.85246,0.99363 18.55243,1.36034 27.43927,0.79224 6.42907,-0.41097 15.80554,-1.58109 19.47888,-2.43082 0.63158,-0.14608 1.8462,-0.34731 2.69916,-0.44713 0.85296,-0.0998 1.63679,-0.30997 1.74187,-0.46695 0.1051,-0.15698 0.65171,-0.28543 1.21472,-0.28543 0.56303,0 1.47711,-0.12586 2.03127,-0.2797 0.55419,-0.15383 1.81964,-0.44765 2.81214,-0.65295 0.9925,-0.20527 2.91187,-0.71238 4.26528,-1.12689 1.35341,-0.41451 2.9775,-0.86128 3.6091,-0.99281 1.74946,-0.36434 5.45123,-1.62728 8.30267,-2.83264 1.40853,-0.59539 2.78835,-1.08254 3.06632,-1.08254 0.27796,0 0.89725,-0.18548 1.37624,-0.41221 0.479,-0.22671 2.49496,-1.12964 4.47996,-2.00652 5.21776,-2.30501 10.1791,-4.9966 14.3787,-7.80064 4.49453,-3.00101 11.69709,-9.87211 13.68612,-13.05637 0.2775,-0.44422 0.87963,-1.35297 1.33808,-2.01943 1.32982,-1.93324 3.42269,-5.90196 4.1535,-7.87634 2.42944,-6.56318 3.03751,-10.15478 2.88911,-17.06434 -0.18193,-8.47115 -1.01422,-12.60844 -4.21515,-20.95415 -4.08359,-10.647 -12.57733,-20.71468 -23.04359,-27.3136 -6.48317,-4.08761 -14.93536,-7.81251 -20.99833,-9.2541 -1.08272,-0.25743 -3.22357,-0.79133 -4.75743,-1.18645 -6.47563,-1.66805 -12.35317,-2.29595 -21.81859,-2.33082 -6.82609,-0.0251 -8.06293,0.0528 -12.9599,0.81635 -5.46321,0.85192 -12.33514,2.24734 -15.13658,3.07366 -0.83626,0.24668 -1.69982,0.44849 -1.91902,0.44849 -0.2192,0 -0.86379,0.19325 -1.43241,0.42944 -0.56863,0.23617 -1.99356,0.73078 -3.16652,1.09909 -1.17296,0.36828 -2.42793,0.81556 -2.78884,0.99393 -0.57844,0.28588 -0.48557,0.35204 0.78353,0.5584 1.6064,0.26123 1.83259,0.3801 1.54388,0.81142 -0.19443,0.29048 -1.56866,0.79736 -7.57662,2.79471 -1.62388,0.53986 -4.57677,1.69792 -6.56198,2.57347 -3.28969,1.45085 -4.4836,2.05997 -9.4859,4.83962 -2.4158,1.34237 -8.8396,5.7915 -11.1847,7.74647 -0.36091,0.30087 -1.39048,1.13173 -2.28792,1.84636 -3.47204,2.76475 -10.5948,9.61901 -12.80463,12.32199 -0.72181,0.88291 -1.83442,2.17202 -2.47246,2.86471 -2.66739,2.89586 -5.20428,6.69029 -8.20411,12.27083 -5.65702,10.52364 -6.96065,20.79345 -3.78631,29.82801 1.27598,3.6316 3.92329,8.64737 6.02593,11.41709 5.94466,7.83068 15.67275,14.51442 27.46669,18.87116 m -0.26753,2.56029 c -11.66496,-4.45246 -20.22176,-10.15787 -26.77466,-17.55954 -4.55575,-5.14589 -6.16397,-7.62193 -8.22094,-12.65707 -0.57855,-1.41622 -1.25986,-3.02263 -1.514,-3.56976 -0.25415,-0.54717 -0.46209,-1.39029 -0.46209,-1.87363 0,-0.48337 -0.16164,-1.26258 -0.3592,-1.73162 -0.49654,-1.17884 -0.71864,-8.24347 -0.34586,-11.00116 0.4418,-3.26832 1.36497,-7.66655 1.68425,-8.02429 0.15044,-0.16855 0.58864,-1.19254 0.97378,-2.27554 0.38513,-1.08299 1.15311,-2.85517 1.70662,-3.93817 2.60432,-5.09563 2.7983,-5.41204 6.08511,-9.92573 0.93845,-1.28875 2.1196,-2.936 2.62479,-3.66053 1.40948,-2.0215 7.66296,-8.58409 11.88922,-12.47691 10.60431,-9.7676 18.87851,-14.95338 31.84619,-19.95922 1.45685,-0.56237 2.92922,-1.39342 3.60909,-2.03703 1.26191,-1.19463 2.35542,-1.69854 3.10769,-1.43198 0.27407,0.0971 1.17568,-0.29073 2.05346,-0.88331 2.02456,-1.36669 4.98266,-2.5854 9.2752,-3.82135 1.89477,-0.54556 3.88798,-1.17655 4.42934,-1.40217 1.0801,-0.4502 8.83127,-1.97975 10.66321,-2.10423 0.6316,-0.0429 2.18186,-0.25274 3.44504,-0.46631 3.38516,-0.57237 17.79438,-0.49999 21.81858,0.10957 1.71431,0.25968 4.07662,0.61845 5.24957,0.79727 4.0994,0.62502 10.06123,2.23718 15.42066,4.16995 16.55876,5.9716 28.87355,15.66044 37.14022,29.22055 1.92352,3.1552 4.47452,8.48425 5.48155,11.45105 1.42044,4.18461 1.67157,5.00508 1.67157,5.46127 0,0.28282 0.28889,1.58945 0.64199,2.90358 0.82425,3.06778 1.40098,10.53374 1.14402,14.80977 -0.3325,5.5334 -2.04379,12.2747 -4.19104,16.50966 -0.4951,0.97648 -3.93424,6.44263 -5.07909,8.07279 -2.99342,4.26213 -8.94477,9.83952 -13.55768,12.70569 -0.92809,0.57667 -2.22077,1.42595 -2.87259,1.88726 -0.65184,0.46134 -1.55428,1.00269 -2.00542,1.20302 -0.45113,0.20034 -1.7061,0.9049 -2.78883,1.56573 -1.08273,0.66082 -2.3377,1.34285 -2.78884,1.51562 -0.45114,0.17279 -1.04171,0.44489 -1.3124,0.60472 -0.64035,0.37807 -4.54859,2.13327 -4.75008,2.13327 -0.0852,0 -1.15527,0.42621 -2.37786,0.94714 -1.22256,0.52092 -3.18256,1.26478 -4.35552,1.65306 -1.17295,0.38827 -2.94469,0.99965 -3.93718,1.35863 -0.99251,0.35898 -2.46895,0.83169 -3.28099,1.0505 -0.81205,0.21878 -2.36231,0.66573 -3.44504,0.99317 -1.08274,0.32748 -2.78065,0.76474 -3.77315,0.9717 -0.9925,0.207 -2.09845,0.51699 -2.4577,0.68891 -0.66764,0.31954 -5.20955,1.26434 -8.269,1.72011 -0.93722,0.13962 -1.83167,0.32668 -1.98769,0.41574 -1.21078,0.69091 -25.75199,3.07304 -29.44631,2.85826 -0.54136,-0.0315 -2.23928,-0.0924 -3.77314,-0.13531 -14.02901,-0.39288 -26.96727,-2.70108 -37.34585,-6.66251"
         id="path3257-8"
         inkscape:connector-curvature="0" />
      <g
         id="layer6-7"
         inkscape:label="colour"
         style="display:inline"
         transform="matrix(0.32809886,0,0,0.30293617,29.943152,-542.28211)">
        <path
           style="display:inline;fill:#ddffdd;fill-opacity:1;stroke:none"
           d="m 554.99775,441.33848 c -75.21714,-9.37864 -141.10301,-48.21472 -165.49853,-97.5523 -12.16037,-24.59314 -14.91307,-37.10424 -13.36523,-60.7455 2.83502,-43.30151 25.87459,-86.11586 70.69643,-131.37492 35.78606,-36.13513 64.67414,-55.667175 107.95002,-72.988037 20.00723,-8.007756 27.06735,-12.945778 19.01164,-13.29721 -8.19547,-0.357528 23.83022,-10.32233 51.07725,-15.8927 27.73809,-5.670761 34.51142,-6.171832 68.38466,-5.058892 30.95125,1.016936 41.65196,2.386243 60.53611,7.746461 91.2608,25.904136 149.14818,94.538608 154.45538,183.130968 6.1079,101.95624 -77.07608,174.58867 -230.75804,201.48742 -33.24747,5.81926 -94.14629,8.07877 -122.48969,4.54471 z"
           id="path7860-9"
           inkscape:connector-curvature="0" />
      </g>
      <text
         transform="scale(1.0407029,0.96088898)"
         id="text3053-3-23"
         y="-566.92059"
         x="282.61624"
         style="font-style:normal;font-variant:normal;font-weight:bold;font-stretch:normal;font-size:3.7832px;line-height:0%;font-family:'DejaVu Sans';-inkscape-font-specification:'DejaVu Sans Bold';text-align:start;letter-spacing:0px;word-spacing:0px;writing-mode:lr-tb;text-anchor:start;display:inline;fill:#000000;fill-opacity:1;stroke:none;stroke-width:0.315267"
         xml:space="preserve"><tspan
           style="font-size:15.1328px;line-height:1.25;stroke-width:0.315267"
           y="-566.92059"
           x="282.61624"
           sodipodi:role="line"
           id="tspan1141-9">--pop</tspan><tspan
           style="font-size:15.1328px;line-height:1.25;stroke-width:0.315267"
           y="-548.00458"
           x="282.61624"
           sodipodi:role="line"
           id="tspan1133-2">--pop-port=110</tspan></text>
      <path
         inkscape:connector-curvature="0"
         id="path3235"
         d="m 333.91537,-485.26624 c -0.61647,-0.67696 -0.67477,-2.06725 -0.10114,-2.41201 1.00235,-0.60238 6.70048,-2.61508 11.7897,-4.16429 1.36032,-0.41412 2.73107,-0.86034 3.04599,-0.99163 0.31494,-0.13128 0.79891,-0.2387 1.07539,-0.2387 0.27651,0 1.13182,-0.21776 1.90073,-0.48389 0.76887,-0.26615 1.76896,-0.54225 2.22242,-0.6136 0.77488,-0.1219 3.31107,-0.76581 4.78183,-1.21405 1.08362,-0.33029 5.17987,-1.17772 6.59561,-1.3645 0.72554,-0.0957 1.50305,-0.29096 1.72783,-0.43381 0.2248,-0.14288 1.33779,-0.28599 2.47335,-0.31803 1.34182,-0.0379 2.55127,-0.25 3.45453,-0.60588 0.76443,-0.30119 1.87739,-0.53648 2.47336,-0.52288 0.59593,0.0137 1.9739,-0.15556 3.06218,-0.37595 1.08829,-0.22037 2.47076,-0.40246 3.07215,-0.40464 0.60143,-0.003 1.38933,-0.12574 1.75094,-0.27461 2.23737,-0.92096 28.89294,-1.67821 41.5112,-1.17925 3.53688,0.13986 7.16152,0.26648 8.05473,0.28139 l 1.624,0.027 -0.0791,-1.6869 c -0.0476,-1.01601 0.0649,-1.7554 0.28309,-1.85909 0.19919,-0.0947 0.83959,0.0407 1.42311,0.30077 0.58351,0.26009 1.72874,0.6251 2.54493,0.81112 4.26712,0.97246 9.47435,2.68389 11.1942,3.67916 0.62471,0.36152 1.34538,0.6573 1.60145,0.6573 0.25613,0 1.04343,0.35201 1.74975,0.78225 1.26538,0.77086 1.28412,0.80726 1.28412,2.49716 0,2.31756 -0.24752,2.45818 -6.06698,3.44644 -1.25093,0.21246 -3.15654,0.74788 -4.23465,1.18983 -2.40635,0.98649 -3.00759,0.82022 -3.15339,-0.87207 -0.0957,-1.11092 -0.0478,-1.17623 1.48407,-2.02443 1.35827,-0.75215 3.30219,-1.44625 5.84607,-2.08747 0.54723,-0.13793 0.57013,-0.20771 0.16493,-0.50143 -0.57115,-0.41396 -10.90409,-1.21833 -16.4867,-1.28339 -2.09774,-0.0244 -3.98833,-0.12733 -4.20142,-0.22861 -0.41716,-0.1983 -23.78309,-0.2382 -27.60093,-0.0471 -1.26964,0.0636 -3.94088,0.18762 -5.93606,0.27572 -1.99518,0.0881 -4.66647,0.28043 -5.93611,0.42742 -1.26962,0.14699 -2.90203,0.3013 -3.62757,0.3429 -1.54756,0.0888 -6.74756,0.75511 -7.69219,0.9857 -0.35937,0.0877 -1.44687,0.26707 -2.41666,0.39851 -4.24779,0.57578 -13.30133,2.41131 -15.6141,3.1656 -0.54413,0.17748 -1.65712,0.4606 -2.47333,0.62918 -3.48248,0.71916 -16.25337,4.78746 -19.47594,6.20419 -1.80485,0.79351 -2.43556,0.81114 -3.09541,0.0865 z"
         style="fill:#161616;stroke-width:0.28551146" />
      <text
         transform="scale(1.066351,0.93777755)"
         xml:space="preserve"
         style="font-style:normal;font-variant:normal;font-weight:bold;font-stretch:normal;font-size:4.00875px;line-height:0%;font-family:'DejaVu Sans';-inkscape-font-specification:'DejaVu Sans Bold';text-align:start;letter-spacing:0px;word-spacing:0px;writing-mode:lr-tb;text-anchor:start;display:inline;fill:#000000;fill-opacity:1;stroke:none;stroke-width:0.334062"
         x="314.73795"
         y="-404.68732"
         id="text3324-9"><tspan
           sodipodi:role="line"
           id="tspan3326-1"
           x="314.73795"
           y="-404.68732"
           style="font-size:16.035px;line-height:1.25;stroke-width:0.334062">--pop-auth</tspan></text>
      <path
         style="color:#000000;font-style:normal;font-variant:normal;font-weight:normal;font-stretch:normal;font-size:medium;line-height:normal;font-family:Sans;-inkscape-font-specification:Sans;text-indent:0;text-align:start;text-decoration:none;text-decoration-line:none;letter-spacing:normal;word-spacing:normal;text-transform:none;writing-mode:lr-tb;direction:ltr;baseline-shift:baseline;text-anchor:start;display:inline;overflow:visible;visibility:visible;fill:#000000;fill-opacity:1;stroke:none;stroke-width:0.50409442px;marker:none;enable-background:accumulate"
         d="m 303.62872,-424.57603 c -1.38753,4.69907 0.61612,8.71506 2.30342,10.91995 8.68357,16.57725 15.87278,40.64633 25.25109,52.96413 4.09217,6.26961 7.6682,10.98207 11.76336,17.22651 1.31677,-3.52388 1.34767,-6.63964 -0.48221,-9.01373 -5.5223,-8.02508 -9.62192,-10.45824 -15.96786,-22.3606 -6.34594,-11.90235 -14.67227,-35.15084 -21.78045,-50.61604 -0.81499,-2.03829 -0.5917,-2.17354 -1.08735,0.87978 z"
         id="path3439"
         inkscape:connector-curvature="0"
         sodipodi:nodetypes="ccccczcc" />
      <g
         transform="matrix(0.38698728,0,0,0.39592217,602.84257,-466.41691)"
         id="g1616">
        <path
           sodipodi:nodetypes="cccccsssssssccscssscsccsscssssssccsccssssssssccccscsssscccsc"
           inkscape:connector-curvature="0"
           id="path3255-3-2-3"
           d="m -630.68174,256.24931 c 17.83082,-0.37381 31.02946,-0.71104 32.97458,-0.74924 1.94519,-0.0384 6.45449,-0.21932 10.02061,-0.40243 3.56619,-0.18304 14.97198,-0.54144 25.34623,-0.79627 10.37425,-0.25492 21.27652,-0.64177 24.22728,-0.85964 9.01417,-0.66578 59.34312,-1.54029 82.79484,-1.43865 20.3046,0.088 56.9753,2.10942 59.3877,3.27368 5.1239,2.47296 6.459,4.63631 7.214,11.68943 0.4231,3.95304 0.7525,8.39558 0.732,9.87228 -0.045,3.19014 -3.4416,22.38207 -5.4992,31.06831 -1.0493,4.42919 -1.3896,18.48841 -1.223,50.52363 0.2571,49.4142 -0.1084,47.284 8.1273,47.284 5.7201,0 3.8116,-0.9249 6.8217,1.8259 2.0237,1.8493 0.6188,4.8196 -0.293,5.7545 -0.9955,1.0209 4.3017,1.1938 -3.8436,0.9735 l -9.9055,-0.2679 -2.0234,2.7611 c -2.0752,2.8317 -4.5634,3.4979 -6.7312,1.8022 -0.674,-0.5274 -2.2026,-1.7921 -3.3964,-2.8105 -1.9359,-1.6512 -3.2432,-1.8806 -12.0833,-2.1202 -5.4519,-0.1477 -21.8487,0.084 -36.4375,0.5154 -14.58884,0.4313 -32.36068,0.9581 -39.49292,1.1707 -7.13232,0.2127 -15.62035,0.5487 -18.86229,0.7467 -19.31204,1.1798 -96.76295,2.6715 -117.29984,2.2592 -39.12963,-0.7854 -61.61992,-2.2546 -66.14262,-5.3124 -3.55601,-2.4041 -5.67743,-6.5246 -4.27101,-8.2958 0.70851,-0.8923 0.42959,-4.694 -0.78808,-10.7397 -1.03661,-5.1471 -1.20087,-15.5721 -2.13833,-23.1666 -2.03819,-16.5115 -3.36601,-34.176 -5.00504,-41.0408 -3.25633,-13.63842 -3.30781,-36.43051 -3.66159,-50.65358 -0.21539,-8.66231 -0.74165,-16.34309 -1.16935,-17.0684 -2.18979,-3.71324 0.97435,-4.24462 28.35745,-4.76219 10.37425,-0.19608 33.45109,-0.66233 51.28183,-1.03623 m -5.33954,8.29593 c -11.34685,0.40657 -25.60639,0.93397 -35.33225,1.17193 -9.72587,0.23796 -19.92589,0.63172 -22.6667,0.87505 l -4.9833,0.44248 0.64438,13.91545 c 0.77454,16.72626 -2.11297,16.86442 0.3962,32.32631 1.09542,6.75065 1.05043,13.33406 1.673,14.62975 0.6227,1.2956 1.13221,3.9067 1.13221,5.8022 0,1.8954 1.15975,7.3308 1.87975,12.2194 0.81362,5.5243 1.20101,10.3177 1.4487,13.0602 0.24767,2.7424 0.14992,6.721 0.47848,7.9868 0.32856,1.2657 1.42339,8.3424 2.433,15.7259 2.61006,19.0888 3.4841,23.0597 5.23016,23.7618 8.00539,3.2195 58.23779,4.2017 123.15004,2.5942 v 10e-5 c 13.61625,-0.3371 25.55253,-0.5422 26.52516,-0.4556 0.97256,0.087 11.31736,-0.3507 22.98843,-0.9717 24.03141,-1.2786 72.18597,-2.6694 92.69337,-2.6771 10.3748,-0.01 14.0444,-0.2691 15.0926,-1.0909 1.017,-0.7975 1.2015,-5.7369 0.6947,-18.6026 -2.0834,-52.884 -1.5972,-70.52814 2.4167,-87.70823 0.9365,-4.0082 2.0448,-13.01709 2.4629,-20.01973 0.6257,-10.47746 0.4677,-12.85461 -0.892,-13.42412 -1.7285,-0.724 -15.0176,-2.44565 -19.684,-2.55013 -40.9988,-2.50205 -78.07265,-1.28225 -114.00436,-0.20045 -10.37432,0.48666 -32.6554,1.23698 -49.51352,1.66726 -16.85819,0.43035 -39.93504,1.11508 -51.28185,1.52173"
           style="display:inline;fill:#161616;stroke-width:0.74597353" />
        <path
           inkscape:connector-curvature="0"
           id="path3090"
           d="m -681.90881,406.33471 c -4.91241,-1.25 -5.41811,-2.2103 -7.47054,-14.1858 -1.2108,-7.0648 -3.38567,-22.5792 -4.83304,-34.4764 -1.44737,-11.8972 -3.42483,-27.0846 -4.39435,-33.74975 -0.96952,-6.66515 -1.77871,-21.89807 -1.79821,-33.85091 l -0.0355,-21.73246 16.30788,-1.08034 c 8.96933,-0.59418 46.8521,-1.92848 84.18393,-2.96509 37.33176,-1.03661 84.13978,-2.38725 104.01779,-3.00143 37.01235,-1.14358 91.04095,1.55201 94.00855,4.69027 1.0046,1.0623 0.1239,13.1047 -2.2839,31.23272 -3.271,24.62654 -3.8175,35.82189 -3.3056,67.72359 l 0.6131,38.2197 -26.4452,1.1725 c -42.05738,1.8647 -242.75318,3.4822 -248.56496,2.0034 z"
           style="fill:#fff6d5;stroke:none;stroke-width:0.74597353" />
        <text
           id="text3413"
           y="284.61945"
           x="-717.47424"
           style="font-style:normal;font-variant:normal;font-weight:bold;font-stretch:normal;font-size:8.95168px;line-height:0%;font-family:'DejaVu Sans Mono';-inkscape-font-specification:'DejaVu Sans Mono Bold';text-align:start;letter-spacing:0px;word-spacing:0px;writing-mode:lr-tb;text-anchor:start;fill:#000000;fill-opacity:1;stroke:none;stroke-width:0.745974"
           xml:space="preserve"
           transform="scale(0.97243546,1.0283459)"><tspan
             style="font-size:20.8873px;line-height:1.25;stroke-width:0.745974"
             y="284.61945"
             x="-717.47424"
             id="tspan3415"
             sodipodi:role="line">server plain alice ...</tspan></text>
      </g>
      <g
         transform="matrix(0.59703729,0,0,0.55486049,790.91486,-546.69079)"
         id="g1763">
        <g
           id="g1596"
           transform="translate(-1566.9239,-562.35878)">
          <path
             style="display:inline;fill:#fbdeb2;fill-opacity:1;stroke:none;stroke-width:0.74597353"
             d="m 1188.427,633.29793 c -1.2847,-2.53848 -1.193,-4.90835 0.314,-8.1189 1.8053,-3.84566 3.5912,-4.62234 11.7633,-5.11574 13.4634,-0.81288 21.4294,0.98343 20.7419,4.67727 -1.0638,5.71622 -9.7804,10.51873 -20.5925,11.34577 -8.9317,0.68321 -10.6705,0.28666 -12.2267,-2.7884 z"
             id="path8377"
             inkscape:connector-curvature="0" />
          <path
             style="fill:#161616;stroke-width:0.74597353"
             d="m 1182.8316,723.99303 c -1.5625,-1.75885 -1.6538,-2.35483 -1.294,-8.45311 0.4048,-6.86088 2.4142,-12.53726 5.8725,-16.58849 0.8606,-1.00822 2.423,-3.04132 3.4719,-4.51802 1.0489,-1.4767 2.9207,-3.89313 4.1596,-5.36983 2.3876,-2.84616 2.4244,-2.94029 2.5546,-6.52051 0.07,-1.93966 0.3686,-2.29054 1.8971,-2.23255 0.9975,0.0376 2.3032,0.21043 2.9017,0.38356 0.7279,0.21058 1.0473,-0.19308 0.965,-1.21948 -0.196,-2.44397 -1.8365,-8.3484 -2.6109,-9.39721 -0.8793,-1.19088 -6.5059,-1.23929 -12.6446,-0.10878 -3.4707,0.63917 -5.1272,0.62628 -6.6753,-0.0522 -2.2512,-0.98605 -3.9044,-3.94007 -3.236,-5.78208 0.5418,-1.49297 1.6323,-1.7053 12.5952,-2.45271 l 9.0676,-0.61822 0.3628,-6.90407 c 0.3301,-6.28439 0.4994,-6.9247 1.8861,-7.13413 0.9722,-0.14682 2.4636,0.76413 4.1217,2.51761 2.2543,2.3839 2.5444,3.09916 2.1911,5.40167 -0.6376,4.15471 0.5082,4.96824 6.997,4.96824 4.9032,0 5.7813,0.21763 7.1654,1.77542 3.3112,3.72736 1.3762,5.84852 -5.4479,5.97225 -6.713,0.12167 -7.8086,0.66348 -8.0716,3.99194 -0.1241,1.57144 0.4811,5.87291 1.345,9.55869 l 1.5706,6.70154 6.5135,7.05742 c 6.8484,7.42034 7.7367,9.60847 4.083,10.05647 -2.4742,0.30332 -6.4785,-2.41742 -10.9392,-7.43254 -4.7162,-5.30248 -5.7365,-5.7988 -8.0186,-3.90057 -2.8319,2.35567 -10.9168,13.00121 -12.7372,16.77152 -0.8961,1.85581 -1.9606,5.30785 -2.3657,7.67119 -0.7253,4.23119 -2.2765,7.74889 -3.4171,7.74889 -0.3203,0 -1.3388,-0.8515 -2.2633,-1.89225 z"
             id="path3239"
             inkscape:connector-curvature="0" />
          <path
             style="fill:#161616;stroke-width:0.74597353"
             d="m 1201.6093,637.35302 c 5.1372,-0.21104 7.4043,-0.78576 10.3662,-1.9695 v -1.6e-4 c 5.1146,-2.04406 8.111,-4.61713 10.0449,-8.62586 1.3823,-2.8655 1.3967,-3.12947 0.2432,-4.47737 -2.2222,-2.59662 -6.0098,-3.39834 -15.1959,-3.21668 -4.9968,0.0988 -9.8672,-0.2039 -11.4334,-0.71051 -2.4895,-0.8054 -2.8927,-0.72055 -4.6044,0.96895 -2.179,2.15077 -4.247,6.18052 -4.9566,9.65864 -0.6722,3.29431 1.1636,6.98193 3.779,7.59141 1.09,0.25399 2.3082,0.60065 2.7072,0.77034 0.399,0.16968 3.9898,0.17452 7.9795,0.0107 m -0.2501,7.79945 c -0.2829,-0.0575 -0.566,-0.15289 -1.5634,-0.31084 -8.7187,-1.38089 -10.4712,-2.08948 -13.6073,-5.50185 -1.7274,-1.87944 -3.616,-4.62036 -4.1971,-6.09093 -3.4183,-8.65179 1.201,-18.28427 11.5192,-24.02033 6.6969,-3.7229 8.7442,-3.65777 14.6183,0.46549 2.5748,1.80726 4.8078,2.6998 7.4366,2.9722 4.7027,0.48735 8.6996,2.61457 12.8897,6.86027 2.6203,2.65508 3.2587,3.81703 3.2587,5.93159 0,10.40934 -7.7144,16.67732 -23.4242,19.03245 -3.1084,0.46602 -5.8831,0.80026 -6.166,0.7428"
             id="path3066"
             inkscape:connector-curvature="0"
             sodipodi:nodetypes="ccccsscscsscccccscssssc" />
        </g>
        <text
           id="text3375"
           y="190.32147"
           x="-420.66235"
           style="font-style:normal;font-variant:normal;font-weight:bold;font-stretch:normal;font-size:8.95168px;line-height:0%;font-family:'DejaVu Sans';-inkscape-font-specification:'DejaVu Sans Bold';text-align:start;letter-spacing:0px;word-spacing:0px;writing-mode:lr-tb;text-anchor:start;display:inline;fill:#000000;fill-opacity:1;stroke:none;stroke-width:0.745974"
           xml:space="preserve"
           transform="scale(0.97243546,1.0283459)"><tspan
             y="190.32147"
             x="-420.66235"
             id="tspan3377"
             sodipodi:role="line"
             style="font-size:35.8067px;line-height:1.25;stroke-width:0.745974">alice</tspan></text>
      </g>
      <text
         transform="scale(1.0407029,0.96088898)"
         id="text3053-3-2-3"
         y="-494.69147"
         x="359.72815"
         style="font-style:normal;font-variant:normal;font-weight:bold;font-stretch:normal;font-size:3.7832px;line-height:0%;font-family:'DejaVu Sans';-inkscape-font-specification:'DejaVu Sans Bold';text-align:start;letter-spacing:0px;word-spacing:0px;writing-mode:lr-tb;text-anchor:start;display:inline;fill:#000000;fill-opacity:1;stroke:none;stroke-width:0.315267"
         xml:space="preserve"><tspan
           style="font-size:15.1328px;line-height:1.25;stroke-width:0.315267"
           y="-494.69147"
           x="359.72815"
           sodipodi:role="line"
           id="tspan1133-9-0">POP</tspan></text>
      <g
         transform="matrix(0.24432879,0,0,0.19605893,-38.556549,-572.78252)"
         id="g2155">
        <g
           id="g2127">
          <path
             style="fill:#161616;stroke-width:1.30307257"
             d="m 2121.4452,291.22157 c 19,-0.65868 33.0642,-1.25288 35.137,-1.3202 2.0727,-0.0676 6.8777,-0.38644 10.6777,-0.70909 3.8,-0.32252 15.9538,-0.95403 27.0084,-1.40306 11.0545,-0.44917 22.6718,-1.13082 25.8161,-1.5147 9.6053,-1.17314 63.2347,-2.71406 88.2243,-2.53496 21.6361,0.15503 60.7117,3.71688 63.2823,5.76834 5.4599,4.35744 6.8826,8.16935 7.687,20.5972 0.4509,6.9654 0.8019,14.79331 0.78,17.39532 -0.048,5.62114 -3.6672,39.43802 -5.8598,54.74349 -1.1181,7.80439 -1.4807,32.57724 -1.3032,89.0244 0.274,87.06973 -0.1155,83.31621 8.6603,83.31621 6.0952,0 9.9254,1.99564 13.1328,6.84253 2.1564,3.25853 2.545,4.86704 1.5734,6.51434 -1.0607,1.79884 -3.1656,2.10364 -11.8451,1.71544 l -10.555,-0.47215 -2.1561,4.86514 c -2.2113,4.98963 -4.8627,6.16344 -7.1726,3.17553 -0.7183,-0.92929 -2.3471,-3.15769 -3.6192,-4.95206 -2.0628,-2.90951 -3.4558,-3.31367 -12.8756,-3.73593 -5.8094,-0.26034 -23.2816,0.14841 -38.8271,0.9082 -15.5455,0.75992 -34.4828,1.68812 -42.0828,2.06281 -7.6,0.37483 -16.6447,0.96687 -20.0992,1.31574 -20.5785,2.07876 -103.1085,4.70713 -124.9922,3.98073 -41.6957,-1.384 -59.477,-3.97276 -64.2962,-9.3606 -3.7893,-4.2362 -6.0498,-11.49667 -4.5511,-14.61759 0.7549,-1.57229 0.4577,-8.271 -0.8398,-18.92368 -1.1046,-9.06944 -2.8256,-27.43865 -3.8245,-40.82039 -2.1719,-29.09394 -5.1327,-60.21946 -6.8792,-72.31547 -3.4699,-24.03132 -6.6167,-64.19182 -6.9937,-89.25338 -0.2295,-15.2633 -0.7903,-28.79711 -1.246,-30.07513 -2.3334,-6.54286 1.0382,-7.47918 30.2171,-8.39116 11.0545,-0.3455 35.6447,-1.16705 54.6448,-1.82587 m -5.6897,14.61773 c -12.091,0.7164 -27.2856,1.64568 -37.6493,2.06498 -10.3637,0.41929 -21.2326,1.11312 -24.1532,1.54187 l -5.3101,0.77966 0.6867,24.51954 c 0.8253,29.47227 0.8404,29.71571 3.5141,56.96013 1.1672,11.89488 2.6653,23.49509 3.3287,25.7781 0.6635,2.283 1.2064,6.88375 1.2064,10.22365 0,3.33989 0.9014,13.02881 2.003,21.53109 1.1019,8.50213 2.2191,19.41217 2.4831,24.24447 0.2639,4.83229 0.7664,10.61077 1.1165,12.84106 0.3501,2.23029 1.5167,14.69964 2.5925,27.70967 2.7813,33.63521 3.7126,40.63197 5.5732,41.86917 8.5303,5.67278 55.873,7.40349 125.0421,4.57102 v 2.7e-4 c 14.5092,-0.59407 27.2282,-0.95538 28.2646,-0.80291 1.0364,0.15261 12.0596,-0.61786 24.496,-1.71205 25.6074,-2.253 76.9198,-4.70361 98.7721,-4.71713 11.0552,-0.0135 14.9654,-0.47417 16.0823,-1.92224 1.0837,-1.40522 1.2803,-10.10862 0.7402,-32.77851 -2.2199,-93.18342 -1.7019,-124.27313 2.5752,-154.54506 0.998,-7.06259 2.1789,-22.93658 2.6245,-35.27549 0.6667,-18.46167 0.4983,-22.65029 -0.9506,-23.65378 -1.8418,-1.27573 -16.0024,-4.30933 -20.9748,-4.49343 -2.6125,-0.0973 -2.8077,0.3267 -2.0786,4.50857 0.6918,3.96789 0.3472,4.93799 -2.4555,6.9139 -3.9473,2.78299 -4.1278,5.84295 -0.6275,10.63105 4.4696,6.11424 0.021,10.36855 -5.8471,5.59235 -3.1695,-2.57957 -7.3763,-2.5989 -9.3475,-0.0433 -1.6452,2.13284 -9.449,2.81531 -10.5367,0.92145 -0.3495,-0.60839 0.729,-4.27486 2.3966,-8.14772 1.8185,-4.2235 2.9229,-9.05525 2.7595,-12.0729 -0.2715,-5.01437 -0.2555,-5.0314 4.7525,-5.05262 6.9631,-0.0297 11.3652,-1.80748 9.4839,-3.83002 -1.9294,-2.0743 -82.4626,-1.90886 -109.9802,0.226 -11.0546,0.85752 -34.7968,2.17961 -52.7605,2.93777 -17.9637,0.7583 -42.5539,1.96482 -54.6448,2.68135"
             id="path3255-3"
             inkscape:connector-curvature="0"
             sodipodi:nodetypes="cccccsssssssccscssscsccsscssssssccsccssssssssccccscssssccsccscccsccssc" />
          <path
             style="fill:#161616;stroke-width:1.30307257"
             d="m 2170.5717,542.71762 c -0.3327,-0.57933 -1.5143,-11.37597 -2.6257,-23.99251 -2.0983,-23.8218 -6.228,-55.79133 -8.3192,-64.4016 -2.0785,-8.55877 -3.9157,-33.49909 -3.8379,-52.10066 0.064,-15.18206 0.4579,-18.67659 2.6229,-23.24314 1.4016,-2.95601 2.0652,-5.69589 1.4748,-6.08856 -0.5904,-0.39266 -5.8151,-0.10137 -11.6104,0.64881 -31.4153,4.06265 -45.6807,4.9622 -51.8281,3.26785 -6.2764,-1.72989 -9.1218,-4.38921 -7.0649,-6.6026 1.5286,-1.64474 31.9783,-5.64994 51.6222,-6.79022 8.5672,-0.49729 23.2082,-1.8994 32.5354,-3.11579 13.4686,-1.75638 29.6818,-2.22948 78.7804,-2.29868 57.2659,-0.0811 61.9836,0.0879 64.0215,2.27841 6.0713,6.52826 -9.0715,9.93628 -36.6528,8.2491 -23.6135,-1.44455 -73.0665,-0.84657 -92.959,1.12393 -8.2908,0.82129 -16.7227,1.55742 -18.7374,1.63582 -4.7445,0.18464 -5.4141,2.56807 -1.4973,5.32958 l 3.0977,2.18393 -0.6824,18.02155 c -0.6654,17.57564 1.1197,50.23466 3.3399,61.10225 7.7323,37.84844 9.6166,73.75935 4.3261,82.44735 -2.0323,3.33759 -4.8122,4.42314 -6.0058,2.34518 z"
             id="path3253"
             inkscape:connector-curvature="0" />
          <path
             style="fill:#161616;stroke-width:1.30307257"
             d="m 2108.5636,523.49887 c -7.2311,-0.54094 -9.6538,-1.30127 -11.9166,-3.73918 -4.0145,-4.32528 -1.8336,-7.79142 4.8126,-7.64881 9.9274,0.21316 28.7985,3.55265 30.5816,5.4119 4.5976,4.79336 -5.3712,7.33089 -23.4776,5.97609 z"
             id="path3251"
             inkscape:connector-curvature="0" />
          <path
             style="fill:#161616;stroke-width:1.30307257"
             d="m 2096.8922,497.98597 c -3.76,-3.37747 -4.1014,-4.16861 -2.6252,-6.08261 1.3322,-1.72705 4.0719,-2.20001 12.7462,-2.20001 12.5733,0 15.0234,0.65787 15.0234,4.03412 0,3.45993 -2.2,4.82865 -10.5732,6.57814 -9.8994,2.06836 -9.6269,2.11189 -14.5712,-2.32964 z"
             id="path3249"
             inkscape:connector-curvature="0" />
          <path
             style="fill:#161616;stroke-width:1.30307257"
             d="m 2088.0408,476.50503 c -6.2707,-6.02881 -4.6287,-7.91712 7.8298,-9.00375 15.0324,-1.311 32.447,1.83614 32.447,5.86378 0,2.71406 -3.9114,4.06953 -13.8607,4.80391 -5.8494,0.43159 -13.2612,1.12285 -16.4708,1.53606 -5.1821,0.66719 -6.2955,0.30886 -9.9453,-3.2 z"
             id="path3247"
             inkscape:connector-curvature="0" />
          <path
             style="fill:#161616;stroke-width:1.30307257"
             d="m 2098.7968,461.70794 c -6.9224,-1.94455 -12.3471,-10.16175 -7.8512,-11.89313 0.8636,-0.33265 7.3695,-0.83278 14.4576,-1.11149 13.6461,-0.53649 17.2825,0.59582 16.4559,5.12466 -0.5396,2.95629 -2.2303,3.94316 -10.5002,6.12965 -9.2281,2.43967 -9.8163,2.52158 -12.5621,1.75031 z"
             id="path3245"
             inkscape:connector-curvature="0" />
          <path
             style="fill:#161616;stroke-width:1.30307257"
             d="m 2085.3242,437.58376 c -4.8312,-2.82111 -6.7804,-7.09286 -4.4034,-9.65053 1.5777,-1.69759 4.2401,-1.7622 18.6516,-0.45322 18.2126,1.65447 22.4048,3.39207 18.45,7.64746 -1.2988,1.39751 -5.6185,2.5989 -11.889,3.30637 -13.8002,1.55702 -16.9042,1.43023 -20.8092,-0.85008 z"
             id="path3243"
             inkscape:connector-curvature="0" />
          <path
             style="fill:#161616;stroke-width:1.30307257"
             d="m 2075.2627,418.14496 c -6.9334,-6.71615 -4.3453,-7.73424 24.5373,-9.65229 17.581,-1.16746 25.263,-1.22991 26.2081,-0.21316 4.1192,4.43246 -6.9961,9.1477 -27.6777,11.74119 -9.2023,1.15394 -17.234,2.0981 -17.8483,2.0981 -0.6142,0 -2.963,-1.78829 -5.2194,-3.97384 z"
             id="path3241"
             inkscape:connector-curvature="0" />
        </g>
      </g>
      <path
         inkscape:connector-curvature="0"
         id="path2157"
         d="m 468.81846,-463.47332 c -1.99386,-0.34562 -2.47955,-1.46277 -3.04581,-7.00588 -0.39321,-3.84924 -1.95011,-16.37432 -3.23547,-26.02918 -0.30323,-2.27755 -0.68597,-6.58984 -0.85057,-9.58286 l -0.29924,-5.44184 2.4738,-0.31375 c 6.97646,-0.88479 71.35974,-2.58491 65.68647,-1.73454 -1.46257,0.21923 -1.91896,0.61963 -2.13473,1.87284 -0.15094,0.87669 -0.46802,2.04513 -0.70463,2.59652 -0.37902,0.88328 0.004,0.99639 3.2169,0.95083 3.24939,-0.0461 3.61577,-0.17148 3.35987,-1.15006 -0.15797,-0.60409 0.0206,-1.76195 0.39676,-2.57303 0.69784,-1.50457 1.856,-1.78737 4.46284,-1.08974 1.39292,0.37277 1.40756,0.45286 1.05319,5.75975 -0.19765,2.95995 -0.64512,7.9107 -0.99439,11.00167 -0.39838,3.52556 -0.48358,10.41494 -0.22864,18.48663 0.34087,10.79251 0.27346,12.87287 -0.41817,12.90499 -20.04763,0.93119 -28.6776,1.19202 -46.07984,1.39274 -11.55045,0.13323 -21.7467,0.11294 -22.65834,-0.0451 z m 25.14537,-4.63959 c 0.58059,-2.05418 0.14494,-7.09867 -1.124,-13.0146 -0.4885,-2.27754 -0.99652,-7.18759 -1.12889,-10.9112 -0.13706,-3.8551 -0.51004,-6.93666 -0.86625,-7.1568 -1.09332,-0.67571 8.0622,-1.1578 22.16586,-1.16715 13.20224,-0.009 15.75378,-0.30001 14.88882,-1.69952 -0.93622,-1.51482 -50.08218,-0.20644 -55.53191,1.47839 -0.8904,0.27527 -0.94086,0.48095 -0.30578,1.24619 0.64834,0.7812 1.89812,0.85749 8.46658,0.51681 l 7.70594,-0.39969 -0.21267,4.68306 c -0.14247,3.1372 0.28225,7.68561 1.28667,13.77906 0.82464,5.00281 1.66864,10.37642 1.87552,11.94135 0.28833,2.18074 0.59834,2.80254 1.32734,2.66208 0.52313,-0.1008 1.17688,-0.98189 1.45277,-1.95798 z m -11.44681,-2.3787 c 0.79382,-0.7938 -1.30959,-1.55319 -5.20727,-1.87995 -3.99514,-0.33495 -4.27844,-0.28203 -4.07746,0.76164 0.13004,0.67518 0.91951,1.28392 1.98351,1.52942 1.8032,0.41605 6.75276,0.13736 7.30122,-0.41111 z m -3.13355,-4.67181 c 1.65734,-1.21187 0.61855,-1.82752 -3.02382,-1.79214 -3.59063,0.0349 -4.31727,0.42355 -3.23346,1.72948 0.94531,1.13902 4.73339,1.17695 6.25728,0.0627 z m -0.70803,-3.67821 c 2.92071,-0.40032 3.68801,-1.59928 1.41359,-2.2088 -2.20475,-0.59085 -8.62859,-0.41697 -9.03749,0.24463 -0.65606,1.06154 0.96338,2.34037 2.96376,2.34037 1.05352,0 3.15059,-0.16929 4.66014,-0.3762 z m 1.13927,-4.28911 c 1.15306,-1.15305 -0.36153,-1.84199 -4.04948,-1.84199 -3.90622,0 -4.71428,0.60548 -3.07084,2.30099 0.82328,0.84936 6.15571,0.50561 7.12032,-0.459 z m -1.2046,-3.98605 c 2.78814,-0.81322 0.15673,-1.96507 -4.58468,-2.00685 -3.66063,-0.0322 -2.48937,-0.86784 1.90566,-1.35951 3.53486,-0.39544 5.70115,-1.35814 5.13121,-2.28033 -0.26398,-0.42712 -2.31649,-0.49601 -6.32028,-0.21216 -7.40456,0.52496 -7.89893,0.68761 -6.56617,2.16029 0.55251,0.61053 1.42919,1.13106 1.94815,1.15675 0.61151,0.0303 0.68334,0.1517 0.2041,0.34508 -1.19213,0.48104 -0.85041,1.9661 0.59156,2.57089 1.23855,0.51946 5.30499,0.32162 7.69045,-0.37416 z"
         style="fill:#fdfdd2;fill-opacity:1;stroke:none;stroke-width:0.59157223px;stroke-linecap:butt;stroke-linejoin:miter;stroke-opacity:1" />
      <text
         xml:space="preserve"
         style="font-style:normal;font-variant:normal;font-weight:bold;font-stretch:normal;font-size:36px;line-height:125%;font-family:'DejaVu Sans';-inkscape-font-specification:'DejaVu Sans Bold';text-align:start;letter-spacing:0px;word-spacing:0px;writing-mode:lr-tb;text-anchor:start;fill:#000000;fill-opacity:1;stroke:none;stroke-width:0.75px;stroke-linecap:butt;stroke-linejoin:miter;stroke-opacity:1"
         x="177.90413"
         y="466.5358"
         id="text1137-3" />
      <g
         transform="matrix(0.43162108,0,0,0.37310069,-142.51071,-612.87753)"
         id="g3077">
        <path
           style="display:inline;fill:#fee3fc;fill-opacity:1;stroke:none"
           d="m 796.72964,795.46886 c -28.15885,-3.38238 -59.1579,-11.17271 -61.86084,-15.54616 -2.20379,-3.5658 8.71818,-13.34277 22.9771,-20.56831 25.09227,-12.71522 45.18971,-16.19287 101.68928,-17.59629 33.25313,-0.82599 51.36777,-0.44355 50.43555,1.06481 -2.37712,3.84628 13.62809,9.99402 40.02177,15.37271 25.26262,5.14819 38.36132,10.66518 38.36132,16.15724 0,4.07519 -19.98438,13.93218 -35.17153,17.34782 -36.35998,8.17747 -105.81755,9.85036 -156.45265,3.76818 z"
           id="path8383"
           inkscape:connector-curvature="0" />
        <path
           style="display:inline;fill:#fee3fc;fill-opacity:1;stroke:none"
           d="m 822.19868,957.94987 c -40.05573,-5.90283 -65.51346,-15.0004 -72.70993,-25.98359 -2.01682,-3.07806 -4.30035,-10.43745 -5.07452,-16.3542 -1.2898,-9.85762 -5.37106,-116.6071 -4.51748,-118.15939 0.20392,-0.37085 3.52386,0.58097 7.37763,2.11514 14.99739,5.97043 40.58646,9.39838 90.43437,12.11472 58.32742,3.17842 97.18218,0.81229 128.48792,-7.82447 9.82609,-2.71087 18.76955,-4.01783 19.87437,-2.90436 4.88343,4.92165 10.38147,122.45861 5.915,126.45076 -6.16256,5.50812 -47.00687,18.9145 -80.03933,26.27141 -16.45108,3.66395 -74.97521,6.45099 -89.74803,4.27398 z"
           id="path8385"
           inkscape:connector-curvature="0" />
        <path
           inkscape:connector-curvature="0"
           id="path3265"
           d="m 871.23286,728.31478 c -33.8154,-0.047 -63.70282,1.7376 -78.49995,5.0313 -14.69211,3.2703 -34.44393,9.4876 -43.9375,13.8437 -7.12982,3.2714 -18.3797,11.3106 -21.8125,15.5938 -5.56118,6.9387 -4.6923,18.7403 1.65625,25.7812 -0.49009,1.7206 -0.5,5.7969 -0.5,15.9375 0,39.5719 0.99004,70.7154 2.6875,85.81249 0.97688,8.6883 2.01698,16.1781 2.3125,16.6563 0.29552,0.4781 0.0157,3.1895 -0.59375,6.0312 -2.39006,11.1445 3.85236,24.6775 15.78125,34.2813 11.08521,8.9246 32.85571,17.6749 50.3125,20.2187 2.475,0.3607 5.85,1.0603 7.5,1.5313 3.4844,0.9948 19.8457,2.7077 33.5,3.5312 5.2182,0.3147 9.6951,0.7889 9.9375,1.0313 0.2424,0.2426 1.8107,0.2129 3.5,-0.062 1.6893,-0.2756 9.5875,-0.7583 17.5625,-1.0625 26.8286,-1.0233 40.6891,-2.8183 53.5,-6.9688 2.2,-0.7128 6.7,-1.8498 10,-2.5312 9.7684,-2.017 25.5698,-10.0033 31.1411,-15.221 4.066,-3.8078 4.1245,-5.3302 1.1992,-5.9665 -2.3697,-0.5154 -14.741,1.7444 -16.1216,3.125 -0.6108,0.6108 -2.0931,1.0937 -3.3125,1.0937 -1.2194,0 -4.1794,0.8402 -6.5625,1.8438 -2.3831,1.0036 -8.8437,2.8316 -14.3437,4.0625 -5.5,1.2308 -11.5632,2.625 -13.5,3.125 -3.5549,0.9176 -11.249,2.154 -25,4 -11.9123,1.5992 -39.214,2.0708 -55,0.9375 -16.8428,-1.2091 -41.82599,-5.1938 -50.15625,-8 -3.18066,-1.0715 -6.29629,-1.9688 -6.9375,-1.9688 -0.64122,0 -5.49261,-2.0298 -10.78125,-4.5312 -15.82805,-7.4866 -22.28641,-15.4906 -21.375,-26.4688 0.25114,-3.025 -0.29514,-12.025 -1.21875,-20 -0.92362,-7.975 -1.86849,-25.07499 -2.125,-37.99999 -0.2565,-12.925 -0.75656,-33.6025 -1.09375,-45.9687 l -0.5625,-19.9063 c 5.54399,2.7043 12.59759,5.2719 19.5,6.9688 9.2983,2.2858 12.9371,2.9582 29.84375,5.5312 20.955,3.1891 102.90735,5.6605 123.99995,3.75 34.7729,-3.1497 44.5459,-4.9076 66.5625,-11.9375 7.6722,-2.4497 9.9375,-1.9858 9.9375,2.0313 0,1.5675 0.6481,5.0689 1.4375,7.7812 1.8828,6.4687 3.3933,25.9188 4.0625,51.9375 0.297,11.55 1.0102,29.53239 1.5937,39.93749 1.0839,19.3272 0.7233,26.7042 -1.4062,28.3125 -0.6606,0.4989 -5.6875,2.3881 -11.1875,4.1875 -5.5,1.7995 -14.5603,4.7759 -15.3853,5.5822 -1.3294,1.2992 -2.038,2.1863 0.5115,4.4004 2.7326,2.3727 8.1829,1.202 18.7488,1.0174 6.1516,-0.1075 12.2424,0.2832 13.62504,0.875 3.4046,1.4571 3.4429,1.4474 5.375,-0.6875 1.4486,-1.6006 1.7007,-4.2291 1.7187,-17.5 0.012,-8.5808 -0.2056,-15.9615 -0.5,-16.4375 -0.2941,-0.4761 -0.769,-11.6355 -1.0624,-24.78119 -1.2602,-56.4483 -4.2972,-83.3899 -10.03134,-89.375 l -2.5937,-2.7188 3.5312,-5.25 c 2.9741,-4.4195 3.56254,-6.1375 3.56254,-10.7187 0,-7.999 -4.06084,-15.0163 -12.00004,-20.7813 -4.467,-3.2436 -21.2211,-8.9974 -29.5625,-10.1562 -2.1772,-0.3024 -7.3125,-1.1775 -11.4375,-1.9375 -4.125,-0.7599 -14.1375,-1.5813 -22.25,-1.8125 -12.0828,-0.3444 -14.75,-0.1626 -14.75,0.9687 0,0.7596 0.959,1.375 2.1563,1.375 1.1973,0 4.4598,1.5683 7.25,3.4688 4.4536,3.0335 6.4981,3.6317 16.5937,5.0312 18.9996,2.6339 36.0706,6.4855 42.625,9.5938 6.2374,2.9581 12.375,7.8176 12.375,9.8125 0,0.6028 -1.5607,2.7976 -3.4375,4.875 -3.0046,3.3256 -8.0565,6.1745 -19.0625,10.75 -3.7391,1.5544 -15.3655,4.5382 -22,5.625 -29.0373,4.7569 -42.0633,5.5654 -82,5.25 -38.21815,-0.3018 -49.36885,-0.7147 -60.49995,-2.3438 -3.575,-0.5233 -11,-1.477 -16.5,-2.0937 -23.55531,-2.6414 -48.79512,-9.2846 -53.0625,-14 -2.94091,-3.2497 -1.16978,-8.1774 4.84375,-13.5 5.10326,-4.517 24.14318,-14.5962 30.21875,-16 1.64155,-0.3793 7.05,-2.0297 12,-3.6563 4.94997,-1.6266 11.25,-3.3775 14,-3.9062 8.05,-1.5479 33.3118,-4.6016 45.49995,-5.5 6.4369,-0.4746 59.0867,-0.4045 67.7813,0.094 20.592,1.1801 38.3617,6.1469 41.3575,7.1099 4.696,1.5094 6.2206,0.8867 4.6309,-3.6736 -2.0888,-5.9917 -6.3864,-11.5689 -36.2697,-13.0925 -15.9406,-0.8128 -32.1293,-1.1976 -47.5,-1.2188 z"
           style="fill:#161616"
           sodipodi:nodetypes="cscscsscssccsccscsccsssccsssscssscccsssscssccccsccccscccssccssssscsccsscssssscccccscc" />
      </g>
      <path
         style="fill:#161616;stroke-width:0.30228513"
         d="m 250.91155,-344.05225 c -0.39156,-0.55579 -0.41732,-1.02052 -0.25814,-4.65852 0.0972,-2.2226 0.28113,-4.53693 0.40862,-5.14285 0.12745,-0.60597 0.30205,-1.88675 0.38795,-2.84619 0.0859,-0.95944 0.25671,-1.8836 0.37963,-2.05368 0.12291,-0.17012 0.22348,-0.64998 0.22348,-1.06638 0,-0.41637 0.10422,-1.10351 0.2317,-1.52693 0.12739,-0.42345 0.36084,-1.51358 0.51869,-2.42255 0.15774,-0.90893 0.44751,-2.07851 0.64377,-2.59897 0.19632,-0.52053 0.35977,-1.18156 0.36328,-1.46902 0.004,-0.28743 0.29059,-1.51416 0.63805,-2.72609 0.34745,-1.2119 0.73049,-2.57531 0.85129,-3.02978 0.12077,-0.45447 0.40241,-1.3634 0.62586,-2.01987 0.22349,-0.65646 0.51114,-1.55089 0.63924,-1.98771 0.12817,-0.43678 0.62883,-1.66245 1.11258,-2.7237 0.48377,-1.06125 0.8796,-2.05525 0.8796,-2.20896 0,-0.15368 0.28145,-0.69075 0.62542,-1.19337 0.34398,-0.50273 0.62539,-1.09723 0.62539,-1.32125 0,-0.22401 0.0949,-0.48577 0.2109,-0.58165 0.11605,-0.096 0.40675,-0.67026 0.64599,-1.2762 0.23928,-0.60599 0.59219,-1.34967 0.78433,-1.65265 0.63183,-0.99652 2.86162,-5.17329 2.86162,-5.36044 0,-0.10075 0.22089,-0.32993 0.49087,-0.50929 0.26998,-0.17932 0.62194,-0.62595 0.78212,-0.99247 0.16013,-0.3665 0.4325,-0.79033 0.60518,-0.9418 0.17273,-0.1515 0.39068,-0.48201 0.48446,-0.73453 0.0937,-0.25248 0.26542,-0.62432 0.38154,-0.82628 1.21192,-2.1077 1.1544,-2.55499 -0.27762,-2.15819 -0.63692,0.17647 -0.92041,0.16276 -1.55996,-0.0755 -1.49199,-0.55585 -1.49322,-0.55122 0.54778,-2.0491 1.05752,-0.77607 2.76702,-2.06308 3.79892,-2.85997 2.07892,-1.60559 2.90398,-1.94667 4.7085,-1.94667 0.93678,0 1.37058,0.10097 1.8576,0.43224 0.58237,0.3962 0.64808,0.59904 0.78794,2.43302 0.0839,1.10045 0.26207,2.74348 0.39591,3.65116 0.20513,1.39148 0.18421,1.6938 -0.13332,1.92685 -0.33535,0.24616 -0.50592,0.22629 -1.55757,-0.18141 -1.57251,-0.60964 -2.0289,-1.31637 -2.04451,-3.16627 -0.007,-0.78271 -0.10197,-1.4231 -0.21192,-1.4231 -0.10996,0 -0.34456,0.30988 -0.52134,0.68857 -0.17678,0.37877 -0.55143,1.06043 -0.83253,1.51493 -0.28107,0.45447 -0.8993,1.48736 -1.37383,2.29528 -0.47453,0.80795 -1.34901,2.21268 -1.94328,3.12164 -0.59431,0.90891 -1.25668,1.94722 -1.47181,2.30731 -1.08947,1.82312 -2.51447,4.39551 -2.84152,5.12944 -0.20251,0.45446 -0.63917,1.2911 -0.97035,1.85922 -0.33122,0.56804 -0.60226,1.20958 -0.60226,1.42556 0,0.37026 -0.0784,0.52264 -0.78808,1.5312 -0.15829,0.22495 -0.43974,0.80337 -0.62539,1.28536 -0.18565,0.48201 -0.51512,1.31016 -0.73206,1.84043 -0.36001,0.87952 -0.79296,2.10979 -1.34097,3.81018 -0.11395,0.35346 -0.38134,1.11289 -0.59418,1.68764 -0.21287,0.57469 -0.45894,1.44234 -0.54679,1.92802 -0.0879,0.48573 -0.25913,1.04835 -0.38054,1.25036 -0.33443,0.55639 -2.16603,7.9567 -2.36328,9.54843 -0.0626,0.50498 -0.34892,2.15759 -0.63637,3.6725 -0.28745,1.51487 -0.47474,3.16559 -0.4163,3.6683 0.0584,0.50269 0.0116,1.08109 -0.10368,1.28535 -0.38679,0.68416 -0.68802,6.03528 -0.43496,7.72598 0.27886,1.86236 0.14055,2.06969 -1.48763,2.22998 -0.95155,0.0937 -1.03953,0.0622 -1.44802,-0.51763 z"
         id="path3261"
         inkscape:connector-curvature="0" />
      <text
         transform="scale(1.0404018,0.96116714)"
         xml:space="preserve"
         style="font-style:normal;font-variant:normal;font-weight:bold;font-stretch:normal;font-size:4.10873px;line-height:0%;font-family:'DejaVu Sans';-inkscape-font-specification:'DejaVu Sans Bold';text-align:start;letter-spacing:0px;word-spacing:0px;writing-mode:lr-tb;text-anchor:start;display:inline;fill:#000000;fill-opacity:1;stroke:none;stroke-width:0.342394"
         x="174.19933"
         y="-239.95801"
         id="text3324-9-3"><tspan
           sodipodi:role="line"
           x="174.19933"
           y="-239.95801"
           style="font-size:16.4349px;line-height:1.25;stroke-width:0.342394"
           id="tspan1550">--spool-dir</tspan></text>
      <flowRoot
         transform="matrix(0.59703729,0,0,0.55486049,690.1363,-531.71402)"
         xml:space="preserve"
         id="flowRoot1554"
         style="font-style:normal;font-variant:normal;font-weight:bold;font-stretch:normal;font-size:48px;line-height:125%;font-family:'DejaVu Sans';-inkscape-font-specification:'DejaVu Sans Bold';text-align:start;letter-spacing:0px;word-spacing:0px;writing-mode:lr-tb;text-anchor:start;fill:#000000;fill-opacity:1;stroke:none;stroke-width:1px;stroke-linecap:butt;stroke-linejoin:miter;stroke-opacity:1"><flowRegion
           id="flowRegion1556"><rect
             id="rect1558"
             width="134.43214"
             height="309.05533"
             x="1459.351"
             y="169.02161" /></flowRegion><flowPara
           id="flowPara1560" /></flowRoot>
      <flowRoot
         transform="matrix(0.59703729,0,0,0.55486049,690.1363,-531.71402)"
         xml:space="preserve"
         id="flowRoot1562"
         style="font-style:normal;font-variant:normal;font-weight:bold;font-stretch:normal;font-size:48px;line-height:125%;font-family:'DejaVu Sans';-inkscape-font-specification:'DejaVu Sans Bold';text-align:start;letter-spacing:0px;word-spacing:0px;writing-mode:lr-tb;text-anchor:start;fill:#000000;fill-opacity:1;stroke:none;stroke-width:1px;stroke-linecap:butt;stroke-linejoin:miter;stroke-opacity:1"><flowRegion
           id="flowRegion1564"><rect
             id="rect1566"
             width="264.7066"
             height="353.40408"
             x="1433.0189"
             y="151.00493" /></flowRegion><flowPara
           id="flowPara1568" /></flowRoot>
      <path
         sodipodi:nodetypes="ccccccccccsccsccccscccscccccsccsscccccc"
         style="fill:#161616;stroke-width:0.29839823"
         d="m 210.4769,-374.02905 c -0.17536,-0.58897 -0.33607,-0.87232 -0.66736,-1.73314 -0.33128,-0.86087 -0.60634,-1.71345 -0.61121,-1.89468 -0.005,-0.18122 -0.25059,-0.73727 -0.54609,-1.23563 -0.29543,-0.49841 -0.82754,-1.72168 -1.18241,-2.71839 -1.55855,-3.29086 1.94023,2.44521 -4.82074,-8.81426 -0.35174,-0.49835 -0.96277,-1.42514 -1.35787,-2.05939 -0.39512,-0.63431 -1.00511,-1.56104 -1.35552,-2.05939 -0.35038,-0.49842 -0.84766,-1.2398 -1.10499,-1.64755 -0.25731,-0.40779 -1.19869,-1.57978 -2.09196,-2.60447 -0.89325,-1.02469 -1.62412,-1.90782 -1.62412,-1.96253 0,-0.20851 -2.84301,-2.78724 -3.59276,-3.25872 -2.44446,-1.53733 -2.73378,-2.2743 -0.92315,-2.35147 3.35602,-0.14299 7.02947,3.0083 12.53575,10.75382 0.90182,1.26856 1.96366,2.82548 2.35957,3.45978 0.39597,0.63431 0.85923,1.37569 1.02942,1.64754 3.04487,4.46751 9.60868,20.90989 9.86084,27.21708 0.1082,0.97861 0.19742,1.96466 0.19812,2.19123 0,0.22651 0.18541,1.18022 0.41038,2.1193 0.22496,0.93909 0.38781,2.05117 0.3619,2.47131 -0.026,0.42009 0.0408,0.9862 0.14834,1.25809 0.10758,0.2718 0.0734,1.19853 -0.0758,2.0594 -0.1492,0.86082 -0.20259,1.62715 -0.11863,1.70298 0.0838,0.0758 0.57755,-0.082 1.09704,-0.3509 2.03659,-1.05395 2.96171,-1.0352 3.33984,0.0677 0.14164,0.4132 0.0559,0.70503 -0.29248,0.99602 -0.27098,0.22632 -0.41144,0.52747 -0.31209,0.66922 0.0994,0.14165 -0.0155,0.37664 -0.25489,0.52212 -0.7335,0.44543 -2.0978,2.70188 -2.43117,4.02098 -0.16195,0.6408 -0.34257,0.82065 -0.9514,0.94737 -1.05217,0.21887 -2.61306,0.19462 -3.19666,-0.0496 -0.2706,-0.11328 -0.96889,-0.76202 -1.55181,-1.44165 -1.5688,-1.82896 -4.12745,-4.31431 -5.07098,-4.92565 -1.11356,-0.7215 -1.08321,-1.25417 0.0904,-1.58628 0.50803,-0.14379 1.18931,-0.21277 1.52509,-0.15445 0.99242,0.1724 2.66593,1.06853 3.3344,1.78557 0.86674,0.92976 1.79673,1.58906 2.09775,1.48723 0.37576,-0.12706 0.30258,-1.77431 -0.22243,-5.00872 -2.16459,-15.58553 -0.81151,-7.46499 -3.77837,-18.61704"
         id="path3259"
         inkscape:connector-curvature="0" />
      <text
         id="text1137"
         y="455.51312"
         x="-360.74921"
         style="font-style:normal;font-variant:normal;font-weight:bold;font-stretch:normal;font-size:36px;line-height:125%;font-family:'DejaVu Sans';-inkscape-font-specification:'DejaVu Sans Bold';text-align:start;letter-spacing:0px;word-spacing:0px;writing-mode:lr-tb;text-anchor:start;fill:#000000;fill-opacity:1;stroke:none;stroke-width:0.75px;stroke-linecap:butt;stroke-linejoin:miter;stroke-opacity:1"
         xml:space="preserve" />
      <text
         xml:space="preserve"
         style="font-style:normal;font-variant:normal;font-weight:bold;font-stretch:normal;font-size:3.7832px;line-height:0%;font-family:'DejaVu Sans';-inkscape-font-specification:'DejaVu Sans Bold';text-align:start;letter-spacing:0px;word-spacing:0px;writing-mode:lr-tb;text-anchor:start;display:inline;fill:#000000;fill-opacity:1;stroke:none;stroke-width:0.315267"
         x="-45.23877"
         y="-415.38376"
         id="text3053-3-7"
         transform="scale(1.0407029,0.96088902)"><tspan
           id="tspan1141-5"
           sodipodi:role="line"
           x="-45.23877"
           y="-415.38376"
           style="font-size:15.1328px;line-height:1.25;stroke-width:0.315267">--domain=example.com</tspan><tspan
           id="tspan2718"
           sodipodi:role="line"
           x="-45.23877"
           y="-396.46777"
           style="font-size:15.1328px;line-height:1.25;stroke-width:0.315267">--address-verifier=account:</tspan></text>
    </g>
  </g>
</svg>

