<?xml version="1.0" encoding="UTF-8" standalone="no"?>
<svg
<!-- Copyright (C) 2001-2023 Graeme Walker <graeme_walker@users.sourceforge.net>. All rights reserved. -->
   xmlns:dc="http://purl.org/dc/elements/1.1/"
   xmlns:cc="http://creativecommons.org/ns#"
   xmlns:rdf="http://www.w3.org/1999/02/22-rdf-syntax-ns#"
   xmlns:svg="http://www.w3.org/2000/svg"
   xmlns="http://www.w3.org/2000/svg"
   xmlns:sodipodi="http://sodipodi.sourceforge.net/DTD/sodipodi-0.dtd"
   xmlns:inkscape="http://www.inkscape.org/namespaces/inkscape"
   version="1.0"
   width="210mm"
   height="297mm"
   viewBox="0 0 595.27559 841.88976"
   preserveAspectRatio="xMidYMid meet"
   id="svg8"
   sodipodi:docname="popbyname.svg"
   inkscape:version="0.92.4 (5da689c313, 2019-01-14)"
   inkscape:export-filename="/home/graeme/src/trunk/gnetapps/emailrelay/doc/graphics/popbyname.png"
   inkscape:export-xdpi="15.59"
   inkscape:export-ydpi="15.59">
  <defs
     id="defs12">
    <inkscape:path-effect
       effect="fill_between_many"
       method="originald"
       linkedpaths="#path4,0"
       id="path-effect2166"
       is_visible="true"
       allow_transforms="false" />
    <inkscape:path-effect
       allow_transforms="false"
       is_visible="true"
       effect="fill_between_many"
       method="originald"
       linkedpaths="#path4,0"
       id="path-effect2166-3" />
  </defs>
  <sodipodi:namedview
     pagecolor="#ffffff"
     bordercolor="#666666"
     borderopacity="1"
     objecttolerance="10"
     gridtolerance="10"
     guidetolerance="10"
     inkscape:pageopacity="0"
     inkscape:pageshadow="2"
     inkscape:window-width="1835"
     inkscape:window-height="1357"
     id="namedview10"
     showgrid="false"
     inkscape:zoom="0.71252295"
     inkscape:cx="521.99332"
     inkscape:cy="710.42418"
     inkscape:window-x="839"
     inkscape:window-y="208"
     inkscape:window-maximized="0"
     inkscape:current-layer="layer2"
     inkscape:pagecheckerboard="0"
     inkscape:document-units="pt"
     units="mm" />
  <metadata
     id="metadata2">
Created by potrace 1.16, written by Peter Selinger 2001-2019
<rdf:RDF>
  <cc:Work
     rdf:about="">
    <dc:format>image/svg+xml</dc:format>
    <dc:type
       rdf:resource="http://purl.org/dc/dcmitype/StillImage" />
    <dc:title />
  </cc:Work>
</rdf:RDF>
</metadata>
  <g
     inkscape:groupmode="layer"
     id="layer2"
     inkscape:label="lines"
     style="display:inline"
     transform="translate(0,614.88976)">
    <g
       id="g957"
       inkscape:export-xdpi="46.889999"
       inkscape:export-ydpi="46.889999">
      <flowRoot
         style="fill:black;stroke:none;stroke-opacity:1;stroke-width:1px;stroke-linejoin:miter;stroke-linecap:butt;fill-opacity:1;font-family:DejaVu Sans;font-style:normal;font-weight:bold;font-size:48px;line-height:125%;letter-spacing:0px;word-spacing:0px;-inkscape-font-specification:DejaVu Sans Bold;font-stretch:normal;font-variant:normal;text-anchor:start;text-align:start;writing-mode:lr"
         id="flowRoot1095"
         xml:space="preserve"><flowRegion
           id="flowRegion1097"><rect
             y="1673.1166"
             x="258.28561"
             height="213.43361"
             width="218.07347"
             id="rect1099" /></flowRegion><flowPara
           id="flowPara1101" /></flowRoot>      <flowRoot
         style="fill:black;stroke:none;stroke-opacity:1;stroke-width:1px;stroke-linejoin:miter;stroke-linecap:butt;fill-opacity:1;font-family:DejaVu Sans;font-style:normal;font-weight:bold;font-size:48px;line-height:125%;letter-spacing:0px;word-spacing:0px;-inkscape-font-specification:DejaVu Sans Bold;font-stretch:normal;font-variant:normal;text-anchor:start;text-align:start;writing-mode:lr"
         id="flowRoot1103"
         xml:space="preserve"><flowRegion
           id="flowRegion1105"><rect
             y="1683.9429"
             x="133.00935"
             height="157.75528"
             width="406.76117"
             id="rect1107" /></flowRegion><flowPara
           id="flowPara1109" /></flowRoot>      <path
         inkscape:connector-curvature="0"
         id="path3257"
         d="m 178.61694,-404.08361 c 5.24105,1.93607 5.90555,2.10141 13.4552,4.00142 0.63159,0.15896 2.03421,0.40845 3.11694,0.55444 1.08273,0.14599 3.22357,0.47852 4.75743,0.73892 5.85246,0.99363 18.55243,1.36034 27.43927,0.79224 6.42907,-0.41097 15.80554,-1.58109 19.47888,-2.43082 0.63158,-0.14608 1.8462,-0.34731 2.69916,-0.44713 0.85296,-0.0998 1.63679,-0.30997 1.74187,-0.46695 0.1051,-0.15698 0.65171,-0.28543 1.21472,-0.28543 0.56303,0 1.47711,-0.12586 2.03127,-0.2797 0.55419,-0.15383 1.81964,-0.44765 2.81214,-0.65295 0.9925,-0.20527 2.91187,-0.71238 4.26528,-1.12689 1.35341,-0.41451 2.9775,-0.86128 3.6091,-0.99281 1.74946,-0.36434 5.45123,-1.62728 8.30267,-2.83264 1.40853,-0.59539 2.78835,-1.08254 3.06632,-1.08254 0.27796,0 0.89725,-0.18548 1.37624,-0.41221 0.479,-0.22671 2.49496,-1.12964 4.47996,-2.00652 5.21776,-2.30501 10.1791,-4.9966 14.3787,-7.80064 4.49453,-3.00101 11.69709,-9.87211 13.68612,-13.05637 0.2775,-0.44422 0.87963,-1.35297 1.33808,-2.01943 1.32982,-1.93324 3.42269,-5.90196 4.1535,-7.87634 2.42944,-6.56318 3.03751,-10.15478 2.88911,-17.06434 -0.18193,-8.47115 -1.01422,-12.60844 -4.21515,-20.95415 -4.08359,-10.647 -12.57733,-20.71468 -23.04359,-27.3136 -6.48317,-4.08761 -14.93536,-7.81251 -20.99833,-9.2541 -1.08272,-0.25743 -3.22357,-0.79133 -4.75743,-1.18645 -6.47563,-1.66805 -12.35317,-2.29595 -21.81859,-2.33082 -6.82609,-0.0251 -8.06293,0.0528 -12.9599,0.81635 -5.46321,0.85192 -12.33514,2.24734 -15.13658,3.07366 -0.83626,0.24668 -1.69982,0.44849 -1.91902,0.44849 -0.2192,0 -0.86379,0.19325 -1.43241,0.42944 -0.56863,0.23617 -1.99356,0.73078 -3.16652,1.09909 -1.17296,0.36828 -2.42793,0.81556 -2.78884,0.99393 -0.57844,0.28588 -0.48557,0.35204 0.78353,0.5584 1.6064,0.26123 1.83259,0.3801 1.54388,0.81142 -0.19443,0.29048 -1.56866,0.79736 -7.57662,2.79471 -1.62388,0.53986 -4.57677,1.69792 -6.56198,2.57347 -3.28969,1.45085 -4.4836,2.05997 -9.4859,4.83962 -2.4158,1.34237 -8.8396,5.7915 -11.1847,7.74647 -0.36091,0.30087 -1.39048,1.13173 -2.28792,1.84636 -3.47204,2.76475 -10.5948,9.61901 -12.80463,12.32199 -0.72181,0.88291 -1.83442,2.17202 -2.47246,2.86471 -2.66739,2.89586 -5.20428,6.69029 -8.20411,12.27083 -5.65702,10.52364 -6.96065,20.79345 -3.78631,29.82801 1.27598,3.6316 3.92329,8.64737 6.02593,11.41709 5.94466,7.83068 15.67275,14.51442 27.46669,18.87116 m -0.26753,2.56029 c -11.66496,-4.45246 -20.22176,-10.15787 -26.77465,-17.55954 -4.55576,-5.14589 -6.16398,-7.62193 -8.22095,-12.65707 -0.57855,-1.41622 -1.25986,-3.02263 -1.514,-3.56976 -0.25415,-0.54717 -0.46209,-1.39029 -0.46209,-1.87363 0,-0.48337 -0.16164,-1.26258 -0.3592,-1.73162 -0.49654,-1.17884 -0.71864,-8.24347 -0.34586,-11.00116 0.4418,-3.26832 1.36497,-7.66655 1.68425,-8.02429 0.15044,-0.16855 0.58864,-1.19254 0.97378,-2.27554 0.38513,-1.08299 1.15311,-2.85517 1.70662,-3.93817 2.60432,-5.09563 2.7983,-5.41204 6.08511,-9.92573 0.93845,-1.28875 2.1196,-2.936 2.62479,-3.66053 1.40948,-2.0215 7.66296,-8.58409 11.88922,-12.47691 10.60431,-9.7676 18.87851,-14.95338 31.84619,-19.95922 1.45685,-0.56237 2.92922,-1.39342 3.60909,-2.03703 1.26191,-1.19463 2.35542,-1.69854 3.10769,-1.43198 0.27407,0.0971 1.17568,-0.29073 2.05346,-0.88331 2.02456,-1.36669 4.98266,-2.5854 9.2752,-3.82135 1.89477,-0.54556 3.88798,-1.17655 4.42934,-1.40217 1.0801,-0.4502 8.83127,-1.97975 10.66321,-2.10423 0.6316,-0.0429 2.18186,-0.25274 3.44504,-0.46631 3.38516,-0.57237 17.79438,-0.49999 21.81858,0.10957 1.71431,0.25968 4.07662,0.61845 5.24957,0.79727 4.0994,0.62502 10.06123,2.23718 15.42066,4.16995 16.55876,5.9716 28.87355,15.66044 37.14022,29.22055 1.92352,3.1552 4.47452,8.48425 5.48155,11.45105 1.42044,4.18461 1.67157,5.00508 1.67157,5.46127 0,0.28282 0.28889,1.58945 0.64199,2.90358 0.82425,3.06778 1.40098,10.53374 1.14402,14.80977 -0.3325,5.5334 -2.04379,12.2747 -4.19104,16.50966 -0.4951,0.97648 -3.93424,6.44263 -5.0791,8.07279 -2.99341,4.26213 -8.94476,9.83952 -13.55767,12.70569 -0.92809,0.57667 -2.22077,1.42595 -2.87259,1.88726 -0.65184,0.46134 -1.55428,1.00269 -2.00542,1.20302 -0.45113,0.20034 -1.7061,0.9049 -2.78883,1.56573 -1.08273,0.66082 -2.3377,1.34285 -2.78884,1.51562 -0.45114,0.17279 -1.04171,0.44489 -1.3124,0.60472 -0.64035,0.37807 -4.54859,2.13327 -4.75008,2.13327 -0.0852,0 -1.15527,0.42621 -2.37786,0.94714 -1.22256,0.52092 -3.18256,1.26478 -4.35552,1.65306 -1.17295,0.38827 -2.94469,0.99965 -3.93718,1.35863 -0.99251,0.35898 -2.46895,0.83169 -3.28099,1.0505 -0.81205,0.21878 -2.36231,0.66573 -3.44504,0.99317 -1.08274,0.32748 -2.78065,0.76474 -3.77315,0.9717 -0.9925,0.207 -2.09845,0.51699 -2.4577,0.68891 -0.66764,0.31954 -5.20955,1.26434 -8.269,1.72011 -0.93722,0.13962 -1.83167,0.32668 -1.98769,0.41574 -1.21078,0.69091 -25.75199,3.07304 -29.44631,2.85826 -0.54136,-0.0315 -2.23928,-0.0924 -3.77314,-0.13531 -14.02901,-0.39288 -26.96727,-2.70108 -37.34585,-6.66251"
         style="fill:#161616;stroke-width:0.31526655"
         sodipodi:nodetypes="csscscsssccsscsssscccssssssscsccsccssssssssssccsscssscsssssssccsccsscsssscsscscssccssssccccscssc" />
      <g
         transform="matrix(0.32809885,0,0,0.30293618,20.356524,-532.51631)"
         style="display:inline"
         inkscape:label="colour"
         id="layer6">
        <path
           inkscape:connector-curvature="0"
           id="path7860"
           d="m 554.99775,441.33848 c -75.21714,-9.37864 -141.10301,-48.21472 -165.49853,-97.5523 -12.16037,-24.59314 -14.91307,-37.10424 -13.36523,-60.7455 2.83502,-43.30151 25.87459,-86.11586 70.69643,-131.37492 35.78606,-36.13513 64.67414,-55.667175 107.95002,-72.988037 20.00723,-8.007756 27.06735,-12.945778 19.01164,-13.29721 -8.19547,-0.357528 23.83022,-10.32233 51.07725,-15.8927 27.73809,-5.670761 34.51142,-6.171832 68.38466,-5.058892 30.95125,1.016936 41.65196,2.386243 60.53611,7.746461 91.2608,25.904136 149.14818,94.538608 154.45538,183.130968 6.1079,101.95624 -77.07608,174.58867 -230.75804,201.48742 -33.24747,5.81926 -94.14629,8.07877 -122.48969,4.54471 z"
           style="display:inline;fill:#ddffdd;fill-opacity:1;stroke:none" />
      </g>
      <text
         xml:space="preserve"
         style="font-style:normal;font-variant:normal;font-weight:bold;font-stretch:normal;font-size:3.78319883px;line-height:0%;font-family:'DejaVu Sans';-inkscape-font-specification:'DejaVu Sans Bold';text-align:start;letter-spacing:0px;word-spacing:0px;writing-mode:lr-tb;text-anchor:start;display:inline;fill:#000000;fill-opacity:1;stroke:none;stroke-width:0.31526655"
         x="50.548248"
         y="-383.24792"
         id="text3302"
         transform="scale(1.0407029,0.960889)"><tspan
           sodipodi:role="line"
           id="tspan3304"
           x="50.548248"
           y="-383.24792"
           style="font-size:15.13279533px;line-height:1.25;stroke-width:0.31526655">--spool-dir</tspan></text>
      <text
         xml:space="preserve"
         style="font-style:normal;font-variant:normal;font-weight:bold;font-stretch:normal;font-size:3.78319883px;line-height:0%;font-family:'DejaVu Sans';-inkscape-font-specification:'DejaVu Sans Bold';text-align:start;letter-spacing:0px;word-spacing:0px;writing-mode:lr-tb;text-anchor:start;display:inline;fill:#000000;fill-opacity:1;stroke:none;stroke-width:0.31526655"
         x="288.38611"
         y="-582.04529"
         id="text3053-3"
         transform="scale(1.0407029,0.960889)"><tspan
           sodipodi:role="line"
           id="tspan3055-6"
           x="288.38611"
           y="-581.06256"
           style="font-size:15.13279533px;line-height:1.25;stroke-width:0.31526655" /><tspan
           id="tspan1141"
           sodipodi:role="line"
           x="288.38611"
           y="-568.65631"
           style="font-size:15.13279533px;line-height:1.25;stroke-width:0.31526655">--pop</tspan><tspan
           id="tspan1133"
           sodipodi:role="line"
           x="288.38611"
           y="-549.7403"
           style="font-size:15.13279533px;line-height:1.25;stroke-width:0.31526655">--pop-port=110</tspan></text>
      <path
         style="fill:#161616;stroke-width:0.33527976"
         d="m 325.06371,-470.92266 c -0.61647,-0.93353 -0.67477,-2.85076 -0.10114,-3.32618 1.00235,-0.8307 6.70048,-3.60623 11.7897,-5.7426 1.36032,-0.57108 2.73107,-1.18642 3.04599,-1.36747 0.31494,-0.18105 0.79891,-0.32918 1.07539,-0.32918 0.27651,0 1.13182,-0.30029 1.90073,-0.66728 0.76887,-0.36703 1.76896,-0.74777 2.22242,-0.84617 0.77488,-0.1681 3.31107,-1.05606 4.78183,-1.67419 1.08362,-0.45546 5.17987,-1.62408 6.59561,-1.88166 0.72554,-0.13204 1.50305,-0.40123 1.72783,-0.59823 0.2248,-0.19703 1.33779,-0.39438 2.47335,-0.43856 1.34182,-0.0522 2.55127,-0.34475 3.45453,-0.83552 0.76443,-0.41534 1.87739,-0.7398 2.47336,-0.72105 0.59593,0.0189 1.9739,-0.21452 3.06218,-0.51844 1.08829,-0.3039 2.47076,-0.555 3.07215,-0.55801 0.60143,-0.004 1.38933,-0.17339 1.75094,-0.37868 2.23737,-1.27002 28.89294,-2.31427 41.5112,-1.62621 3.53688,0.19287 7.16152,0.36749 8.05472,0.38805 l 1.62401,0.0373 -0.0791,-2.32626 c -0.0476,-1.40109 0.0649,-2.42071 0.28309,-2.5637 0.19919,-0.13057 0.83959,0.0561 1.42311,0.41477 0.58351,0.35867 1.72874,0.86201 2.54493,1.11854 4.26712,1.34103 9.47435,3.70112 11.19419,5.0736 0.62472,0.49854 1.34539,0.90642 1.60146,0.90642 0.25612,0 1.04343,0.48543 1.74975,1.07873 1.26538,1.06303 1.28412,1.11322 1.28412,3.44361 0,3.19594 -0.24752,3.38986 -6.06698,4.75268 -1.25093,0.29298 -3.15654,1.03133 -4.23465,1.64079 -2.40635,1.36038 -3.00759,1.1311 -3.15339,-1.20259 -0.0957,-1.53197 -0.0478,-1.62204 1.48406,-2.79171 1.35828,-1.03722 3.3022,-1.9944 5.84608,-2.87865 0.54723,-0.19021 0.57013,-0.28644 0.16493,-0.69148 -0.57115,-0.57085 -10.90409,-1.68008 -16.4867,-1.7698 -2.09774,-0.0336 -3.98833,-0.17559 -4.20142,-0.31526 -0.41716,-0.27346 -23.78309,-0.32848 -27.60093,-0.065 -1.26964,0.0877 -3.94088,0.25874 -5.93606,0.38022 -1.99518,0.12148 -4.66647,0.38672 -5.93611,0.58942 -1.26962,0.2027 -2.90203,0.4155 -3.62757,0.47287 -1.54756,0.12239 -6.74756,1.0413 -7.69219,1.35929 -0.35937,0.12099 -1.44687,0.36829 -2.41666,0.54954 -4.24779,0.79401 -13.30133,3.32522 -15.6141,4.3654 -0.54413,0.24475 -1.65712,0.63517 -2.47333,0.86764 -3.48248,0.99173 -16.25337,6.60197 -19.47594,8.55565 -1.80485,1.09426 -2.43556,1.11857 -3.09541,0.11934 z"
         id="path3235"
         inkscape:connector-curvature="0" />
      <text
         id="text3324-9"
         y="-394.27353"
         x="305.74783"
         style="font-style:normal;font-variant:normal;font-weight:bold;font-stretch:normal;font-size:4.00874519px;line-height:0%;font-family:'DejaVu Sans';-inkscape-font-specification:'DejaVu Sans Bold';text-align:start;letter-spacing:0px;word-spacing:0px;writing-mode:lr-tb;text-anchor:start;display:inline;fill:#000000;fill-opacity:1;stroke:none;stroke-width:0.3340621"
         xml:space="preserve"
         transform="scale(1.0663509,0.9377776)"><tspan
           style="font-size:16.03498077px;line-height:1.25;stroke-width:0.3340621"
           y="-394.27353"
           x="305.74783"
           id="tspan3326-1"
           sodipodi:role="line">--pop-auth</tspan></text>
      <path
         sodipodi:nodetypes="ccccczcc"
         inkscape:connector-curvature="0"
         id="path3439"
         d="m 294.04208,-414.81023 c -1.38753,4.69907 0.61612,8.71506 2.30342,10.91995 8.68357,16.57725 15.87278,40.64633 25.25109,52.96413 4.09217,6.26961 7.6682,10.98207 11.76336,17.22651 1.31677,-3.52388 1.34767,-6.63964 -0.48221,-9.01373 -5.5223,-8.02508 -9.62192,-10.45824 -15.96786,-22.3606 -6.34594,-11.90235 -14.67227,-35.15084 -21.78045,-50.61604 -0.81499,-2.03829 -0.5917,-2.17354 -1.08735,0.87978 z"
         style="color:#000000;font-style:normal;font-variant:normal;font-weight:normal;font-stretch:normal;font-size:medium;line-height:normal;font-family:Sans;-inkscape-font-specification:Sans;text-indent:0;text-align:start;text-decoration:none;text-decoration-line:none;letter-spacing:normal;word-spacing:normal;text-transform:none;writing-mode:lr-tb;direction:ltr;baseline-shift:baseline;text-anchor:start;display:inline;overflow:visible;visibility:visible;fill:#000000;fill-opacity:1;stroke:none;stroke-width:0.50409442px;marker:none;enable-background:accumulate" />
      <g
         id="g1616"
         transform="matrix(0.38698727,0,0,0.39592218,593.25592,-456.65111)">
        <path
           style="display:inline;fill:#161616;stroke-width:0.74597353"
           d="m -630.68174,256.24931 c 17.83082,-0.37381 31.02946,-0.71104 32.97458,-0.74924 1.94519,-0.0384 6.45449,-0.21932 10.02061,-0.40243 3.56619,-0.18304 14.97198,-0.54144 25.34623,-0.79627 10.37425,-0.25492 21.27652,-0.64177 24.22728,-0.85964 9.01417,-0.66578 59.34312,-1.54029 82.79484,-1.43865 20.3046,0.088 56.9753,2.10942 59.3877,3.27368 5.1239,2.47296 6.459,4.63631 7.214,11.68943 0.4231,3.95304 0.7525,8.39558 0.732,9.87228 -0.045,3.19014 -3.4416,22.38207 -5.4992,31.06831 -1.0493,4.42919 -1.3896,18.48841 -1.223,50.52363 0.2571,49.4142 -0.1084,47.284 8.1273,47.284 5.7201,0 3.8116,-0.9249 6.8217,1.8259 2.0237,1.8493 0.6188,4.8196 -0.293,5.7545 -0.9955,1.0209 4.3017,1.1938 -3.8436,0.9735 l -9.9055,-0.2679 -2.0234,2.7611 c -2.0752,2.8317 -4.5634,3.4979 -6.7312,1.8022 -0.674,-0.5274 -2.2026,-1.7921 -3.3964,-2.8105 -1.9359,-1.6512 -3.2432,-1.8806 -12.0833,-2.1202 -5.4519,-0.1477 -21.8487,0.084 -36.4375,0.5154 -14.58884,0.4313 -32.36068,0.9581 -39.49292,1.1707 -7.13232,0.2127 -15.62035,0.5487 -18.86229,0.7467 -19.31204,1.1798 -96.76295,2.6715 -117.29984,2.2592 -39.12963,-0.7854 -61.61992,-2.2546 -66.14262,-5.3124 -3.55601,-2.4041 -5.67743,-6.5246 -4.27101,-8.2958 0.70851,-0.8923 0.42959,-4.694 -0.78808,-10.7397 -1.03661,-5.1471 -1.20087,-15.5721 -2.13833,-23.1666 -2.03819,-16.5115 -3.36601,-34.176 -5.00504,-41.0408 -3.25633,-13.63842 -3.30781,-36.43051 -3.66159,-50.65358 -0.21539,-8.66231 -0.74165,-16.34309 -1.16935,-17.0684 -2.18979,-3.71324 0.97435,-4.24462 28.35745,-4.76219 10.37425,-0.19608 33.45109,-0.66233 51.28183,-1.03623 m -5.33954,8.29593 c -11.34685,0.40657 -25.60639,0.93397 -35.33225,1.17193 -9.72587,0.23796 -19.92589,0.63172 -22.6667,0.87505 l -4.9833,0.44248 0.64438,13.91545 c 0.77454,16.72626 -2.11297,16.86442 0.3962,32.32631 1.09542,6.75065 1.05043,13.33406 1.673,14.62975 0.6227,1.2956 1.13221,3.9067 1.13221,5.8022 0,1.8954 1.15975,7.3308 1.87975,12.2194 0.81362,5.5243 1.20101,10.3177 1.4487,13.0602 0.24767,2.7424 0.14992,6.721 0.47848,7.9868 0.32856,1.2657 1.42339,8.3424 2.433,15.7259 2.61006,19.0888 3.4841,23.0597 5.23016,23.7618 8.00539,3.2195 58.23779,4.2017 123.15004,2.5942 v 10e-5 c 13.61625,-0.3371 25.55253,-0.5422 26.52516,-0.4556 0.97256,0.087 11.31736,-0.3507 22.98843,-0.9717 24.03141,-1.2786 72.18597,-2.6694 92.69337,-2.6771 10.3748,-0.01 14.0444,-0.2691 15.0926,-1.0909 1.017,-0.7975 1.2015,-5.7369 0.6947,-18.6026 -2.0834,-52.884 -1.5972,-70.52814 2.4167,-87.70823 0.9365,-4.0082 2.0448,-13.01709 2.4629,-20.01973 0.6257,-10.47746 0.4677,-12.85461 -0.892,-13.42412 -1.7285,-0.724 -15.0176,-2.44565 -19.684,-2.55013 -40.9988,-2.50205 -78.07265,-1.28225 -114.00436,-0.20045 -10.37432,0.48666 -32.6554,1.23698 -49.51352,1.66726 -16.85819,0.43035 -39.93504,1.11508 -51.28185,1.52173"
           id="path3255-3-2-3"
           inkscape:connector-curvature="0"
           sodipodi:nodetypes="cccccsssssssccscssscsccsscssssssccsccssssssssccccscsssscccsc" />
        <path
           style="fill:#fff6d5;stroke:none;stroke-width:0.74597353"
           d="m -681.90881,406.33471 c -4.91241,-1.25 -5.41811,-2.2103 -7.47054,-14.1858 -1.2108,-7.0648 -3.38567,-22.5792 -4.83304,-34.4764 -1.44737,-11.8972 -3.42483,-27.0846 -4.39435,-33.74975 -0.96952,-6.66515 -1.77871,-21.89807 -1.79821,-33.85091 l -0.0355,-21.73246 16.30788,-1.08034 c 8.96933,-0.59418 46.8521,-1.92848 84.18393,-2.96509 37.33176,-1.03661 84.13978,-2.38725 104.01779,-3.00143 37.01235,-1.14358 91.04095,1.55201 94.00855,4.69027 1.0046,1.0623 0.1239,13.1047 -2.2839,31.23272 -3.271,24.62654 -3.8175,35.82189 -3.3056,67.72359 l 0.6131,38.2197 -26.4452,1.1725 c -42.05738,1.8647 -242.75318,3.4822 -248.56496,2.0034 z"
           id="path3090"
           inkscape:connector-curvature="0" />
        <text
           transform="scale(0.97243546,1.0283459)"
           xml:space="preserve"
           style="font-style:normal;font-variant:normal;font-weight:bold;font-stretch:normal;font-size:8.95168209px;line-height:0%;font-family:'DejaVu Sans Mono';-inkscape-font-specification:'DejaVu Sans Mono Bold';text-align:start;letter-spacing:0px;word-spacing:0px;writing-mode:lr-tb;text-anchor:start;fill:#000000;fill-opacity:1;stroke:none;stroke-width:0.74597353"
           x="-717.47424"
           y="284.61945"
           id="text3413"><tspan
             sodipodi:role="line"
             id="tspan3415"
             x="-717.47424"
             y="284.61945"
             style="font-size:20.88725853px;line-height:1.25;stroke-width:0.74597353">server plain alice ...</tspan></text>
      </g>
      <g
         id="g1763"
         transform="matrix(0.59703729,0,0,0.55486049,781.32822,-536.92499)">
        <g
           transform="translate(-1566.9239,-562.35878)"
           id="g1596">
          <path
             inkscape:connector-curvature="0"
             id="path8377"
             d="m 1188.427,633.29793 c -1.2847,-2.53848 -1.193,-4.90835 0.314,-8.1189 1.8053,-3.84566 3.5912,-4.62234 11.7633,-5.11574 13.4634,-0.81288 21.4294,0.98343 20.7419,4.67727 -1.0638,5.71622 -9.7804,10.51873 -20.5925,11.34577 -8.9317,0.68321 -10.6705,0.28666 -12.2267,-2.7884 z"
             style="display:inline;fill:#fbdeb2;fill-opacity:1;stroke:none;stroke-width:0.74597353" />
          <path
             inkscape:connector-curvature="0"
             id="path3239"
             d="m 1182.8316,723.99303 c -1.5625,-1.75885 -1.6538,-2.35483 -1.294,-8.45311 0.4048,-6.86088 2.4142,-12.53726 5.8725,-16.58849 0.8606,-1.00822 2.423,-3.04132 3.4719,-4.51802 1.0489,-1.4767 2.9207,-3.89313 4.1596,-5.36983 2.3876,-2.84616 2.4244,-2.94029 2.5546,-6.52051 0.07,-1.93966 0.3686,-2.29054 1.8971,-2.23255 0.9975,0.0376 2.3032,0.21043 2.9017,0.38356 0.7279,0.21058 1.0473,-0.19308 0.965,-1.21948 -0.196,-2.44397 -1.8365,-8.3484 -2.6109,-9.39721 -0.8793,-1.19088 -6.5059,-1.23929 -12.6446,-0.10878 -3.4707,0.63917 -5.1272,0.62628 -6.6753,-0.0522 -2.2512,-0.98605 -3.9044,-3.94007 -3.236,-5.78208 0.5418,-1.49297 1.6323,-1.7053 12.5952,-2.45271 l 9.0676,-0.61822 0.3628,-6.90407 c 0.3301,-6.28439 0.4994,-6.9247 1.8861,-7.13413 0.9722,-0.14682 2.4636,0.76413 4.1217,2.51761 2.2543,2.3839 2.5444,3.09916 2.1911,5.40167 -0.6376,4.15471 0.5082,4.96824 6.997,4.96824 4.9032,0 5.7813,0.21763 7.1654,1.77542 3.3112,3.72736 1.3762,5.84852 -5.4479,5.97225 -6.713,0.12167 -7.8086,0.66348 -8.0716,3.99194 -0.1241,1.57144 0.4811,5.87291 1.345,9.55869 l 1.5706,6.70154 6.5135,7.05742 c 6.8484,7.42034 7.7367,9.60847 4.083,10.05647 -2.4742,0.30332 -6.4785,-2.41742 -10.9392,-7.43254 -4.7162,-5.30248 -5.7365,-5.7988 -8.0186,-3.90057 -2.8319,2.35567 -10.9168,13.00121 -12.7372,16.77152 -0.8961,1.85581 -1.9606,5.30785 -2.3657,7.67119 -0.7253,4.23119 -2.2765,7.74889 -3.4171,7.74889 -0.3203,0 -1.3388,-0.8515 -2.2633,-1.89225 z"
             style="fill:#161616;stroke-width:0.74597353" />
          <path
             sodipodi:nodetypes="ccccsscscsscccccscssssc"
             inkscape:connector-curvature="0"
             id="path3066"
             d="m 1201.6093,637.35302 c 5.1372,-0.21104 7.4043,-0.78576 10.3662,-1.9695 v -1.6e-4 c 5.1146,-2.04406 8.111,-4.61713 10.0449,-8.62586 1.3823,-2.8655 1.3967,-3.12947 0.2432,-4.47737 -2.2222,-2.59662 -6.0098,-3.39834 -15.1959,-3.21668 -4.9968,0.0988 -9.8672,-0.2039 -11.4334,-0.71051 -2.4895,-0.8054 -2.8927,-0.72055 -4.6044,0.96895 -2.179,2.15077 -4.247,6.18052 -4.9566,9.65864 -0.6722,3.29431 1.1636,6.98193 3.779,7.59141 1.09,0.25399 2.3082,0.60065 2.7072,0.77034 0.399,0.16968 3.9898,0.17452 7.9795,0.0107 m -0.2501,7.79945 c -0.2829,-0.0575 -0.566,-0.15289 -1.5634,-0.31084 -8.7187,-1.38089 -10.4712,-2.08948 -13.6073,-5.50185 -1.7274,-1.87944 -3.616,-4.62036 -4.1971,-6.09093 -3.4183,-8.65179 1.201,-18.28427 11.5192,-24.02033 6.6969,-3.7229 8.7442,-3.65777 14.6183,0.46549 2.5748,1.80726 4.8078,2.6998 7.4366,2.9722 4.7027,0.48735 8.6996,2.61457 12.8897,6.86027 2.6203,2.65508 3.2587,3.81703 3.2587,5.93159 0,10.40934 -7.7144,16.67732 -23.4242,19.03245 -3.1084,0.46602 -5.8831,0.80026 -6.166,0.7428"
             style="fill:#161616;stroke-width:0.74597353" />
        </g>
        <text
           transform="scale(0.97243546,1.0283459)"
           xml:space="preserve"
           style="font-style:normal;font-variant:normal;font-weight:bold;font-stretch:normal;font-size:8.95168209px;line-height:0%;font-family:'DejaVu Sans';-inkscape-font-specification:'DejaVu Sans Bold';text-align:start;letter-spacing:0px;word-spacing:0px;writing-mode:lr-tb;text-anchor:start;display:inline;fill:#000000;fill-opacity:1;stroke:none;stroke-width:0.74597353"
           x="-420.66235"
           y="190.32147"
           id="text3375"><tspan
             style="font-size:35.80672836px;line-height:1.25;stroke-width:0.74597353"
             sodipodi:role="line"
             id="tspan3377"
             x="-420.66235"
             y="190.32147">alice</tspan></text>
      </g>
      <g
         id="g1628"
         transform="matrix(0.66855501,0,0,0.63996899,747.80386,-556.98759)">
        <g
           style="fill:#000000;fill-rule:evenodd;stroke:none"
           transform="matrix(0.07829591,0,0,-0.08628172,-999.92745,499.12095)"
           id="g6">
          <path
             inkscape:original-d="M 0,0"
             inkscape:path-effect="#path-effect2166"
             d="m 1960.5985,701.05915 c 14,30 0,105 -20,105 -14,0 -37,-31 -38,-51 -1,-42 -126.8268,-114.40417 -251.8268,-146.40417 -58,-15 -274,-50 -309,-50 -2,0 -4,-6 -4,-13 0,-29 51,-42 164,-41 168,1 333.8268,52.40417 409.8268,123.40417 18,17 43.427,68.76634 46.427,65.76634 z"
             id="path2168"
             style="fill-rule:evenodd"
             inkscape:connector-curvature="0" />
          <path
             d="m 1960.5985,701.05915 c 14,30 0,105 -20,105 -14,0 -37,-31 -38,-51 -1,-42 -126.8268,-114.40417 -251.8268,-146.40417 -58,-15 -274,-50 -309,-50 -2,0 -4,-6 -4,-13 0,-29 51,-42 164,-41 168,1 333.8268,52.40417 409.8268,123.40417 18,17 43.427,68.76634 46.427,65.76634 M 1920.0532,445.90561 C 1860.0532,323.90561 1765,263 1619,225 1542,205 1397,180 1353,180 h -33 l 6,93 c 3,50 8,101 9,112 2,11 4,115 4,232 l 1,212 38,6 c 207,34 366,81 493,145 l 76,39 1.5936,-67 c 4,-37 -0.7899,-175.47353 7.2101,-215.47353 37,-178 64.7119,-146.64182 44.7119,54.35818 -9,91 0.4844,358.11535 -0.5156,621.11535 0,239 -4,417 -10,432 -6,17 -6,35 1,52 7,20 5,41 -6,80 -16,55 -60,101 -130,137 -106,53 -370,98 -491,82 -144.5898,-34.945 21.9832,-48.4127 71,-55 219,-30 336,-60 418,-105 99,-56 111,-95 48,-156 -71,-67 -226,-109 -496,-133 -215,-20 -594,-13 -825,15 -182,22 -344,75 -376,124 -22,33 3,65 90,117 91,55 186,86 371,123 149,30 398,44 480,27 28,-5 76,-16 108,-22 70,-16 88.21,0.6179 58.3476,39.7234 C 1299.2093,2185.6188 1269,2196 1240,2204 c -61,18 -267,27 -385,16 -188,-17 -332,-43 -455,-83 -156,-51 -234,-103 -248,-165 -16,-68 0,-231 48,-497 39,-214 36,-196 59,-400 36,-326 41,-399 41,-542 V 391 l 31,-36 c 61,-69 258,-174 394,-210 157,-40 247,-50 465,-49 233,1 327,13 475,61 125,40 181.9741,84.96117 251.9741,169.96117 25.1016,30.33106 62.1437,114.92204 74.9231,180.15175 8.7874,44.85353 -0.788,80.3538 4.2099,109.94679 -9.0344,26.72111 -24.5719,17.74432 -28.3457,-2.81478 -6.0067,-32.72324 -33.3187,-140.59388 -47.7082,-168.33932 z M 1926,1536 c -8,-6 -16,-22 -18,-36 -7,-55 -169,-121 -422,-170 -77,-16 -141,-28 -142,-27 0,1 -8,15 -18,31 -16,25 -20,27 -33,13 -12,-12 -15,-51 -14,-236 l 2,-220 -36,-16 c -41,-16 -39,-30 5,-40 l 30,-7 -1,-206 c -1,-114 -4,-261 -8,-327 l -6,-120 -80,-3 c -160,-6 -407,30 -544,79 -103,37 -268,130 -287,161 -5,7 -8,94 -7,193 1,99 -2,214 -7,255 -5,41 -16,143 -25,225 -9,83 -20,168 -25,190 -31,136 -86,502 -78,511 3,2 25,-7 49,-20 72,-41 180,-66 379,-90 236,-29 645,-24 931,9 146,18 255,49 329,94 l 35,21 3,-126 c 2,-101 0,-129 -12,-138 z m 14,-276 c 0,-125 -1,-130 -25,-155 -32,-31 -63,-47 -178,-92 -78,-30 -387,-117 -393,-110 -1,1 -4,72 -5,158 l -4,156 85,12 c 203,31 382,81 465,130 28,17 51,30 53,30 1,1 2,-57 2,-129 z"
             id="path4"
             inkscape:connector-curvature="0"
             sodipodi:nodetypes="csccsscccccscccccccccccccccccccccccccccsccccccsccccccscscscccccccccccccsccsscccccccccssccccccccs"
             style="fill-rule:evenodd" />
        </g>
        <path
           style="fill:#fee3fc;fill-opacity:1;stroke:none;stroke-width:0.23834935px;stroke-linecap:butt;stroke-linejoin:miter;stroke-opacity:1"
           d="m -916.26683,484.03666 c -15.72135,-1.40276 -27.68021,-4.01205 -36.16206,-7.89015 -5.12547,-2.34348 -12.04255,-6.39612 -16.12473,-9.44731 -2.87247,-2.147 -3.44794,-2.75293 -3.70532,-3.90144 -0.12503,-0.55789 -0.31655,-8.53087 -0.43274,-18.01508 -0.11465,-9.35785 -0.26524,-17.46463 -0.33466,-18.01508 -0.0694,-0.55048 -0.69231,-6.68685 -1.38418,-13.63643 -1.68628,-16.93792 -2.17447,-20.92319 -3.38946,-27.66971 -2.23838,-12.42915 -5.96431,-39.7755 -5.49052,-40.29761 0.15677,-0.17275 2.32044,0.83357 4.09021,1.90237 5.48453,3.31218 14.89343,5.70215 30.0671,7.63737 10.08974,1.28682 25.29239,1.83205 39.41408,1.41354 33.08464,-0.98046 48.82409,-3.84076 59.18364,-10.75527 l 1.92993,-1.28815 0.14024,3.81551 c 0.23017,6.26222 0.21627,15.28937 -0.0257,16.6954 -0.14147,0.82201 -0.46408,1.61222 -0.86225,2.11196 -0.67958,0.85294 -1.0169,1.6501 -1.40154,3.31199 -0.82133,3.54876 -9.29429,7.99295 -22.10018,11.59191 -4.12805,1.16016 -19.28226,4.63363 -20.97876,4.80852 -0.67865,0.07 -0.80484,-0.0551 -1.92993,-1.91328 -1.67753,-2.77051 -2.11907,-2.9613 -3.17131,-1.37035 -0.74276,1.12305 -0.87065,4.34405 -0.87065,21.92728 v 17.08066 l -2.4408,1.3163 c -1.89765,1.02338 -2.45678,1.44015 -2.5126,1.87287 -0.10036,0.77808 1.00923,1.46871 3.19375,1.98788 l 1.75965,0.41819 -0.004,7.90153 c -0.006,11.61326 -0.38733,30.49387 -0.80574,39.92837 -0.20139,4.54129 -0.39948,8.29438 -0.44019,8.34019 -0.11353,0.12774 -13.92195,0.25304 -15.21099,0.13802 z"
           id="path12"
           inkscape:connector-curvature="0" />
        <path
           style="fill:#fee3fc;fill-opacity:1;stroke:none;stroke-width:0.23834935px;stroke-linecap:butt;stroke-linejoin:miter;stroke-opacity:1"
           d="m -929.07253,349.04983 c -9.92299,-0.38133 -20.5175,-1.25969 -27.0191,-2.24005 -13.89117,-2.09461 -25.59533,-6.54159 -27.82556,-10.57228 -1.31099,-2.36939 0.14822,-4.77226 5.06982,-8.34838 6.07586,-4.41486 12.62703,-7.33379 22.07458,-9.83551 13.98351,-3.70286 25.75072,-5.1907 39.0682,-4.93977 l 6.34207,0.1195 5.56275,1.3058 c 6.25218,1.46763 8.50302,1.68799 9.28486,0.90899 0.52927,-0.5274 0.60603,-1.16991 0.23182,-1.94047 -0.21131,-0.43509 -0.18696,-0.48885 0.17028,-0.3761 0.96759,0.30537 3.17388,0.70134 7.22837,1.29728 19.41629,2.85385 29.34545,5.77648 36.06233,10.61488 3.57979,2.57864 5.05134,4.93197 4.50122,7.19853 -0.36321,1.49652 -1.27069,2.90211 -3.07349,4.76056 -2.63548,2.71682 -6.60034,4.86256 -12.33997,6.67824 -8.63867,2.73278 -22.27385,4.72308 -36.95676,5.39453 -6.21519,0.28423 -20.65691,0.27113 -28.38142,-0.0257 z"
           id="path822"
           inkscape:connector-curvature="0" />
        <path
           style="fill:#fee3fc;fill-opacity:1;stroke:none;stroke-width:0.23834935px;stroke-linecap:butt;stroke-linejoin:miter;stroke-opacity:1"
           d="m -894.75718,417.32218 c -0.0759,-2.09863 -0.19246,-7.08093 -0.25908,-11.07176 -0.0666,-3.99085 -0.1797,-8.33065 -0.25129,-9.64402 l -0.13014,-2.38794 3.02958,-0.45224 c 9.84236,-1.46924 20.51478,-3.93818 28.23226,-6.53118 5.54448,-1.86289 9.36543,-3.64738 13.36506,-6.24186 1.78475,-1.15771 2.28201,-1.38286 2.44858,-1.10865 0.31274,0.51476 0.10216,20.13645 -0.22824,21.26728 -0.62752,2.14793 -3.4507,4.6933 -7.56453,6.82016 -5.91677,3.05898 -12.50196,5.55733 -24.53909,9.30985 -5.08424,1.58498 -13.14604,3.85605 -13.68812,3.85605 -0.19988,0 -0.31546,-1.06275 -0.41499,-3.81569 z"
           id="path824"
           inkscape:connector-curvature="0" />
        <path
           style="fill:#a0a0a0;stroke:none;stroke-width:0.23834935px;stroke-linecap:butt;stroke-linejoin:miter;stroke-opacity:1"
           d="m -894.9013,439.22783 c 0,-7.343 0.0809,-11.5845 0.22096,-11.5845 0.50335,0 8.31275,-1.5348 11.47217,-2.25466 8.73362,-1.98989 18.05833,-5.0278 24.1544,-7.8693 1.67124,-0.779 4.87515,-2.42946 7.11978,-3.66769 2.24464,-1.23824 4.14622,-2.17965 4.22574,-2.09202 0.16063,0.17701 0.43314,8.47542 0.46631,14.19952 l 0.0215,3.69535 -0.53968,-0.14927 c -1.05227,-0.29103 -3.3202,2.76402 -3.3202,4.47255 0,0.72932 -0.95995,2.2227 -2.25346,3.50564 -2.89946,2.87585 -9.90571,6.64754 -15.79712,8.50416 -4.35375,1.37203 -18.57814,4.07548 -24.91889,4.73601 l -0.85143,0.0887 z"
           id="path826"
           inkscape:connector-curvature="0" />
        <path
           style="fill:#fee3fc;fill-opacity:1;stroke:none;stroke-width:0.23834935px;stroke-linecap:butt;stroke-linejoin:miter;stroke-opacity:1"
           d="m -896.39322,481.87624 c 0.0734,-0.8601 0.23902,-3.42161 0.3679,-5.69227 0.12887,-2.27065 0.38341,-5.95996 0.56563,-8.19848 0.18225,-2.2385 0.33134,-6.43264 0.33134,-9.3203 0,-2.88764 0.0897,-5.25028 0.19925,-5.25028 0.10959,0 0.32617,0.16853 0.4813,0.37452 0.45659,0.60627 2.99311,1.3396 5.72304,1.65458 3.17528,0.36639 11.32103,0.14823 14.91178,-0.39937 10.07463,-1.53639 19.46461,-5.52725 23.53758,-10.00374 0.63005,-0.69248 1.67593,-2.2292 2.32415,-3.41492 1.62902,-2.97975 1.72975,-3.04174 2.0832,-1.2825 0.15876,0.79018 0.47651,1.98593 0.70611,2.65723 0.4115,1.20313 0.41094,1.22636 -0.0396,1.6284 -0.34028,0.30365 -0.79569,1.87753 -1.78256,6.16063 -1.4597,6.3351 -2.3148,9.13499 -3.50178,11.46593 -3.76427,7.3922 -9.50987,12.46742 -17.73688,15.66744 -6.19636,2.41016 -20.9283,5.51339 -26.18575,5.51592 l -2.11828,7.1e-4 z"
           id="path828"
           inkscape:connector-curvature="0" />
        <path
           style="fill:#fee3fc;fill-opacity:1;stroke:none;stroke-width:0.23834935px;stroke-linecap:butt;stroke-linejoin:miter;stroke-opacity:1"
           d="m -894.9013,444.97622 c 0,-3.15957 -0.0595,-7.14165 -0.13204,-8.84904 -0.0934,-2.19718 -0.0626,-2.99467 0.10574,-2.72903 0.17239,0.27214 0.25551,-0.48449 0.30231,-2.75231 l 0.0646,-3.12761 0.60269,0.0773 c 0.33149,0.0425 0.66112,-0.0267 0.7325,-0.1541 0.0714,-0.12729 0.37568,-0.17963 0.67622,-0.11632 0.30055,0.0632 0.61278,-0.004 0.69385,-0.14774 0.0811,-0.14455 0.29739,-0.19941 0.48073,-0.1219 0.1833,0.0775 0.5121,0.058 0.73063,-0.0432 0.4114,-0.19057 0.56414,-0.22083 2.40765,-0.47714 0.60615,-0.0843 1.28241,-0.25954 1.50275,-0.38951 0.22035,-0.12997 0.46076,-0.17003 0.53423,-0.0891 0.0734,0.0809 0.31679,0.0597 0.54072,-0.0472 0.22391,-0.10696 0.57687,-0.17178 0.78435,-0.14405 0.20747,0.0278 0.44064,-0.0626 0.51813,-0.20083 0.0776,-0.13818 0.29221,-0.18728 0.47711,-0.10909 0.18491,0.0782 0.47202,0.0179 0.63801,-0.13385 0.166,-0.15182 0.35403,-0.21849 0.41785,-0.14818 0.11219,0.12364 2.8968,-0.49705 3.58854,-0.79988 0.18732,-0.0821 0.54492,-0.18037 0.79468,-0.21858 0.60667,-0.0928 4.22423,-1.09432 4.65454,-1.2886 0.18732,-0.0845 0.44276,-0.16784 0.56763,-0.18506 0.62579,-0.0863 1.84298,-0.47358 2.04347,-0.6502 0.12487,-0.11002 0.30538,-0.20108 0.40112,-0.20235 0.36863,-0.005 1.66809,-0.36601 2.20996,-0.61415 0.3122,-0.14295 0.64426,-0.28342 0.73792,-0.31214 0.0937,-0.0287 0.19583,-0.0747 0.22705,-0.10212 0.0312,-0.0275 0.27273,-0.0948 0.53668,-0.1496 0.26394,-0.0549 0.77482,-0.2341 1.13526,-0.3983 0.36043,-0.16422 0.73197,-0.32209 0.82563,-0.35082 0.0937,-0.0287 0.22137,-0.0804 0.28381,-0.1148 0.0624,-0.0344 0.21569,-0.0907 0.34059,-0.1251 0.12487,-0.0344 0.27813,-0.0907 0.34056,-0.12511 0.0624,-0.0344 0.19016,-0.083 0.28382,-0.10796 0.0937,-0.025 0.50236,-0.13243 0.90822,-0.2388 0.40584,-0.10638 0.73791,-0.31583 0.73791,-0.46545 0,-0.14961 0.0627,-0.20279 0.13959,-0.11819 0.17798,0.19614 3.08666,-1.00139 3.28311,-1.35168 0.0811,-0.14452 0.18702,-0.24392 0.23549,-0.22091 0.19997,0.0949 1.33694,-0.3175 1.33694,-0.48494 0,-0.0998 0.12771,-0.18284 0.28381,-0.18461 0.15609,-0.002 2.23564,-1.03389 4.62121,-2.29359 2.38556,-1.25969 4.38792,-2.29037 4.44966,-2.29037 0.16714,0 0.3741,4.85974 0.49658,11.66106 l 0.1086,6.03134 -0.56565,-0.0684 c -0.96065,-0.11621 -2.97298,2.24748 -3.17888,3.73394 -0.0408,0.29449 -0.10213,0.75767 -0.13632,1.02928 -0.0863,0.68522 -2.72741,3.71038 -4.06553,4.65664 -0.60791,0.42987 -1.10528,0.90121 -1.10528,1.04743 0,0.14619 -0.0602,0.1994 -0.13393,0.11823 -0.15006,-0.16536 -4.93162,2.54839 -5.05089,2.86661 -0.0418,0.11177 -0.16194,0.14477 -0.26679,0.0733 -0.23682,-0.16129 -1.35993,0.38332 -1.35993,0.65944 0,0.11122 -0.14009,0.14297 -0.3113,0.0706 -0.17122,-0.0723 -0.4522,0.0156 -0.62439,0.1955 -0.17221,0.17992 -0.41527,0.33149 -0.54015,0.33678 -0.53591,0.0228 -2.15699,0.71452 -2.15699,0.92048 0,0.12395 -0.0842,0.16805 -0.18701,0.098 -0.10285,-0.0701 -0.80242,0.0837 -1.5546,0.34168 -0.75216,0.25799 -2.63484,0.76892 -4.18372,1.13544 -1.54888,0.36649 -2.9694,0.72577 -3.15671,0.79839 -0.18734,0.0726 -0.74927,0.17596 -1.24879,0.22967 -0.49951,0.0537 -1.06146,0.17004 -1.24878,0.25851 -0.18732,0.0885 -0.5607,0.13746 -0.82976,0.10888 -0.26904,-0.0286 -0.55708,0.0692 -0.64008,0.21709 -0.0829,0.14797 -0.23175,0.214 -0.33056,0.1467 -0.0988,-0.0673 -0.98577,0.0489 -1.97101,0.25819 -0.98525,0.2093 -2.06562,0.3739 -2.40082,0.36577 -0.33519,-0.008 -0.67432,0.10087 -0.7536,0.24222 -0.0793,0.14137 -0.2303,0.19834 -0.3356,0.12662 -0.10529,-0.0717 -1.5542,0.0868 -3.21979,0.35229 -1.66558,0.26547 -3.71801,0.56061 -4.56093,0.65588 l -1.53259,0.1732 z"
           id="path830"
           inkscape:connector-curvature="0" />
        <path
           inkscape:connector-curvature="0"
           id="path1598"
           d="m -894.47748,439.35638 0.27589,-11.15443 8.74292,-1.92524 c 11.88825,-2.61787 20.50329,-5.50385 29.28691,-9.81095 4.06143,-1.99154 7.54843,-3.62099 7.74888,-3.62099 0.85581,0 0.27402,15.88288 -0.62383,17.02986 -0.54353,0.69436 -1.97757,2.90879 -3.18672,4.92094 -4.0118,6.67603 -16.9049,11.74125 -38.35831,15.06958 l -4.16164,0.64564 z"
           style="fill:#fbdeb2;fill-opacity:1;stroke:none;stroke-width:1.00767934px;stroke-linecap:butt;stroke-linejoin:miter;stroke-opacity:1" />
      </g>
      <g
         id="g1700"
         transform="matrix(0.02880459,0,0,-0.03320629,183.59509,-282.3018)"
         style="fill:#000000;stroke:none">
        <path
           id="path1698"
           d="m 2123,3195 c -11,-8 -58,-58 -102,-110 -81,-95 -82,-95 -67,-124 14,-26 58,-51 92,-51 7,0 25,12 39,27 l 25,28 v -26 c 0,-14 -7,-77 -15,-140 -37,-281 -107,-539 -223,-819 -56,-137 -86,-194 -200,-392 -12,-21 -31,-55 -43,-75 -54,-96 -257,-373 -375,-513 C 1146,872 949,665 852,577 754,489 594,377 504,336 397,285 385,281 340,271 c -62,-14 -108,-13 -155,4 -51,18 -67,18 -89,2 -18,-13 -18,-15 -2,-39 9,-14 40,-36 69,-49 65,-28 183,-30 277,-6 60,16 228,89 240,105 3,4 25,21 49,37 220,149 422,346 686,671 134,164 343,461 363,514 3,8 26,49 50,90 220,374 383,907 409,1337 l 6,102 35,-30 c 50,-44 80,-54 103,-33 11,10 19,24 19,32 0,14 -59,93 -113,151 -44,47 -123,65 -164,36 z"
           inkscape:connector-curvature="0" />
      </g>
      <text
         xml:space="preserve"
         style="font-style:normal;font-variant:normal;font-weight:bold;font-stretch:normal;font-size:3.7831986px;line-height:0%;font-family:'DejaVu Sans';-inkscape-font-specification:'DejaVu Sans Bold';text-align:start;letter-spacing:0px;word-spacing:0px;writing-mode:lr-tb;text-anchor:start;display:inline;fill:#000000;fill-opacity:1;stroke:none;stroke-width:0.31526655"
         x="175.28424"
         y="-266.33444"
         id="text3053-3-2"
         transform="scale(1.0407029,0.96088902)"><tspan
           sodipodi:role="line"
           id="tspan3055-6-7"
           x="175.28424"
           y="-265.35168"
           style="font-size:15.13279438px;line-height:1.25;stroke-width:0.31526655" /><tspan
           id="tspan1133-9"
           sodipodi:role="line"
           x="175.28424"
           y="-252.94547"
           style="font-size:15.13279438px;line-height:1.25;stroke-width:0.31526655">--pop-by-name</tspan></text>
      <text
         xml:space="preserve"
         style="font-style:normal;font-variant:normal;font-weight:bold;font-stretch:normal;font-size:3.7831986px;line-height:0%;font-family:'DejaVu Sans';-inkscape-font-specification:'DejaVu Sans Bold';text-align:start;letter-spacing:0px;word-spacing:0px;writing-mode:lr-tb;text-anchor:start;display:inline;fill:#000000;fill-opacity:1;stroke:none;stroke-width:0.31526655"
         x="350.51648"
         y="-497.91714"
         id="text3053-3-2-3"
         transform="scale(1.0407029,0.96088901)"><tspan
           sodipodi:role="line"
           id="tspan3055-6-7-6"
           x="350.51648"
           y="-496.93439"
           style="font-size:15.13279438px;line-height:1.25;stroke-width:0.31526655" /><tspan
           id="tspan1133-9-0"
           sodipodi:role="line"
           x="350.51648"
           y="-484.52817"
           style="font-size:15.13279438px;line-height:1.25;stroke-width:0.31526655">POP</tspan></text>
      <g
         id="g2155"
         transform="matrix(0.24432878,0,0,0.19605893,-48.143176,-563.01672)">
        <g
           id="g2127">
          <path
             sodipodi:nodetypes="cccccsssssssccscssscsccsscssssssccsccssssssssccccscssssccsccscccsccssc"
             inkscape:connector-curvature="0"
             id="path3255-3"
             d="m 2121.4452,291.22157 c 19,-0.65868 33.0642,-1.25288 35.137,-1.3202 2.0727,-0.0676 6.8777,-0.38644 10.6777,-0.70909 3.8,-0.32252 15.9538,-0.95403 27.0084,-1.40306 11.0545,-0.44917 22.6718,-1.13082 25.8161,-1.5147 9.6053,-1.17314 63.2347,-2.71406 88.2243,-2.53496 21.6361,0.15503 60.7117,3.71688 63.2823,5.76834 5.4599,4.35744 6.8826,8.16935 7.687,20.5972 0.4509,6.9654 0.8019,14.79331 0.78,17.39532 -0.048,5.62114 -3.6672,39.43802 -5.8598,54.74349 -1.1181,7.80439 -1.4807,32.57724 -1.3032,89.0244 0.274,87.06973 -0.1155,83.31621 8.6603,83.31621 6.0952,0 9.9254,1.99564 13.1328,6.84253 2.1564,3.25853 2.545,4.86704 1.5734,6.51434 -1.0607,1.79884 -3.1656,2.10364 -11.8451,1.71544 l -10.555,-0.47215 -2.1561,4.86514 c -2.2113,4.98963 -4.8627,6.16344 -7.1726,3.17553 -0.7183,-0.92929 -2.3471,-3.15769 -3.6192,-4.95206 -2.0628,-2.90951 -3.4558,-3.31367 -12.8756,-3.73593 -5.8094,-0.26034 -23.2816,0.14841 -38.8271,0.9082 -15.5455,0.75992 -34.4828,1.68812 -42.0828,2.06281 -7.6,0.37483 -16.6447,0.96687 -20.0992,1.31574 -20.5785,2.07876 -103.1085,4.70713 -124.9922,3.98073 -41.6957,-1.384 -59.477,-3.97276 -64.2962,-9.3606 -3.7893,-4.2362 -6.0498,-11.49667 -4.5511,-14.61759 0.7549,-1.57229 0.4577,-8.271 -0.8398,-18.92368 -1.1046,-9.06944 -2.8256,-27.43865 -3.8245,-40.82039 -2.1719,-29.09394 -5.1327,-60.21946 -6.8792,-72.31547 -3.4699,-24.03132 -6.6167,-64.19182 -6.9937,-89.25338 -0.2295,-15.2633 -0.7903,-28.79711 -1.246,-30.07513 -2.3334,-6.54286 1.0382,-7.47918 30.2171,-8.39116 11.0545,-0.3455 35.6447,-1.16705 54.6448,-1.82587 m -5.6897,14.61773 c -12.091,0.7164 -27.2856,1.64568 -37.6493,2.06498 -10.3637,0.41929 -21.2326,1.11312 -24.1532,1.54187 l -5.3101,0.77966 0.6867,24.51954 c 0.8253,29.47227 0.8404,29.71571 3.5141,56.96013 1.1672,11.89488 2.6653,23.49509 3.3287,25.7781 0.6635,2.283 1.2064,6.88375 1.2064,10.22365 0,3.33989 0.9014,13.02881 2.003,21.53109 1.1019,8.50213 2.2191,19.41217 2.4831,24.24447 0.2639,4.83229 0.7664,10.61077 1.1165,12.84106 0.3501,2.23029 1.5167,14.69964 2.5925,27.70967 2.7813,33.63521 3.7126,40.63197 5.5732,41.86917 8.5303,5.67278 55.873,7.40349 125.0421,4.57102 v 2.7e-4 c 14.5092,-0.59407 27.2282,-0.95538 28.2646,-0.80291 1.0364,0.15261 12.0596,-0.61786 24.496,-1.71205 25.6074,-2.253 76.9198,-4.70361 98.7721,-4.71713 11.0552,-0.0135 14.9654,-0.47417 16.0823,-1.92224 1.0837,-1.40522 1.2803,-10.10862 0.7402,-32.77851 -2.2199,-93.18342 -1.7019,-124.27313 2.5752,-154.54506 0.998,-7.06259 2.1789,-22.93658 2.6245,-35.27549 0.6667,-18.46167 0.4983,-22.65029 -0.9506,-23.65378 -1.8418,-1.27573 -16.0024,-4.30933 -20.9748,-4.49343 -2.6125,-0.0973 -2.8077,0.3267 -2.0786,4.50857 0.6918,3.96789 0.3472,4.93799 -2.4555,6.9139 -3.9473,2.78299 -4.1278,5.84295 -0.6275,10.63105 4.4696,6.11424 0.021,10.36855 -5.8471,5.59235 -3.1695,-2.57957 -7.3763,-2.5989 -9.3475,-0.0433 -1.6452,2.13284 -9.449,2.81531 -10.5367,0.92145 -0.3495,-0.60839 0.729,-4.27486 2.3966,-8.14772 1.8185,-4.2235 2.9229,-9.05525 2.7595,-12.0729 -0.2715,-5.01437 -0.2555,-5.0314 4.7525,-5.05262 6.9631,-0.0297 11.3652,-1.80748 9.4839,-3.83002 -1.9294,-2.0743 -82.4626,-1.90886 -109.9802,0.226 -11.0546,0.85752 -34.7968,2.17961 -52.7605,2.93777 -17.9637,0.7583 -42.5539,1.96482 -54.6448,2.68135"
             style="fill:#161616;stroke-width:1.30307257" />
          <path
             inkscape:connector-curvature="0"
             id="path3253"
             d="m 2170.5717,542.71762 c -0.3327,-0.57933 -1.5143,-11.37597 -2.6257,-23.99251 -2.0983,-23.8218 -6.228,-55.79133 -8.3192,-64.4016 -2.0785,-8.55877 -3.9157,-33.49909 -3.8379,-52.10066 0.064,-15.18206 0.4579,-18.67659 2.6229,-23.24314 1.4016,-2.95601 2.0652,-5.69589 1.4748,-6.08856 -0.5904,-0.39266 -5.8151,-0.10137 -11.6104,0.64881 -31.4153,4.06265 -45.6807,4.9622 -51.8281,3.26785 -6.2764,-1.72989 -9.1218,-4.38921 -7.0649,-6.6026 1.5286,-1.64474 31.9783,-5.64994 51.6222,-6.79022 8.5672,-0.49729 23.2082,-1.8994 32.5354,-3.11579 13.4686,-1.75638 29.6818,-2.22948 78.7804,-2.29868 57.2659,-0.0811 61.9836,0.0879 64.0215,2.27841 6.0713,6.52826 -9.0715,9.93628 -36.6528,8.2491 -23.6135,-1.44455 -73.0665,-0.84657 -92.959,1.12393 -8.2908,0.82129 -16.7227,1.55742 -18.7374,1.63582 -4.7445,0.18464 -5.4141,2.56807 -1.4973,5.32958 l 3.0977,2.18393 -0.6824,18.02155 c -0.6654,17.57564 1.1197,50.23466 3.3399,61.10225 7.7323,37.84844 9.6166,73.75935 4.3261,82.44735 -2.0323,3.33759 -4.8122,4.42314 -6.0058,2.34518 z"
             style="fill:#161616;stroke-width:1.30307257" />
          <path
             inkscape:connector-curvature="0"
             id="path3251"
             d="m 2108.5636,523.49887 c -7.2311,-0.54094 -9.6538,-1.30127 -11.9166,-3.73918 -4.0145,-4.32528 -1.8336,-7.79142 4.8126,-7.64881 9.9274,0.21316 28.7985,3.55265 30.5816,5.4119 4.5976,4.79336 -5.3712,7.33089 -23.4776,5.97609 z"
             style="fill:#161616;stroke-width:1.30307257" />
          <path
             inkscape:connector-curvature="0"
             id="path3249"
             d="m 2096.8922,497.98597 c -3.76,-3.37747 -4.1014,-4.16861 -2.6252,-6.08261 1.3322,-1.72705 4.0719,-2.20001 12.7462,-2.20001 12.5733,0 15.0234,0.65787 15.0234,4.03412 0,3.45993 -2.2,4.82865 -10.5732,6.57814 -9.8994,2.06836 -9.6269,2.11189 -14.5712,-2.32964 z"
             style="fill:#161616;stroke-width:1.30307257" />
          <path
             inkscape:connector-curvature="0"
             id="path3247"
             d="m 2088.0408,476.50503 c -6.2707,-6.02881 -4.6287,-7.91712 7.8298,-9.00375 15.0324,-1.311 32.447,1.83614 32.447,5.86378 0,2.71406 -3.9114,4.06953 -13.8607,4.80391 -5.8494,0.43159 -13.2612,1.12285 -16.4708,1.53606 -5.1821,0.66719 -6.2955,0.30886 -9.9453,-3.2 z"
             style="fill:#161616;stroke-width:1.30307257" />
          <path
             inkscape:connector-curvature="0"
             id="path3245"
             d="m 2098.7968,461.70794 c -6.9224,-1.94455 -12.3471,-10.16175 -7.8512,-11.89313 0.8636,-0.33265 7.3695,-0.83278 14.4576,-1.11149 13.6461,-0.53649 17.2825,0.59582 16.4559,5.12466 -0.5396,2.95629 -2.2303,3.94316 -10.5002,6.12965 -9.2281,2.43967 -9.8163,2.52158 -12.5621,1.75031 z"
             style="fill:#161616;stroke-width:1.30307257" />
          <path
             inkscape:connector-curvature="0"
             id="path3243"
             d="m 2085.3242,437.58376 c -4.8312,-2.82111 -6.7804,-7.09286 -4.4034,-9.65053 1.5777,-1.69759 4.2401,-1.7622 18.6516,-0.45322 18.2126,1.65447 22.4048,3.39207 18.45,7.64746 -1.2988,1.39751 -5.6185,2.5989 -11.889,3.30637 -13.8002,1.55702 -16.9042,1.43023 -20.8092,-0.85008 z"
             style="fill:#161616;stroke-width:1.30307257" />
          <path
             inkscape:connector-curvature="0"
             id="path3241"
             d="m 2075.2627,418.14496 c -6.9334,-6.71615 -4.3453,-7.73424 24.5373,-9.65229 17.581,-1.16746 25.263,-1.22991 26.2081,-0.21316 4.1192,4.43246 -6.9961,9.1477 -27.6777,11.74119 -9.2023,1.15394 -17.234,2.0981 -17.8483,2.0981 -0.6142,0 -2.963,-1.78829 -5.2194,-3.97384 z"
             style="fill:#161616;stroke-width:1.30307257" />
        </g>
      </g>
      <path
         style="fill:#fdfdd2;fill-opacity:1;stroke:none;stroke-width:0.59157223px;stroke-linecap:butt;stroke-linejoin:miter;stroke-opacity:1"
         d="m 459.23181,-453.70752 c -1.99386,-0.34562 -2.47954,-1.46277 -3.0458,-7.00588 -0.39322,-3.84924 -1.95011,-16.37432 -3.23548,-26.02918 -0.30322,-2.27755 -0.68597,-6.58984 -0.85056,-9.58286 l -0.29925,-5.44184 2.4738,-0.31375 c 6.97646,-0.88479 71.35975,-2.58491 65.68647,-1.73454 -1.46257,0.21923 -1.91896,0.61963 -2.13472,1.87284 -0.15095,0.87669 -0.46803,2.04513 -0.70464,2.59652 -0.37902,0.88328 0.004,0.99639 3.2169,0.95083 3.24939,-0.0461 3.61577,-0.17148 3.35987,-1.15006 -0.15797,-0.60409 0.0206,-1.76195 0.39676,-2.57303 0.69784,-1.50457 1.856,-1.78737 4.46284,-1.08974 1.39292,0.37277 1.40756,0.45286 1.05319,5.75975 -0.19765,2.95995 -0.64512,7.9107 -0.99439,11.00167 -0.39838,3.52556 -0.48358,10.41494 -0.22864,18.48663 0.34087,10.79251 0.27346,12.87287 -0.41817,12.90499 -20.04763,0.93119 -28.6776,1.19202 -46.07983,1.39274 -11.55045,0.13323 -21.74671,0.11294 -22.65835,-0.0451 z m 25.14537,-4.63959 c 0.5806,-2.05418 0.14494,-7.09867 -1.12399,-13.0146 -0.48851,-2.27754 -0.99652,-7.18759 -1.1289,-10.9112 -0.13706,-3.8551 -0.51004,-6.93666 -0.86625,-7.1568 -1.09332,-0.67571 8.0622,-1.1578 22.16586,-1.16715 13.20224,-0.009 15.75378,-0.30001 14.88882,-1.69952 -0.93621,-1.51482 -50.08217,-0.20644 -55.53191,1.47839 -0.8904,0.27527 -0.94086,0.48095 -0.30578,1.24619 0.64835,0.7812 1.89812,0.85749 8.46658,0.51681 l 7.70594,-0.39969 -0.21266,4.68306 c -0.14247,3.1372 0.28225,7.68561 1.28667,13.77906 0.82464,5.00281 1.66863,10.37642 1.87552,11.94135 0.28832,2.18074 0.59834,2.80254 1.32734,2.66208 0.52313,-0.1008 1.17687,-0.98189 1.45276,-1.95798 z m -11.4468,-2.3787 c 0.79381,-0.7938 -1.3096,-1.55319 -5.20727,-1.87995 -3.99514,-0.33495 -4.27845,-0.28203 -4.07746,0.76164 0.13003,0.67518 0.9195,1.28392 1.9835,1.52942 1.8032,0.41605 6.75276,0.13736 7.30123,-0.41111 z m -3.13356,-4.67181 c 1.65734,-1.21187 0.61855,-1.82752 -3.02382,-1.79214 -3.59063,0.0349 -4.31727,0.42355 -3.23345,1.72948 0.9453,1.13902 4.73339,1.17695 6.25727,0.0627 z m -0.70803,-3.67821 c 2.92071,-0.40032 3.68802,-1.59928 1.4136,-2.2088 -2.20475,-0.59085 -8.6286,-0.41697 -9.03749,0.24463 -0.65607,1.06154 0.96338,2.34037 2.96375,2.34037 1.05352,0 3.15059,-0.16929 4.66014,-0.3762 z m 1.13928,-4.28911 c 1.15305,-1.15305 -0.36153,-1.84199 -4.04949,-1.84199 -3.90622,0 -4.71428,0.60548 -3.07084,2.30099 0.82328,0.84936 6.15572,0.50561 7.12033,-0.459 z m -1.20461,-3.98605 c 2.78814,-0.81322 0.15673,-1.96507 -4.58468,-2.00685 -3.66063,-0.0322 -2.48937,-0.86784 1.90567,-1.35951 3.53485,-0.39544 5.70114,-1.35814 5.1312,-2.28033 -0.26398,-0.42712 -2.31648,-0.49601 -6.32028,-0.21216 -7.40455,0.52496 -7.89892,0.68761 -6.56617,2.16029 0.55252,0.61053 1.42919,1.13106 1.94815,1.15675 0.61152,0.0303 0.68334,0.1517 0.2041,0.34508 -1.19212,0.48104 -0.85041,1.9661 0.59157,2.57089 1.23854,0.51946 5.30498,0.32162 7.69044,-0.37416 z"
         id="path2157"
         inkscape:connector-curvature="0" />
      <text
         id="text1137"
         y="455.51312"
         x="-360.74921"
         style="font-style:normal;font-variant:normal;font-weight:bold;font-stretch:normal;font-size:36px;line-height:125%;font-family:'DejaVu Sans';-inkscape-font-specification:'DejaVu Sans Bold';text-align:start;letter-spacing:0px;word-spacing:0px;writing-mode:lr-tb;text-anchor:start;fill:#000000;fill-opacity:1;stroke:none;stroke-width:0.75px;stroke-linecap:butt;stroke-linejoin:miter;stroke-opacity:1"
         xml:space="preserve"><tspan
           style="stroke-width:0.75px"
           y="487.36469"
           x="-360.74921"
           id="tspan1135"
           sodipodi:role="line" /><tspan
           id="tspan1139"
           style="stroke-width:0.75px"
           y="532.36469"
           x="-360.74921"
           sodipodi:role="line" /></text>
      <text
         xml:space="preserve"
         style="font-style:normal;font-variant:normal;font-weight:bold;font-stretch:normal;font-size:2.41259456px;line-height:0%;font-family:'DejaVu Sans';-inkscape-font-specification:'DejaVu Sans Bold';text-align:start;letter-spacing:0px;word-spacing:0px;writing-mode:lr-tb;text-anchor:start;display:inline;fill:#000000;fill-opacity:1;stroke:none;stroke-width:0.20104955"
         x="156.56393"
         y="-276.06079"
         id="text3053-3-2-2"
         transform="scale(0.96943274,1.0315311)"><tspan
           sodipodi:role="line"
           id="tspan3055-6-7-3"
           x="156.56393"
           y="-275.43408"
           style="font-size:9.65037823px;line-height:1.25;stroke-width:0.20104955" /><tspan
           id="tspan1133-9-7"
           sodipodi:role="line"
           x="156.56393"
           y="-267.52246"
           style="font-style:normal;font-variant:normal;font-weight:normal;font-stretch:normal;font-size:9.65037823px;line-height:1.25;font-family:'DejaVu Sans';-inkscape-font-specification:'DejaVu Sans';stroke-width:0.20104955">alice</tspan></text>
    </g>
  </g>
</svg>

