<?xml version="1.0" encoding="UTF-8" standalone="no"?>
<!-- Created with Inkscape (http://www.inkscape.org/) -->
<!-- Copyright (C) 2001-2023 Graeme Walker <graeme_walker@users.sourceforge.net>. All rights reserved. -->

<svg
   xmlns:dc="http://purl.org/dc/elements/1.1/"
   xmlns:cc="http://creativecommons.org/ns#"
   xmlns:rdf="http://www.w3.org/1999/02/22-rdf-syntax-ns#"
   xmlns:svg="http://www.w3.org/2000/svg"
   xmlns="http://www.w3.org/2000/svg"
   xmlns:sodipodi="http://sodipodi.sourceforge.net/DTD/sodipodi-0.dtd"
   xmlns:inkscape="http://www.inkscape.org/namespaces/inkscape"
   id="svg3036"
   version="1.1"
   inkscape:version="0.92.4 (5da689c313, 2019-01-14)"
   width="1650"
   height="1023"
   sodipodi:docname="serverclient.svg"
   inkscape:export-filename="/home/graeme/src/gnetapps/emailrelay/doc/graphics/serverclient.png"
   inkscape:export-xdpi="17.97846"
   inkscape:export-ydpi="17.97846">
  <metadata
     id="metadata3042">
    <rdf:RDF>
      <cc:Work
         rdf:about="">
        <dc:format>image/svg+xml</dc:format>
        <dc:type
           rdf:resource="http://purl.org/dc/dcmitype/StillImage" />
        <dc:title />
      </cc:Work>
    </rdf:RDF>
  </metadata>
  <defs
     id="defs3040" />
  <sodipodi:namedview
     pagecolor="#ffffff"
     bordercolor="#666666"
     borderopacity="1"
     objecttolerance="10"
     gridtolerance="10"
     guidetolerance="10"
     inkscape:pageopacity="0"
     inkscape:pageshadow="2"
     inkscape:window-width="1135"
     inkscape:window-height="803"
     id="namedview3038"
     showgrid="false"
     inkscape:zoom="0.23040183"
     inkscape:cx="964.09848"
     inkscape:cy="499.69607"
     inkscape:window-x="258"
     inkscape:window-y="181"
     inkscape:window-maximized="0"
     inkscape:current-layer="layer4" />
  <g
     inkscape:groupmode="layer"
     id="layer4"
     inkscape:label="shapes"
     style="display:inline">
    <g
       id="g3077"
       transform="translate(-98.507452,-4.2829325)">
      <path
         inkscape:connector-curvature="0"
         id="path8383"
         d="m 796.72964,795.46886 c -28.15885,-3.38238 -59.1579,-11.17271 -61.86084,-15.54616 -2.20379,-3.5658 8.71818,-13.34277 22.9771,-20.56831 25.09227,-12.71522 45.18971,-16.19287 101.68928,-17.59629 33.25313,-0.82599 51.36777,-0.44355 50.43555,1.06481 -2.37712,3.84628 13.62809,9.99402 40.02177,15.37271 25.26262,5.14819 38.36132,10.66518 38.36132,16.15724 0,4.07519 -19.98438,13.93218 -35.17153,17.34782 -36.35998,8.17747 -105.81755,9.85036 -156.45265,3.76818 z"
         style="fill:#fee3fc;fill-opacity:1;stroke:none;display:inline" />
      <path
         inkscape:connector-curvature="0"
         id="path8385"
         d="m 822.19868,957.94987 c -40.05573,-5.90283 -65.51346,-15.0004 -72.70993,-25.98359 -2.01682,-3.07806 -4.30035,-10.43745 -5.07452,-16.3542 -1.2898,-9.85762 -5.37106,-116.6071 -4.51748,-118.15939 0.20392,-0.37085 3.52386,0.58097 7.37763,2.11514 14.99739,5.97043 40.58646,9.39838 90.43437,12.11472 58.32742,3.17842 97.18218,0.81229 128.48792,-7.82447 9.82609,-2.71087 18.76955,-4.01783 19.87437,-2.90436 4.88343,4.92165 10.38147,122.45861 5.915,126.45076 -6.16256,5.50812 -47.00687,18.9145 -80.03933,26.27141 -16.45108,3.66395 -74.97521,6.45099 -89.74803,4.27398 z"
         style="fill:#fee3fc;fill-opacity:1;stroke:none;display:inline" />
      <path
         sodipodi:nodetypes="cscscsscssccsccscsccsssccsssscssscccsssscssccccsccccscccssccssssscsccsscssssscccccscc"
         style="fill:#161616"
         d="m 871.23286,728.31478 c -33.8154,-0.047 -63.70282,1.7376 -78.49995,5.0313 -14.69211,3.2703 -34.44393,9.4876 -43.9375,13.8437 -7.12982,3.2714 -18.3797,11.3106 -21.8125,15.5938 -5.56118,6.9387 -4.6923,18.7403 1.65625,25.7812 -0.49009,1.7206 -0.5,5.7969 -0.5,15.9375 0,39.5719 0.99004,70.7154 2.6875,85.81249 0.97688,8.6883 2.01698,16.1781 2.3125,16.6563 0.29552,0.4781 0.0157,3.1895 -0.59375,6.0312 -2.39006,11.1445 3.85236,24.6775 15.78125,34.2813 11.08521,8.9246 32.85571,17.6749 50.3125,20.2187 2.475,0.3607 5.85,1.0603 7.5,1.5313 3.4844,0.9948 19.8457,2.7077 33.5,3.5312 5.2182,0.3147 9.6951,0.7889 9.9375,1.0313 0.2424,0.2426 1.8107,0.2129 3.5,-0.062 1.6893,-0.2756 9.5875,-0.7583 17.5625,-1.0625 26.8286,-1.0233 40.6891,-2.8183 53.5,-6.9688 2.2,-0.7128 6.7,-1.8498 10,-2.5312 9.7684,-2.017 25.5698,-10.0033 31.1411,-15.221 4.066,-3.8078 4.1245,-5.3302 1.1992,-5.9665 -2.3697,-0.5154 -14.741,1.7444 -16.1216,3.125 -0.6108,0.6108 -2.0931,1.0937 -3.3125,1.0937 -1.2194,0 -4.1794,0.8402 -6.5625,1.8438 -2.3831,1.0036 -8.8437,2.8316 -14.3437,4.0625 -5.5,1.2308 -11.5632,2.625 -13.5,3.125 -3.5549,0.9176 -11.249,2.154 -25,4 -11.9123,1.5992 -39.214,2.0708 -55,0.9375 -16.8428,-1.2091 -41.82599,-5.1938 -50.15625,-8 -3.18066,-1.0715 -6.29629,-1.9688 -6.9375,-1.9688 -0.64122,0 -5.49261,-2.0298 -10.78125,-4.5312 -15.82805,-7.4866 -22.28641,-15.4906 -21.375,-26.4688 0.25114,-3.025 -0.29514,-12.025 -1.21875,-20 -0.92362,-7.975 -1.86849,-25.07499 -2.125,-37.99999 -0.2565,-12.925 -0.75656,-33.6025 -1.09375,-45.9687 l -0.5625,-19.9063 c 5.54399,2.7043 12.59759,5.2719 19.5,6.9688 9.2983,2.2858 12.9371,2.9582 29.84375,5.5312 20.955,3.1891 102.90735,5.6605 123.99995,3.75 34.7729,-3.1497 44.5459,-4.9076 66.5625,-11.9375 7.6722,-2.4497 9.9375,-1.9858 9.9375,2.0313 0,1.5675 0.6481,5.0689 1.4375,7.7812 1.8828,6.4687 3.3933,25.9188 4.0625,51.9375 0.297,11.55 1.0102,29.53239 1.5937,39.93749 1.0839,19.3272 0.7233,26.7042 -1.4062,28.3125 -0.6606,0.4989 -5.6875,2.3881 -11.1875,4.1875 -5.5,1.7995 -14.5603,4.7759 -15.3853,5.5822 -1.3294,1.2992 -2.038,2.1863 0.5115,4.4004 2.7326,2.3727 8.1829,1.202 18.7488,1.0174 6.1516,-0.1075 12.2424,0.2832 13.62504,0.875 3.4046,1.4571 3.4429,1.4474 5.375,-0.6875 1.4486,-1.6006 1.7007,-4.2291 1.7187,-17.5 0.012,-8.5808 -0.2056,-15.9615 -0.5,-16.4375 -0.2941,-0.4761 -0.769,-11.6355 -1.0624,-24.78119 -1.2602,-56.4483 -4.2972,-83.3899 -10.03134,-89.375 l -2.5937,-2.7188 3.5312,-5.25 c 2.9741,-4.4195 3.56254,-6.1375 3.56254,-10.7187 0,-7.999 -4.06084,-15.0163 -12.00004,-20.7813 -4.467,-3.2436 -21.2211,-8.9974 -29.5625,-10.1562 -2.1772,-0.3024 -7.3125,-1.1775 -11.4375,-1.9375 -4.125,-0.7599 -14.1375,-1.5813 -22.25,-1.8125 -12.0828,-0.3444 -14.75,-0.1626 -14.75,0.9687 0,0.7596 0.959,1.375 2.1563,1.375 1.1973,0 4.4598,1.5683 7.25,3.4688 4.4536,3.0335 6.4981,3.6317 16.5937,5.0312 18.9996,2.6339 36.0706,6.4855 42.625,9.5938 6.2374,2.9581 12.375,7.8176 12.375,9.8125 0,0.6028 -1.5607,2.7976 -3.4375,4.875 -3.0046,3.3256 -8.0565,6.1745 -19.0625,10.75 -3.7391,1.5544 -15.3655,4.5382 -22,5.625 -29.0373,4.7569 -42.0633,5.5654 -82,5.25 -38.21815,-0.3018 -49.36885,-0.7147 -60.49995,-2.3438 -3.575,-0.5233 -11,-1.477 -16.5,-2.0937 -23.55531,-2.6414 -48.79512,-9.2846 -53.0625,-14 -2.94091,-3.2497 -1.16978,-8.1774 4.84375,-13.5 5.10326,-4.517 24.14318,-14.5962 30.21875,-16 1.64155,-0.3793 7.05,-2.0297 12,-3.6563 4.94997,-1.6266 11.25,-3.3775 14,-3.9062 8.05,-1.5479 33.3118,-4.6016 45.49995,-5.5 6.4369,-0.4746 59.0867,-0.4045 67.7813,0.094 20.592,1.1801 38.3617,6.1469 41.3575,7.1099 4.696,1.5094 6.2206,0.8867 4.6309,-3.6736 -2.0888,-5.9917 -6.3864,-11.5689 -36.2697,-13.0925 -15.9406,-0.8128 -32.1293,-1.1976 -47.5,-1.2188 z"
         id="path3265"
         inkscape:connector-curvature="0" />
    </g>
    <path
       inkscape:connector-curvature="0"
       id="path3261"
       d="m 809.51867,710.90366 c -1.1478,-2.075 -1.2233,-3.81002 -0.7567,-17.39215 0.285,-8.29787 0.8241,-16.93823 1.1978,-19.20037 0.3736,-2.26231 0.8854,-7.04397 1.1372,-10.62596 0.2518,-3.58199 0.7525,-7.03225 1.1128,-7.66721 0.3603,-0.63514 0.6551,-2.42663 0.6551,-3.98123 0,-1.5545 0.3055,-4.11985 0.6792,-5.70066 0.3734,-1.58091 1.0577,-5.65083 1.5204,-9.04434 0.4624,-3.39343 1.3118,-7.75993 1.8871,-9.70302 0.5755,-1.94336 1.0546,-4.41124 1.0649,-5.48445 0.011,-1.07312 0.8518,-5.65297 1.8703,-10.1776 1.0185,-4.52454 2.1413,-9.61469 2.4954,-11.3114 0.354,-1.69671 1.1796,-5.09014 1.8346,-7.54102 0.6551,-2.45079 1.4983,-5.79008 1.8738,-7.42092 0.3757,-1.63067 1.8433,-6.20658 3.2613,-10.16865 1.4181,-3.96208 2.5784,-7.67312 2.5784,-8.24695 0,-0.57375 0.825,-2.57886 1.8333,-4.45537 1.0083,-1.87686 1.8332,-4.0964 1.8332,-4.93272 0,-0.83632 0.2781,-1.81359 0.6182,-2.17157 0.3402,-0.35833 1.1923,-2.50233 1.8936,-4.76456 0.7014,-2.26241 1.7359,-5.03886 2.2991,-6.16998 1.8521,-3.72044 8.3883,-19.31403 8.3883,-20.0127 0,-0.37615 0.6475,-1.2318 1.4389,-1.90139 0.7914,-0.6695 1.8231,-2.33695 2.2926,-3.70532 0.4694,-1.36827 1.2678,-2.95061 1.774,-3.51612 0.5063,-0.5656 1.1452,-1.79954 1.4201,-2.74227 0.2746,-0.94264 0.778,-2.33087 1.11838,-3.08485 3.5525,-7.86893 3.3839,-9.5388 -0.81378,-8.05741 -1.867,0.65886 -2.698,0.60767 -4.5727,-0.28181 -4.3735,-2.07519 -4.3771,-2.05791 1.6057,-7.65012 3.0999,-2.89736 8.11098,-7.70229 11.13578,-10.67742 6.09397,-5.9943 8.51247,-7.26771 13.80207,-7.26771 2.746,0 4.0176,0.37695 5.4452,1.61376 1.7071,1.47915 1.8997,2.23645 2.3097,9.08344 0.246,4.1084 0.7682,10.24249 1.1605,13.63126 0.6013,5.19494 0.54,6.32364 -0.3908,7.1937 -0.983,0.91901 -1.483,0.84482 -4.5657,-0.67729 -4.6095,-2.27601 -5.9473,-4.91456 -5.9931,-11.82098 -0.019,-2.92215 -0.2989,-5.31298 -0.6212,-5.31298 -0.3223,0 -1.01,1.15689 -1.5282,2.57071 -0.5182,1.41409 -1.6164,3.95903 -2.4404,5.65583 -0.8239,1.69672 -2.6361,5.55292 -4.0271,8.56922 -1.391,3.01639 -3.95437,8.26082 -5.69637,11.65434 -1.7421,3.39334 -3.6837,7.26977 -4.3143,8.61414 -3.19358,6.80646 -7.37068,16.41022 -8.32938,19.15026 -0.5936,1.69671 -1.8736,4.82023 -2.8444,6.94123 -0.9709,2.12074 -1.7654,4.51586 -1.7654,5.3222 0,1.38232 -0.2297,1.95124 -2.3101,5.7166 -0.464,0.83981 -1.289,2.9993 -1.8332,4.79875 -0.5442,1.79955 -1.51,4.89138 -2.1459,6.87107 -1.0553,3.28362 -2.3244,7.87672 -3.9308,14.22496 -0.334,1.31959 -1.1178,4.15485 -1.7417,6.30064 -0.624,2.14553 -1.3453,5.38485 -1.6028,7.19808 -0.2576,1.81342 -0.7596,3.91393 -1.1155,4.66809 -0.9803,2.07724 -6.3493,29.70561 -6.9275,35.64818 -0.1834,1.88528 -1.0228,8.05517 -1.8654,13.71091 -0.8426,5.65565 -1.3916,11.81847 -1.2203,13.69525 0.1714,1.87677 0.034,4.03617 -0.3039,4.79875 -1.1338,2.55424 -2.0168,22.53214 -1.275,28.84423 0.8174,6.95295 0.412,7.72699 -4.3607,8.32543 -2.7893,0.34974 -3.0472,0.23233 -4.2446,-1.93253 z"
       style="fill:#161616" />
    <g
       id="g3084"
       transform="translate(-109.21478,4.2829327)">
      <path
         inkscape:connector-curvature="0"
         id="path8373"
         d="m 841.71978,611.28287 c -1.50722,-10.05087 -6.52768,-31.44385 -10.16233,-43.30329 -1.2586,-4.10668 -0.46844,-4.38993 7.87827,-2.82407 20.21094,3.79159 39.76509,19.15694 39.76509,31.2468 0,7.56344 -3.26312,11.08681 -16.97936,18.33355 -17.3249,9.15332 -18.64457,8.93105 -20.50167,-3.45299 z"
         style="fill:#ddffdd;fill-opacity:1;stroke:none;display:inline" />
      <path
         inkscape:connector-curvature="0"
         id="path8371"
         d="m 737.30189,634.44526 c -43.02876,-4.92699 -52.07592,-20.49217 -24.16114,-41.56803 15.25028,-11.51408 57.55234,-26.39722 75.02829,-26.39722 6.04242,0 10.98623,-1.09153 10.98623,-2.42562 0,-1.33409 3.77649,-2.42562 8.39221,-2.42562 8.22046,0 8.49284,0.32576 13.30839,15.91672 5.95001,19.26389 11.18578,46.60471 9.28819,48.5023 -2.18121,2.18121 -37.70368,7.80685 -57.67064,9.13321 -10.00569,0.66466 -25.83288,0.33358 -35.17153,-0.73574 z"
         style="fill:#ddffdd;fill-opacity:1;stroke:none;display:inline" />
      <path
         sodipodi:nodetypes="ccscssccsccsscccccccsssscssccccsccscccsccccscssccscccscccscccccsccssccccsscccscscscsscsccccccccccscsscsccc"
         style="fill:#161616"
         d="m 838.64586,604.63358 c 0.1908,1.4339 0.7544,0.7968 1.2526,2.9379 0.4981,2.1409 1.3223,6.5036 1.8317,9.6947 0.5094,3.1912 1.1321,6.0549 1.3838,6.3639 0.64,0.7853 2.6838,0.2024 12.1716,-3.4711 12.3781,-4.7927 19.4749,-9.2029 23.9278,-14.8697 1.9691,-2.5059 2.2934,-3.6364 2.263,-7.891 -0.042,-5.9329 -1.6437,-9.5469 -6.9365,-15.6528 -5.3223,-6.1397 -12.582,-10.7976 -22.8806,-14.6802 -8.5458,-3.2218 -21.75212,-6.3138 -23.02662,-5.3913 -0.3597,0.2603 -0.2954,1.3323 0.1429,2.3821 0.4384,1.0501 1.6206,4.8339 2.6271,8.4089 1.0065,3.5749 2.5695,8.986 3.47322,12.0247 1.7356,5.8359 3.1936,12.2483 3.77,16.5819 m -10.62162,-2.5943 c -0.4992,-2.3236 -0.9567,-3.4415 -1.8998,-6.8377 -0.943,-3.3962 -1.726,-6.7599 -1.7399,-7.4748 -0.014,-0.7151 -0.7133,-2.9087 -1.5545,-4.8749 -0.841,-1.9663 -2.3557,-6.7924 -3.3659,-10.7248 -1.0103,-3.9324 -2.3494,-7.5435 -2.9761,-8.0247 -0.8616,-0.6615 -5.09907,-0.6387 -19.27037,-0.8533 -10.30789,-0.156 -20.00569,3.5445 -23.06953,3.2878 -8.07964,-0.677 -6.14479,0.071 -6.50812,-1.7569 -0.15667,-0.7881 1.98992,-2.1729 1.98992,-2.1729 4.48135,-2.3102 13.47245,-5.7553 32.5116,-6.9686 5.3388,-0.3401 9.9206,-0.7807 10.182,-0.9789 0.6932,-0.5256 -3.054,-10.378 -6.5824,-17.3067 -1.0013,-1.9662 -2.7407,-5.6224 -3.8654,-8.1248 -1.1248,-2.5025 -2.8612,-6.1587 -3.8587,-8.1248 -0.9974,-1.9663 -2.413,-4.8912 -3.1455,-6.4999 -0.7325,-1.6088 -3.4123,-6.2326 -5.95513,-10.2751 -2.54277,-4.0427 -4.62328,-7.5269 -4.62328,-7.7428 0,-0.8226 -8.09309,-10.9962 -10.22741,-12.8564 -6.95849,-6.065 -7.78209,-8.9726 -2.62788,-9.277 9.55345,-0.5641 20.0105,11.8684 35.685,42.4262 2.5672,5.0049 5.5899,11.1472 6.7169,13.6497 1.1272,2.5024 2.4459,5.4274 2.9304,6.4998 3.346,7.405 6.003,14.0085 6.4723,16.0856 0.5693,2.5194 3.6094,4.389 7.137,4.389 1.7587,0 11.61582,2.44 19.04712,4.7148 2.5925,0.7937 7.4133,2.8895 10.7128,4.6575 13.9868,7.4944 17.3732,10.3987 23.9494,20.5391 1.7345,2.6745 3.5153,5.3708 3.9572,5.9914 0.442,0.6209 0.8036,1.8467 0.8036,2.7242 0,0.8775 0.3663,1.7672 0.8141,1.977 1.2109,0.5676 0.1252,11.4585 -1.3119,13.1594 -0.669,0.7918 -1.2163,1.9004 -1.2163,2.4633 0,4.624 -13.3032,13.748 -26.5676,18.2216 -1.6498,0.5563 -4.5422,1.5688 -6.4276,2.25 -1.8855,0.6812 -4.8753,1.6764 -6.6441,2.2117 l -3.216,0.9733 0.5604,7.0197 c 0.3081,3.861 0.562,7.7512 0.564,8.6449 0,0.8938 0.5278,4.6563 1.1682,8.3613 0.6404,3.7049 1.104,8.0923 1.0302,9.7497 -0.074,1.6575 0.1162,3.891 0.4223,4.9635 0.3061,1.0724 0.209,4.7286 -0.2158,8.1249 -0.4247,3.396 -0.5767,6.4195 -0.3379,6.7187 0.2388,0.2992 1.6441,-0.3237 3.1229,-1.3844 5.7975,-4.1582 8.431,-4.0841 9.5074,0.2673 0.4032,1.6302 0.1592,2.7814 -0.8326,3.9294 -0.7714,0.893 -1.1712,2.0811 -0.8884,2.6402 0.2829,0.559 -0.044,1.486 -0.7256,2.0599 -2.088,1.7574 -5.9717,10.6595 -6.9207,15.8637 -0.461,2.5282 -0.9752,3.2378 -2.7083,3.7376 -2.9952,0.8635 -7.4385,0.7679 -9.0998,-0.1957 -0.7703,-0.4469 -2.7581,-3.0062 -4.4175,-5.6875 -4.46582,-7.2159 -11.74942,-17.0211 -14.43532,-19.4329 -3.1699,-2.8464 -3.0835,-4.9481 0.2571,-6.2582 1.4462,-0.5673 3.3856,-0.8394 4.3414,-0.6094 2.8251,0.6801 7.589,4.2157 9.49192,7.0445 2.4673,3.6681 5.1147,6.2692 5.9716,5.8674 1.0696,-0.5012 0.8613,-6.9999 -0.6332,-19.7606 -0.7327,-6.2561 -1.5026,-13.5684 -1.7109,-16.2496 -0.6822,-8.7812 -3.0173,-21.1041 -4.16802,-21.9956 -0.939,-0.7274 -1.5584,-0.7006 -3.7593,0.1626 -1.4493,0.5684 -3.5219,1.0369 -4.6059,1.0411 -1.084,0.01 -4.092,0.477 -6.6845,1.0504 -2.5925,0.5734 -7.0275,1.2602 -9.8557,1.526 -2.8281,0.2657 -8.8058,1.0852 -13.2838,1.8208 -7.36775,1.2103 -17.92066,1.8504 -35.99478,2.1835 -10.64805,0.1961 -27.88692,-1.5475 -37.20427,-3.7632 -16.70726,-3.9729 -26.54388,-9.9914 -32.23826,-19.7247 -1.79468,-3.0677 -2.06619,-4.4378 -1.91355,-9.656 0.28007,-9.5718 2.46684,-13.1454 13.60459,-22.2316 4.18868,-3.4171 8.57997,-6.6995 9.75837,-7.2939 19.52403,-9.8501 24.67729,-12.0078 36.42335,-15.2515 10.6387,-2.938 21.5735,-4.5787 33.42377,-5.0149 5.05805,-0.1861 14.74808,0.7979 16.94238,1.7206 1.7468,0.7345 1.4677,0.8502 -3.2301,1.3388 -2.8281,0.2941 -6.22921,0.3816 -7.55793,0.1945 -1.32872,-0.1872 -4.22117,-0.028 -6.42765,0.3528 -2.20648,0.3813 -5.72978,0.8256 -7.82965,0.9873 -2.09978,0.162 -4.41374,0.686 -5.14212,1.1647 -0.72829,0.4786 -4.7952,1.6749 -9.03744,2.6584 -7.28742,1.6893 -29.2093,9.307 -31.50457,10.9474 -0.58423,0.4176 -2.97943,1.783 -5.32278,3.0341 -5.70518,3.0463 -17.80433,12.3473 -20.51491,15.7704 -5.02745,6.3491 -5.89005,8.3511 -5.9383,13.7812 -0.0797,9.0113 3.53915,12.6564 17.26938,17.393 11.60671,4.004 21.03984,5.2043 43.44012,5.5271 15.39542,0.222 18.49277,0.076 30.4242,-1.4392 19.90285,-2.5265 21.42405,-2.7477 26.99605,-3.9237 2.8282,-0.5969 6.4919,-1.3225 8.1417,-1.6122 5.0102,-0.8797 8.6738,-1.8536 9.9166,-2.6357 1.6604,-1.0453 1.1277,-5.2958 -3.1718,-25.3113"
         id="path3259"
         inkscape:connector-curvature="0" />
    </g>
    <path
       inkscape:connector-curvature="0"
       id="path3257"
       d="m 602.27796,432.52548 c 15.97401,6.391 17.99931,6.9368 41.00961,13.2088 1.925,0.5247 6.2,1.3483 9.5,1.8302 3.3,0.4819 9.825,1.5796 14.5,2.4392 17.83747,3.28 56.54521,4.4905 83.63111,2.6152 19.5949,-1.3566 48.1731,-5.2192 59.3689,-8.0242 1.925,-0.4822 5.627,-1.1465 8.2267,-1.476 2.5997,-0.3295 4.9887,-1.0232 5.309,-1.5414 0.3203,-0.5182 1.9863,-0.9422 3.7023,-0.9422 1.716,0 4.502,-0.4155 6.191,-0.9233 1.6891,-0.5078 5.546,-1.4777 8.571,-2.1554 3.025,-0.6776 8.875,-2.3516 13,-3.7199 4.125,-1.3683 9.075,-2.8431 11.00004,-3.2773 5.3321,-1.2027 16.6146,-5.3717 25.3054,-9.3506 4.293,-1.9654 8.4985,-3.5735 9.3457,-3.5735 0.8472,0 2.7347,-0.6123 4.1946,-1.3607 1.4599,-0.7484 7.6043,-3.729 13.6543,-6.6236 15.903,-7.6089 31.0245,-16.4939 43.8243,-25.7501 13.6987,-9.9064 35.6511,-32.5881 41.71338,-43.0994 0.8458,-1.4664 2.681,-4.4662 4.0783,-6.6662 4.0531,-6.3817 10.4319,-19.4825 12.6593,-26 7.4046,-21.6652 9.2579,-33.5212 8.8056,-56.3298 -0.5545,-27.9635 -3.0912,-41.6208 -12.8472,-69.1702 -12.4462,-35.146 -38.33398,-68.37969 -70.23368,-90.162894 -19.7598,-13.4933 -45.5209,-25.7893 -64,-30.548 -3.3,-0.8498 -9.825,-2.6122 -14.5,-3.9165 -19.73684,-5.5063 -37.65074,-7.579 -66.50004,-7.6941 -20.805,-0.083 -24.5747,0.1742 -39.5,2.6948 -16.6511,2.8122 -37.5958,7.4185 -46.1342,10.1462 -2.5488,0.8143 -5.1808,1.4805 -5.8489,1.4805 -0.6681,0 -2.6327,0.6379 -4.3658,1.4176 -1.7331,0.7796 -6.0761,2.4123 -9.65111,3.6281 -3.575,1.2157 -7.4,2.6922 -8.5,3.281 -1.76298,0.9437 -1.47997,1.1621 2.3881,1.8433 4.89608,0.8623 5.58547,1.2547 4.70551,2.6785 -0.59258,0.9589 -4.78106,2.6321 -23.09246,9.2254 -4.94937,1.7821 -13.94937,5.6049 -20,8.4951 -10.02655,4.7893 -13.66541,6.800004 -28.91174,15.975704 -7.36301,4.4312 -26.94189,19.1179 -34.08941,25.5713 -1.1,0.9932 -4.23798,3.73589 -6.97328,6.09489 -10.58231,9.1265 -32.29146,31.7526 -39.02672,40.6752 -2.2,2.9145 -5.59107,7.1699 -7.53572,9.4565 -8.12985,9.5593 -15.86194,22.0848 -25.00502,40.5063 -17.24179,34.7388 -21.21508,68.6397 -11.54015,98.463 3.88903,11.988 11.95767,28.5452 18.36622,37.6881 18.11851,25.8493 47.76836,47.9125 83.71467,62.2942 m -0.81538,8.4516 c -35.55321,-14.6977 -61.63316,-33.5314 -81.60544,-57.9645 -13.88533,-16.9867 -18.78696,-25.1602 -25.05631,-41.7813 -1.76337,-4.675 -3.8399,-9.9778 -4.6145,-11.7839 -0.7746,-1.8062 -1.40837,-4.5894 -1.40837,-6.1849 0,-1.5956 -0.49266,-4.1678 -1.09481,-5.7161 -1.51337,-3.8914 -2.19029,-27.2119 -1.05412,-36.3151 1.34654,-10.7888 4.16023,-25.3075 5.13336,-26.4884 0.45852,-0.5564 1.79409,-3.9366 2.96793,-7.5116 1.17383,-3.575 3.51454,-9.425 5.20156,-13 7.93762,-16.8208 8.52886,-17.8653 18.54657,-32.7651 2.86027,-4.2542 6.46027,-9.6918 8,-12.0835 4.2959,-6.673 23.35565,-28.3363 36.23671,-41.1866 32.32046,-32.24309 57.53908,-49.361494 97.0628,-65.885894 4.44028,-1.8564 8.92787,-4.5997 11,-6.7243 3.84614,-3.9435 7.17902,-5.6069 9.4718,-4.727 0.83531,0.3205 3.58332,-0.9597 6.25868,-2.9158 6.17055,-4.5115 15.18643,-8.5345 28.26953,-12.6144 5.775,-1.8009 11.85,-3.8838 13.5,-4.6286 3.292,-1.4861 26.9165,-6.5352 32.5,-6.9461 1.925,-0.1416 6.65,-0.8343 10.5,-1.5393 10.3175,-1.8894 54.2348,-1.6505 66.5,0.3617 5.225,0.8572 12.425,2.0415 16,2.6318 12.4944,2.0632 30.66524,7.385 47.00004,13.7651 50.4688,19.7124 88.0026,51.695504 113.19828,96.457794 5.8626,10.4154 13.6377,28.0067 16.707,37.8002 4.3293,13.8135 5.0947,16.5219 5.0947,18.0278 0,0.9336 0.8805,5.2468 1.9567,9.5848 2.5122,10.1268 4.27,34.7721 3.4868,48.8874 -1.0134,18.2659 -6.2292,40.5191 -12.7737,54.4988 -1.509,3.2234 -11.991,21.2673 -15.4804,26.6485 -9.1235,14.0694 -27.26238,32.4805 -41.32188,41.9418 -2.8287,1.9036 -6.7686,4.7071 -8.7553,6.2299 -1.9867,1.5229 -4.7372,3.3099 -6.1122,3.9712 -1.375,0.6613 -5.2,2.9871 -8.5,5.1685 -3.3,2.1814 -7.125,4.4328 -8.5,5.0031 -1.375,0.5704 -3.175,1.4686 -4,1.9962 -1.9517,1.248 -13.8635,7.042 -14.4776,7.042 -0.2598,0 -3.5211,1.4069 -7.2474,3.1265 -3.7262,1.7196 -9.7,4.1751 -13.275,5.4568 -3.575,1.2817 -8.975,3.2999 -12,4.4849 -3.025,1.185 -7.525,2.7454 -10,3.4677 -2.475,0.7222 -7.2,2.1976 -10.5,3.2785 -3.30004,1.081 -8.47504,2.5244 -11.50004,3.2076 -3.025,0.6833 -6.3958,1.7066 -7.4907,2.2741 -2.0349,1.0548 -15.878,4.1736 -25.2028,5.6781 -2.8565,0.4609 -5.5827,1.0784 -6.0582,1.3724 -3.6903,2.2807 -78.4885,10.1442 -89.7483,9.4352 -1.65,-0.1039 -6.825,-0.3049 -11.5,-0.4467 -42.75848,-1.2969 -82.19252,-8.9163 -113.825,-21.9931"
       style="fill:#161616"
       sodipodi:nodetypes="csscscsssccsscsssscccssssssscsccsccssssssssssccsscssscsssssssccsccsscsssscsscscssccssssccccscssc" />
    <path
       inkscape:connector-curvature="0"
       id="path3237"
       d="m 427.65396,236.34865 c -1.10573,-1.144 -1.00944,-2.6234 0.45162,-6.9392 2.01524,-5.9527 4.61438,-8.1216 14.00945,-11.6903 2.91041,-1.1055 5.29096,-2.3264 5.29012,-2.7132 -0.003,-0.8314 -18.78218,-7.3615 -27.94735,-9.7176 -3.52273,-0.9055 -7.50884,-2.0212 -8.85803,-2.4792 -3.37916,-1.1471 -28.92486,-7.6813 -41.7339,-10.6749 -11.3129,-2.6439 -17.87451,-3.9512 -36.16607,-7.2057 -6.40496,-1.1396 -15.39711,-2.7566 -19.98254,-3.5933 -19.47722,-3.5541 -75.7205,-5.8316 -84.24351,-3.4113 -2.24174,0.6365 -6.43407,1.2938 -9.3163,1.4605 -12.75843,0.7382 -24.71961,2.9999 -31.828,6.0183 -6.46907,2.747 -9.38205,1.4899 -10.34948,-4.4663 -0.50183,-3.0896 -0.20289,-3.4881 3.63845,-4.8495 2.30186,-0.8159 4.97126,-2.0668 5.932,-2.7798 2.25367,-1.6725 13.22707,-3.5731 19.21486,-3.3279 6.5557,0.2684 21.10052,-1.0802 24.82289,-2.3017 4.28527,-1.4062 22.68641,-1.7936 30.49261,-0.6419 3.52272,0.5197 11.94168,1.0611 18.7088,1.203 6.76712,0.142 13.23734,0.7068 14.37827,1.255 1.14094,0.5483 4.66753,0.783 7.83689,0.5215 3.76732,-0.3109 7.25626,0.071 10.07699,1.1027 2.373,0.8679 8.6706,2.0463 13.99464,2.6185 5.32405,0.5722 10.7976,1.7125 12.16345,2.5341 1.64591,0.9899 3.89994,1.2991 6.684,0.9168 2.62957,-0.3611 5.86443,0.02 8.64929,1.0194 2.44676,0.8778 5.43669,1.5961 6.64429,1.5961 2.67139,0 36.82976,8.1204 42.93688,10.2073 1.60123,0.5472 6.31761,1.7946 10.48083,2.772 8.76775,2.0585 21.79085,5.4915 24.74641,6.5232 1.23261,0.4303 2.03794,0.2616 2.03794,-0.4269 0,-0.6261 -0.91707,-1.4314 -2.03794,-1.7895 -2.528,-0.8076 -8.72909,-4.4395 -9.87932,-5.7861 -1.2094,-1.4159 0.23161,-7.7171 2.16684,-9.4751 1.4286,-1.2977 2.0072,-1.2641 4.81371,0.2802 1.75443,0.9654 7.90628,3.8166 13.67073,6.336 15.05616,6.5803 29.66343,14.1659 34.1919,17.756 3.81141,3.0216 7.14398,8.3024 8.7278,13.8299 0.68215,2.3807 0.20529,3.0544 -3.75493,5.3049 -4.14956,2.358 -6.06211,2.6529 -22.4328,3.4581 -20.35168,1.001 -24.58141,1.8302 -30.72671,6.0238 -5.00006,3.4122 -5.57444,3.5294 -7.50478,1.5321 z"
       style="fill:#161616" />
    <path
       inkscape:connector-curvature="0"
       id="path3235"
       d="m 1229.3217,223.92492 c -1.7859,-2.6689 -1.9547,-8.1501 -0.293,-9.5093 2.9037,-2.3749 19.4105,-10.3099 34.1532,-16.4176 3.9408,-1.6327 7.9116,-3.3919 8.8239,-3.9095 0.9124,-0.5176 2.3143,-0.9411 3.1153,-0.9411 0.801,0 3.2787,-0.8585 5.5061,-1.9077 2.2274,-1.0493 5.1245,-2.1378 6.4381,-2.4191 2.2448,-0.4806 9.5918,-3.0192 13.8524,-4.7864 3.1391,-1.3021 15.0054,-4.6431 19.1066,-5.3795 2.1018,-0.3775 4.3542,-1.1471 5.0053,-1.7103 0.6512,-0.5633 3.8755,-1.1275 7.165,-1.2538 3.8871,-0.1493 7.3907,-0.9856 10.0073,-2.3887 2.2145,-1.1874 5.4386,-2.115 7.1651,-2.0614 1.7263,0.054 5.7181,-0.6133 8.8707,-1.4822 3.1526,-0.8688 7.1575,-1.5867 8.8996,-1.5953 1.7423,-0.01 4.0247,-0.4957 5.0723,-1.0826 6.4814,-3.6309 83.6991,-6.6163 120.2527,-4.6492 10.2459,0.5514 20.746,1.0506 23.3335,1.1094 l 4.7045,0.1068 -0.229,-6.6506 c -0.1381,-4.0056 0.1882,-6.9206 0.82,-7.3294 0.5771,-0.3733 2.4322,0.1603 4.1226,1.1858 1.6903,1.0254 5.008,2.4644 7.3724,3.1978 12.3613,3.8339 27.446,10.5812 32.4281,14.505 1.8098,1.4253 3.8975,2.5914 4.6392,2.5914 0.7419,0 3.0227,1.3878 5.0688,3.084 3.6656,3.0391 3.7199,3.1826 3.7199,9.845 0,9.1369 -0.717,9.6913 -17.5752,13.5875 -3.6239,0.8376 -9.1441,2.9485 -12.2672,4.6909 -6.971,3.8892 -8.7127,3.2337 -9.135,-3.4381 -0.2772,-4.3798 -0.1384,-4.6373 4.299,-7.9813 3.9349,-2.9653 9.5661,-5.7018 16.9355,-8.2298 1.5852,-0.5438 1.6516,-0.8189 0.4777,-1.9769 -1.6545,-1.632 -31.5878,-4.8032 -47.7599,-5.0597 -6.0768,-0.096 -11.5537,-0.502 -12.1709,-0.9013 -1.2086,-0.7818 -68.8967,-0.9391 -79.9565,-0.1859 -3.678,0.2506 -11.4162,0.7397 -17.196,1.087 -5.7797,0.3473 -13.518,1.1056 -17.196,1.6851 -3.6781,0.5795 -8.4069,1.1879 -10.5087,1.3519 -4.4832,0.3499 -19.5468,2.977 -22.2833,3.8861 -1.0411,0.3459 -4.1914,1.0529 -7.0008,1.5711 -12.3052,2.27 -38.5323,9.5065 -45.232,12.4803 -1.5763,0.6997 -4.8005,1.8159 -7.165,2.4805 -10.0883,2.8353 -47.084,18.8745 -56.4192,24.4599 -5.2285,3.1284 -7.0556,3.1979 -8.9671,0.3412 z"
       style="fill:#161616" />
    <path
       inkscape:connector-curvature="0"
       id="path3257-3"
       d="m 784.41997,430.56137 c 15.974,6.391 17.9993,6.9368 41.0096,13.2088 1.925,0.5247 6.2,1.3483 9.5,1.8302 3.3,0.4819 9.825,1.5796 14.5,2.4392 17.83745,3.28 56.54515,4.4905 83.63105,2.6152 19.5949,-1.3566 48.1731,-5.2192 59.3689,-8.0242 1.925,-0.4822 5.627,-1.1465 8.22668,-1.476 2.5997,-0.3295 4.9887,-1.0232 5.309,-1.5414 0.3203,-0.5182 1.9863,-0.9422 3.7023,-0.9422 1.716,0 4.502,-0.4155 6.191,-0.9233 1.6891,-0.5078 5.546,-1.4777 8.571,-2.1554 3.025,-0.6776 8.875,-2.3516 13,-3.7199 4.125,-1.3683 9.075,-2.8431 11.0001,-3.2773 5.3321,-1.2027 16.6146,-5.3717 25.3054,-9.3506 4.293,-1.9654 8.4985,-3.5735 9.3457,-3.5735 0.8472,0 2.7347,-0.6123 4.1946,-1.3607 1.4599,-0.7484 7.6043,-3.729 13.6543,-6.6236 15.903,-7.6089 31.0245,-16.4939 43.8243,-25.7501 13.6987,-9.9064 35.6511,-32.5881 41.7134,-43.0994 0.8458,-1.4664 2.681,-4.4662 4.0783,-6.6662 4.0531,-6.3817 10.4319,-19.4825 12.6593,-26 7.4046,-21.6652 9.2579,-33.5212 8.8056,-56.3298 -0.5545,-27.9635 -3.0912,-41.6208 -12.8472,-69.1702 -12.4462,-35.146 -38.334,-68.37969 -70.2337,-90.162891 -19.7598,-13.4933 -45.5209,-25.7893 -64,-30.548 -3.3,-0.8498 -9.825,-2.6122 -14.5,-3.9165 -19.7369,-5.5063 -37.6508,-7.579 -66.50008,-7.6941 -20.805,-0.083 -24.5747,0.1742 -39.5,2.6948 -16.6511,2.8122 -37.5958,7.4185 -46.1342,10.1462 -2.5488,0.8143 -5.1808,1.4805 -5.8489,1.4805 -0.6681,0 -2.6327,0.6379 -4.3658,1.4176 -1.7331,0.7796 -6.0761,2.4123 -9.6511,3.6281 -3.575,1.2157 -7.4,2.6922 -8.5,3.281 -1.763,0.9437 -1.48,1.1621 2.3881,1.8433 4.8961,0.8623 5.5855,1.2547 4.7055,2.6785 -0.5926,0.9589 -4.781,2.6321 -23.09235,9.2254 -4.9494,1.7821 -13.9494,5.6049 -20,8.4951 -10.0266,4.7893 -13.6655,6.800001 -28.9118,15.975701 -7.363,4.4312 -26.9419,19.1179 -34.0894,25.5713 -1.1,0.9932 -4.238,3.73589 -6.9733,6.09489 -10.5823,9.1265 -32.2914,31.7526 -39.0267,40.6752 -2.2,2.9145 -5.5911,7.1699 -7.5357,9.4565 -8.1299,9.5593 -15.862,22.0848 -25.005,40.5063 -17.2418,34.7388 -21.2151,68.6397 -11.5402,98.463 3.889,11.988 11.9577,28.5452 18.3662,37.6881 18.1185,25.8493 47.7684,47.9125 83.7147,62.2942 m -0.8154,8.4516 c -35.5532,-14.6977 -61.6331,-33.5314 -81.6054,-57.9645 -13.8853,-16.9867 -18.787,-25.1602 -25.0563,-41.7813 -1.7634,-4.675 -3.8399,-9.9778 -4.6145,-11.7839 -0.7746,-1.8062 -1.4084,-4.5894 -1.4084,-6.1849 0,-1.5956 -0.4927,-4.1678 -1.0948,-5.7161 -1.5134,-3.8914 -2.1903,-27.2119 -1.0541,-36.3151 1.3465,-10.7888 4.1602,-25.3075 5.1333,-26.4884 0.4586,-0.5564 1.7941,-3.9366 2.968,-7.5116 1.1738,-3.575 3.5145,-9.425 5.2015,-13 7.9376,-16.8208 8.5289,-17.8653 18.5466,-32.7651 2.8603,-4.2542 6.4603,-9.6918 8,-12.0835 4.2959,-6.673 23.3556,-28.3363 36.2367,-41.1866 32.3205,-32.24309 57.5391,-49.361491 97.0628,-65.885891 4.4403,-1.8564 8.9279,-4.5997 11,-6.7243 3.8461,-3.9435 7.179,-5.6069 9.4718,-4.727 0.8353,0.3205 3.5833,-0.9597 6.25865,-2.9158 6.1705,-4.5115 15.1864,-8.5345 28.2695,-12.6144 5.775,-1.8009 11.85,-3.8838 13.5,-4.6286 3.292,-1.4861 26.9165,-6.5352 32.5,-6.9461 1.925,-0.1416 6.65,-0.8343 10.5,-1.5393 10.3175,-1.8894 54.23478,-1.6505 66.49998,0.3617 5.225,0.8572 12.425,2.0415 16,2.6318 12.4944,2.0632 30.6653,7.385 47.0001,13.7651 50.4688,19.7124 88.0026,51.695501 113.1983,96.457791 5.8626,10.4154 13.6377,28.0067 16.707,37.8002 4.3293,13.8135 5.0947,16.5219 5.0947,18.0278 0,0.9336 0.8805,5.2468 1.9567,9.5848 2.5122,10.1268 4.27,34.7721 3.4868,48.8874 -1.0134,18.2659 -6.2292,40.5191 -12.7737,54.4988 -1.509,3.2234 -11.991,21.2673 -15.4804,26.6485 -9.1235,14.0694 -27.2624,32.4805 -41.3219,41.9418 -2.8287,1.9036 -6.7686,4.7071 -8.7553,6.2299 -1.9867,1.5229 -4.7372,3.3099 -6.1122,3.9712 -1.375,0.6613 -5.2,2.9871 -8.5,5.1685 -3.3,2.1814 -7.125,4.4328 -8.5,5.0031 -1.375,0.5704 -3.175,1.4686 -4,1.9962 -1.9517,1.248 -13.8635,7.042 -14.4776,7.042 -0.2598,0 -3.5211,1.4069 -7.2474,3.1265 -3.7262,1.7196 -9.7,4.1751 -13.275,5.4568 -3.575,1.2817 -8.975,3.2999 -12,4.4849 -3.025,1.185 -7.525,2.7454 -10,3.4677 -2.475,0.7222 -7.2,2.1976 -10.5,3.2785 -3.3001,1.081 -8.4751,2.5244 -11.5001,3.2076 -3.025,0.6833 -6.3958,1.7066 -7.4907,2.2741 -2.0349,1.0548 -15.878,4.1736 -25.2028,5.6781 -2.8565,0.4609 -5.58268,1.0784 -6.05818,1.3724 -3.6903,2.2807 -78.4885,10.1442 -89.7483,9.4352 -1.65,-0.1039 -6.825,-0.3049 -11.5,-0.4467 -42.75845,-1.2969 -82.19245,-8.9163 -113.82495,-21.9931"
       style="fill:#161616;display:inline"
       sodipodi:nodetypes="csscscsssccsscsssscccssssssscsccsccssssssssssccsscssscsssssssccsccsscsssscsscscssccssssccccscssc" />
    <path
       style="fill:#ddffdd;fill-opacity:1;stroke:none"
       d="m 859.46661,448.60808 c -6.67943,-0.92209 -4.75407,-1.93539 18.20251,-9.57985 116.1946,-38.69239 171.02798,-106.01307 161.77078,-198.61109 -7.6829,-76.8506 -48.54428,-137.08997 -117.29968,-172.927739 -7.5753,-3.948524 -12.495,-7.644505 -10.9326,-8.213291 10.4869,-3.817697 38.7057,-8.110893 59.5896,-9.065916 46.94468,-2.146785 87.39598,5.608308 126.22698,24.199494 26.0915,12.49185 42.4872,24.316924 61.5695,44.405662 19.7185,20.75836 33.0433,43.60763 42.6897,73.20373 6.6291,20.3391 7.8325,27.23681 8.8113,50.50717 1.4136,33.60719 -2.2843,52.16497 -15.7576,79.07907 -30.0201,59.96816 -107.1073,103.61919 -216.04468,122.33647 -25.1815,4.32659 -100.0028,7.26484 -118.82581,4.66629 l 0,0 z"
       id="path3089"
       inkscape:connector-curvature="0" />
  </g>
  <g
     inkscape:groupmode="layer"
     id="layer6"
     inkscape:label="colour"
     style="display:inline">
    <path
       style="fill:#ddffdd;fill-opacity:1;stroke:none;display:inline"
       d="m 674.91987,449.90435 c -75.21714,-9.37864 -141.10301,-48.21472 -165.49853,-97.5523 -12.16037,-24.59314 -14.91307,-37.10424 -13.36523,-60.7455 2.83502,-43.30151 25.87459,-86.11586 70.69643,-131.37492 35.78606,-36.13513 64.67414,-55.66718 107.95002,-72.988042 20.00723,-8.007756 27.06735,-12.945778 19.01164,-13.29721 -8.19547,-0.357528 23.83022,-10.32233 51.07725,-15.8927 27.73809,-5.670761 34.51142,-6.171832 68.38466,-5.058892 30.95125,1.016936 41.65196,2.386243 60.53611,7.746461 91.2608,25.904136 149.14818,94.538613 154.45538,183.130973 6.1079,101.95624 -77.07608,174.58867 -230.75804,201.48742 -33.24747,5.81926 -94.14629,8.07877 -122.48969,4.54471 l 0,0 z"
       id="path7860"
       inkscape:connector-curvature="0" />
  </g>
  <g
     inkscape:groupmode="layer"
     id="layer5"
     inkscape:label="text"
     style="display:inline">
    <text
       xml:space="preserve"
       style="font-style:normal;font-variant:normal;font-weight:bold;font-stretch:normal;line-height:0%;font-family:'DejaVu Sans';-inkscape-font-specification:'DejaVu Sans Bold';text-align:start;letter-spacing:0px;word-spacing:0px;writing-mode:lr-tb;text-anchor:start;display:inline;fill:#000000;fill-opacity:1;stroke:none"
       x="326.78262"
       y="76.436295"
       id="text3290"><tspan
         sodipodi:role="line"
         x="326.78262"
         y="76.436295"
         id="tspan3306"
         style="font-size:48px;line-height:1.25">--as-server</tspan></text>
    <text
       xml:space="preserve"
       style="font-style:normal;font-variant:normal;font-weight:bold;font-stretch:normal;line-height:0%;font-family:'DejaVu Sans';-inkscape-font-specification:'DejaVu Sans Bold';text-align:start;letter-spacing:0px;word-spacing:0px;writing-mode:lr-tb;text-anchor:start;display:inline;fill:#000000;fill-opacity:1;stroke:none"
       x="429.3356"
       y="579.32336"
       id="text3298"><tspan
         sodipodi:role="line"
         id="tspan3300"
         x="429.3356"
         y="579.32336"
         style="font-size:48px;line-height:1.25">--filter</tspan></text>
    <text
       xml:space="preserve"
       style="font-style:normal;font-variant:normal;font-weight:bold;font-stretch:normal;line-height:0%;font-family:'DejaVu Sans';-inkscape-font-specification:'DejaVu Sans Bold';text-align:start;letter-spacing:0px;word-spacing:0px;writing-mode:lr-tb;text-anchor:start;display:inline;fill:#000000;fill-opacity:1;stroke:none"
       x="832.77466"
       y="698.12524"
       id="text3302"><tspan
         sodipodi:role="line"
         id="tspan3304"
         x="832.77466"
         y="698.12524"
         style="font-size:48px;line-height:1.25">--spool-dir</tspan></text>
    <text
       xml:space="preserve"
       style="font-style:normal;font-variant:normal;font-weight:bold;font-stretch:normal;line-height:0%;font-family:'DejaVu Sans';-inkscape-font-specification:'DejaVu Sans Bold';text-align:start;letter-spacing:0px;word-spacing:0px;writing-mode:lr-tb;text-anchor:start;fill:#000000;fill-opacity:1;stroke:none"
       x="1149.9675"
       y="78.613342"
       id="text3053"><tspan
         sodipodi:role="line"
         id="tspan3055"
         x="1149.9675"
         y="78.613342"
         style="font-size:48px;line-height:1.25">--as-client</tspan></text>
  </g>
</svg>

