<?xml version="1.0" encoding="UTF-8" standalone="no"?>
<!-- Created with Inkscape (http://www.inkscape.org/) -->
<!-- Copyright (C) 2001-2023 Graeme Walker <graeme_walker@users.sourceforge.net>. All rights reserved. -->

<svg
   xmlns:dc="http://purl.org/dc/elements/1.1/"
   xmlns:cc="http://creativecommons.org/ns#"
   xmlns:rdf="http://www.w3.org/1999/02/22-rdf-syntax-ns#"
   xmlns:svg="http://www.w3.org/2000/svg"
   xmlns="http://www.w3.org/2000/svg"
   xmlns:sodipodi="http://sodipodi.sourceforge.net/DTD/sodipodi-0.dtd"
   xmlns:inkscape="http://www.inkscape.org/namespaces/inkscape"
   id="svg3036"
   version="1.1"
   inkscape:version="0.92.4 (5da689c313, 2019-01-14)"
   width="1650"
   height="1023"
   sodipodi:docname="whatisit.svg"
   inkscape:export-filename="/home/graeme/src/gnetapps/emailrelay/doc/graphics/whatisit.png"
   inkscape:export-xdpi="17.997139"
   inkscape:export-ydpi="17.997139">
  <metadata
     id="metadata3042">
    <rdf:RDF>
      <cc:Work
         rdf:about="">
        <dc:format>image/svg+xml</dc:format>
        <dc:type
           rdf:resource="http://purl.org/dc/dcmitype/StillImage" />
        <dc:title />
      </cc:Work>
    </rdf:RDF>
  </metadata>
  <defs
     id="defs3040" />
  <sodipodi:namedview
     pagecolor="#ffffff"
     bordercolor="#666666"
     borderopacity="1"
     objecttolerance="10"
     gridtolerance="10"
     guidetolerance="10"
     inkscape:pageopacity="0"
     inkscape:pageshadow="2"
     inkscape:window-width="1922"
     inkscape:window-height="1165"
     id="namedview3038"
     showgrid="false"
     inkscape:zoom="0.54973453"
     inkscape:cx="523.60455"
     inkscape:cy="396.79451"
     inkscape:window-x="7"
     inkscape:window-y="72"
     inkscape:window-maximized="0"
     inkscape:current-layer="layer6" />
  <g
     inkscape:groupmode="layer"
     id="layer6"
     inkscape:label="colour"
     style="display:inline">
    <path
       style="fill:#ddffdd;fill-opacity:1;stroke:none;display:inline"
       d="m 809.83225,449.90435 c -75.21714,-9.37864 -141.10301,-48.21472 -165.49853,-97.5523 -12.16037,-24.59314 -14.91307,-37.10424 -13.36523,-60.7455 2.83502,-43.30151 25.87459,-86.11586 70.69643,-131.37492 35.78606,-36.13513 64.67414,-55.66718 107.95002,-72.988042 20.00723,-8.007756 27.06735,-12.945778 19.01164,-13.29721 -8.19547,-0.357528 23.83022,-10.32233 51.07725,-15.8927 27.73809,-5.670761 34.51142,-6.171832 68.38466,-5.058892 30.95125,1.016936 41.65196,2.386243 60.53611,7.746461 91.2608,25.904136 149.1482,94.538613 154.4554,183.130973 6.1079,101.95624 -77.0761,174.58867 -230.75806,201.48742 -33.24747,5.81926 -94.14629,8.07877 -122.48969,4.54471 l 0,0 z"
       id="path7860"
       inkscape:connector-curvature="0" />
    <path
       style="fill:#ddffdd;fill-opacity:1;stroke:none;display:inline"
       d="m 841.71978,611.28287 c -1.50722,-10.05087 -6.52768,-31.44385 -10.16233,-43.30329 -1.2586,-4.10668 -0.46844,-4.38993 7.87827,-2.82407 20.21094,3.79159 39.76509,19.15694 39.76509,31.2468 0,7.56344 -3.26312,11.08681 -16.97936,18.33355 -17.3249,9.15332 -18.64457,8.93105 -20.50167,-3.45299 z"
       id="path8373"
       inkscape:connector-curvature="0" />
    <path
       style="fill:#ddffdd;fill-opacity:1;stroke:none;display:inline"
       d="m 737.30189,634.44526 c -43.02876,-4.92699 -52.07592,-20.49217 -24.16114,-41.56803 15.25028,-11.51408 57.55234,-26.39722 75.02829,-26.39722 6.04242,0 10.98623,-1.09153 10.98623,-2.42562 0,-1.33409 3.77649,-2.42562 8.39221,-2.42562 8.22046,0 8.49284,0.32576 13.30839,15.91672 5.95001,19.26389 11.18578,46.60471 9.28819,48.5023 -2.18121,2.18121 -37.70368,7.80685 -57.67064,9.13321 -10.00569,0.66466 -25.83288,0.33358 -35.17153,-0.73574 z"
       id="path8371"
       inkscape:connector-curvature="0" />
    <path
       style="fill:#fbdeb2;fill-opacity:1;stroke:none"
       d="m 1495.6983,545.37694 c -1.771,-3.3091 -1.6446,-6.39842 0.4329,-10.58363 2.4886,-5.01311 4.9505,-6.02558 16.216,-6.66877 18.5597,-1.05965 29.5411,1.28198 28.5934,6.09719 -1.4666,7.45155 -13.4826,13.712 -28.3874,14.79011 -12.3126,0.89062 -14.7096,0.37369 -16.8549,-3.6349 z"
       id="path8377"
       inkscape:connector-curvature="0" />
    <path
       style="fill:#fdfdd2;fill-opacity:1;stroke:none"
       d="m 118.48218,190.29305 c -1.20555,-14.79352 -1.57457,-27.27886 -0.82004,-27.74518 7.05054,-4.35747 103.81796,-11.92628 107.42245,-8.40221 0.69434,0.67886 -1.1122,12.68569 -4.01454,26.68185 l -5.27699,25.44757 -13.34092,1.70515 c -43.10036,5.50883 -74.47546,9.22179 -77.87977,9.21636 -3.21386,-0.005 -4.28313,-4.72863 -6.09019,-26.90354 z m 37.74192,16.99852 c 23.77077,-5.09792 18.61461,-13.08981 -6.82775,-10.58279 -14.00328,1.37985 -17.28726,2.48868 -17.28726,5.83701 0,8.16249 4.26745,9.00232 24.11501,4.74578 z m 0.14121,-16.52778 c 3.33523,-0.92774 6.06406,-3.22566 6.06406,-5.10651 0,-1.88084 -2.72883,-4.08719 -6.06406,-4.903 -3.88997,-0.95151 0.75987,-2.01707 12.96951,-2.97211 10.46846,-0.81885 19.60843,-2.06368 20.31104,-2.7663 0.70261,-0.70261 0.57027,-3.12044 -0.2941,-5.37296 -1.4035,-3.65744 -4.59521,-3.91472 -29.84075,-2.4054 -15.54803,0.92955 -29.16556,2.24409 -30.26116,2.92122 -1.09561,0.67712 -1.99201,3.34977 -1.99201,5.93922 0,3.43894 1.79815,4.79713 6.67046,5.03842 5.71924,0.28322 5.89219,0.48022 1.21281,1.38151 -3.412,0.65718 -5.45765,2.80631 -5.45765,5.73373 0,3.92972 1.65739,4.64367 10.3089,4.44076 5.66989,-0.13298 13.03772,-1.00085 16.37295,-1.92858 z m 20.19115,-1.23093 c 1.63563,-4.26239 -0.31922,-6.3012 -6.04169,-6.3012 -2.82989,0 -4.44697,1.76409 -4.44697,4.85125 0,5.65041 8.42962,6.81572 10.48866,1.44995 l 0,0 z m 36.63938,-9.5142 c 2.82301,-2.06424 4.50645,-6.6173 4.70844,-12.73452 l 0.3144,-9.52151 -11.5217,-0.73931 c -10.78681,-0.69216 -11.52171,-0.36338 -11.52171,5.15444 0,13.73132 2.89694,21.0539 8.32927,21.0539 2.91349,0 7.27457,-1.44585 9.6913,-3.213 z"
       id="path8379"
       inkscape:connector-curvature="0" />
    <path
       style="fill:#fdfdd2;fill-opacity:1;stroke:none"
       d="m 1222.0089,688.41994 c -5.566,-0.5056 -11.168,-2.22508 -12.449,-3.82107 -1.2809,-1.59598 -4.7501,-26.36969 -7.7094,-55.05267 -2.9592,-28.68299 -6.3035,-60.33736 -7.4316,-70.34305 -1.9102,-16.94185 -3.0723,-53.31184 -1.7064,-53.40511 39.6119,-2.70484 149.207,-7.16392 176.815,-7.19405 l 37.9481,-0.0414 -2.1123,9.09609 c -1.1618,5.00284 -2.1383,9.78878 -2.1702,10.63542 -0.032,0.84663 5.1517,1.53934 11.519,1.53934 l 11.5768,0 0,-9.27561 c 0,-5.10158 0.521,-9.75814 1.1577,-10.34792 0.6367,-0.58978 4.8144,-0.51601 9.2837,0.16392 l 8.126,1.23624 -1.4794,19.70046 c -0.8137,10.83525 -2.1327,51.53073 -2.9311,90.4344 l -1.4516,70.73394 -24.5999,1.49634 c -83.7846,5.09635 -164.646,6.96451 -192.3854,4.44474 z m 74.6274,-17.02624 c 2.6215,-6.895 1.4537,-25.72485 -3.0298,-48.85496 -1.3935,-7.18934 -3.2435,-25.93652 -4.111,-41.66042 l -1.5773,-28.58889 6.9737,-1.39439 c 3.8355,-0.76691 29.4864,-1.4111 57.0021,-1.43153 48.4804,-0.036 58.5445,-1.31002 55.0473,-6.96853 -2.4654,-3.98905 -102.0438,-3.34951 -143.2793,0.92021 -18.6773,1.93394 -35.3232,3.54856 -36.9908,3.58804 -1.6676,0.0395 -3.032,1.58762 -3.032,3.44029 0,4.16634 13.2607,6.87795 25.8416,5.28421 5.1315,-0.65004 13.7159,-1.74373 19.0765,-2.43041 l 9.7465,-1.24852 -0.9186,18.19061 c -0.7623,15.09622 6.1149,81.06905 10.6705,102.36159 1.5875,7.4197 5.5105,6.86773 8.5806,-1.2073 z m -36.6128,-11.22402 c 0,-3.59257 -10.1738,-6.36726 -23.3466,-6.36726 -5.205,0 -8.1865,1.17788 -8.1865,3.23416 0,5.46105 2.7071,6.46833 17.3837,6.46833 10.3885,0 14.1494,-0.8865 14.1494,-3.33523 z m -10.0205,-16.89933 c 3.8719,-4.66536 0.943,-6.44729 -10.5973,-6.44729 -5.5587,0 -10.8249,0.71822 -11.7028,1.59604 -3.163,3.16301 3.9736,8.10645 11.7028,8.10645 4.3427,0 9.1114,-1.46484 10.5973,-3.2552 z m 6.1707,-16.26649 c 4.9172,-4.72717 -21.1923,-9.49871 -31.1233,-5.68783 -4.5801,1.75754 -5.0662,7.2873 -0.8048,9.15422 4.2138,1.84605 29.2269,-0.86959 31.9281,-3.46639 z m -6.9265,-13.02589 c 6.5955,-4.82275 2.9505,-7.19531 -11.0543,-7.19531 -13.6666,0 -16.5646,1.65129 -12.1767,6.93837 3.8587,4.64945 17.0248,4.79507 23.231,0.25694 l 0,0 z m 0.2886,-16.79666 c 3.1951,-3.19511 -2.162,-5.03556 -17.5,-6.01221 -13.3468,-0.84986 -15.6735,-0.40435 -15.6735,3.00116 0,2.19954 2.3283,4.86045 5.1739,5.91312 5.3405,1.97559 25.178,-0.0805 27.9996,-2.90207 l 0,0 z m -6.6719,-12.09793 c 5.9043,-1.56025 11.2343,-4.36416 11.8445,-6.2309 0.9139,-2.79562 -2.543,-3.1662 -19.6056,-2.1017 -23.4253,1.46145 -27.7155,2.95257 -23.4125,8.13735 3.3661,4.05592 16.2586,4.13667 31.1736,0.19524 l 0,1e-5 z"
       id="path8381"
       inkscape:connector-curvature="0" />
    <path
       style="fill:#fee3fc;fill-opacity:1;stroke:none"
       d="m 796.72964,795.46886 c -28.15885,-3.38238 -59.1579,-11.17271 -61.86084,-15.54616 -2.20379,-3.5658 8.71818,-13.34277 22.9771,-20.56831 25.09227,-12.71522 45.18971,-16.19287 101.68928,-17.59629 33.25313,-0.82599 51.36777,-0.44355 50.43555,1.06481 -2.37712,3.84628 13.62809,9.99402 40.02177,15.37271 25.26262,5.14819 38.36132,10.66518 38.36132,16.15724 0,4.07519 -19.98438,13.93218 -35.17153,17.34782 -36.35998,8.17747 -105.81755,9.85036 -156.45265,3.76818 z"
       id="path8383"
       inkscape:connector-curvature="0" />
    <path
       style="fill:#fee3fc;fill-opacity:1;stroke:none"
       d="m 822.19868,957.94987 c -40.05573,-5.90283 -65.51346,-15.0004 -72.70993,-25.98359 -2.01682,-3.07806 -4.30035,-10.43745 -5.07452,-16.3542 -1.2898,-9.85762 -5.37106,-116.6071 -4.51748,-118.15939 0.20392,-0.37085 3.52386,0.58097 7.37763,2.11514 14.99739,5.97043 40.58646,9.39838 90.43437,12.11472 58.32742,3.17842 97.18218,0.81229 128.48792,-7.82447 9.82609,-2.71087 18.76955,-4.01783 19.87437,-2.90436 4.88343,4.92165 10.38147,122.45861 5.915,126.45076 -6.16256,5.50812 -47.00687,18.9145 -80.03933,26.27141 -16.45108,3.66395 -74.97521,6.45099 -89.74803,4.27398 z"
       id="path8385"
       inkscape:connector-curvature="0" />
  </g>
  <g
     inkscape:groupmode="layer"
     id="layer4"
     inkscape:label="shapes"
     style="display:inline">
    <path
       inkscape:connector-curvature="0"
       style="fill:#000000"
       d="m 213.95307,142.57735 c -17.97862,0.11612 -49.69673,2.21888 -68.87603,4.89337 -13.71147,1.91202 -26.80814,3.46017 -29.10854,3.46433 -6.80081,0.0125 -7.0212,1.53478 -4.56813,34.64332 0.93175,12.57552 1.75869,26.91785 1.84142,31.87185 0.0828,4.95399 0.6021,9.8725 1.13318,10.91264 1.10415,2.16259 3.42467,1.97076 26.80676,-2.38173 8.4615,-1.57507 17.64025,-3.23901 20.39723,-3.68085 8.40757,-1.34744 54.79608,-4.52789 56.234,-3.85407 3.00756,1.40939 5.07546,-1.89845 5.41802,-8.70413 0.18847,-3.74453 2.68443,-16.9382 5.55966,-29.31691 7.165,-30.84736 6.90326,-35.10544 -2.40801,-37.24156 -1.96525,-0.45085 -6.43668,-0.64496 -12.42956,-0.60626 z m -3.2933,8.44431 c 8.06657,-0.091 13.77462,0.22472 15.08545,1.0826 l 2.408,1.55895 -4.99307,23.81728 c -2.74615,13.08848 -4.99307,24.84513 -4.99307,26.15571 0,4.41979 -3.01396,5.60932 -16.04156,6.23579 -17.14641,0.82454 -33.9658,2.6802 -55.91531,6.1925 -29.05663,4.64957 -26.27267,4.78135 -27.09006,-1.12591 -0.3871,-2.7976 -1.26409,-14.77538 -1.94765,-26.58875 -0.68355,-11.81337 -1.70369,-22.52977 -2.26636,-23.81728 -1.31047,-2.99863 -0.69388,-3.36294 7.50731,-4.50363 3.7395,-0.52012 13.93811,-2.07835 22.66359,-3.50764 18.70372,-3.06377 47.83629,-5.2992 65.58273,-5.49962 z m -3.47036,6.2791 c -1.11872,0.0348 -2.33283,0.14481 -3.64742,0.25982 l -8.25096,0.69287 0.602,4.33041 c 1.6289,11.52298 2.62388,16.99941 3.39954,18.53418 1.03635,2.05055 1.93112,2.04549 9.70285,-0.17322 5.89445,-1.68278 6.16422,-1.95333 7.61354,-7.88135 0.82839,-3.38827 1.51365,-7.85199 1.52271,-9.87335 0.0204,-4.36708 -3.11122,-6.13267 -10.94226,-5.88936 z m 0.92071,9.83004 c 0.82476,0.0281 1.60099,0.36309 2.0893,1.0826 0.95097,1.40124 0.88837,2.19218 -0.21247,3.03129 -2.62068,1.99759 -6.32469,1.59401 -6.05543,-0.64956 0.24983,-2.0816 2.36411,-3.5263 4.1786,-3.46433 z m -20.60969,0.0432 -23.47806,0.90938 c -12.91843,0.50639 -24.75288,1.16754 -26.311,1.47234 -1.55812,0.30481 -3.85281,0.61762 -5.0993,0.69287 -3.99075,0.2407 -5.47158,2.26562 -4.63896,6.3224 0.73789,3.59522 0.98919,3.72785 6.65743,3.03129 3.24553,-0.39884 16.5755,-1.42729 29.63972,-2.25181 13.06421,-0.82453 24.11409,-1.94878 24.5404,-2.51164 0.42633,-0.56286 0.32422,-2.50302 -0.24788,-4.33042 l -1.06235,-3.33441 z m -31.26866,14.11715 c -2.698,-0.0644 -6.5009,0.26818 -11.89838,0.90938 -12.99498,1.54377 -15.43498,2.99366 -13.31486,7.83805 1.28306,2.93173 5.66628,3.19013 16.78522,1.0393 4.10216,-0.79351 9.1613,-1.77207 11.22555,-2.1652 3.05855,-0.5825 3.68773,-1.25063 3.39954,-3.68086 -0.3107,-2.6199 -1.70042,-3.83318 -6.19707,-3.94067 z m 14.90838,2.20858 c -3.54945,0 -4.58947,0.57185 -4.92224,2.68485 -0.23212,1.47394 0.47176,3.50057 1.59353,4.50364 1.12177,1.00307 2.63208,1.81877 3.32871,1.81877 2.47101,0 5.33816,-3.68142 4.92225,-6.32241 -0.33277,-2.113 -1.37279,-2.68485 -4.92225,-2.68485 z m -8.60508,13.29437 c -3.41059,0.0529 -8.20839,0.52485 -14.90838,1.34243 l -14.44803,1.77547 0,3.81076 c 0,2.09892 0.63741,4.11922 1.41647,4.50363 2.4382,1.20311 5.48102,1.00577 17.21016,-1.21251 16.55072,-3.13016 18.20168,-3.77127 18.20168,-6.92866 0,-2.33711 -1.78756,-3.37935 -7.4719,-3.29112 z"
       id="path3063-3" />
    <path
       inkscape:connector-curvature="0"
       id="path3265"
       d="m 871.23286,728.31478 c -33.8154,-0.047 -63.70282,1.7376 -78.49995,5.0313 -14.69211,3.2703 -34.44393,9.4876 -43.9375,13.8437 -7.12982,3.2714 -18.3797,11.3106 -21.8125,15.5938 -5.56118,6.9387 -4.6923,18.7403 1.65625,25.7812 -0.49009,1.7206 -0.5,5.7969 -0.5,15.9375 0,39.5719 0.99004,70.7154 2.6875,85.81249 0.97688,8.6883 2.01698,16.1781 2.3125,16.6563 0.29552,0.4781 0.0157,3.1895 -0.59375,6.0312 -2.39006,11.1445 3.85236,24.6775 15.78125,34.2813 11.08521,8.9246 32.85571,17.6749 50.3125,20.2187 2.475,0.3607 5.85,1.0603 7.5,1.5313 3.4844,0.9948 19.8457,2.7077 33.5,3.5312 5.2182,0.3147 9.6951,0.7889 9.9375,1.0313 0.2424,0.2426 1.8107,0.2129 3.5,-0.062 1.6893,-0.2756 9.5875,-0.7583 17.5625,-1.0625 26.8286,-1.0233 40.6891,-2.8183 53.5,-6.9688 2.2,-0.7128 6.7,-1.8498 10,-2.5312 9.7684,-2.017 25.5698,-10.0033 31.1411,-15.221 4.066,-3.8078 4.1245,-5.3302 1.1992,-5.9665 -2.3697,-0.5154 -14.741,1.7444 -16.1216,3.125 -0.6108,0.6108 -2.0931,1.0937 -3.3125,1.0937 -1.2194,0 -4.1794,0.8402 -6.5625,1.8438 -2.3831,1.0036 -8.8437,2.8316 -14.3437,4.0625 -5.5,1.2308 -11.5632,2.625 -13.5,3.125 -3.5549,0.9176 -11.249,2.154 -25,4 -11.9123,1.5992 -39.214,2.0708 -55,0.9375 -16.8428,-1.2091 -41.82599,-5.1938 -50.15625,-8 -3.18066,-1.0715 -6.29629,-1.9688 -6.9375,-1.9688 -0.64122,0 -5.49261,-2.0298 -10.78125,-4.5312 -15.82805,-7.4866 -22.28641,-15.4906 -21.375,-26.4688 0.25114,-3.025 -0.29514,-12.025 -1.21875,-20 -0.92362,-7.975 -1.86849,-25.07499 -2.125,-37.99999 -0.2565,-12.925 -0.75656,-33.6025 -1.09375,-45.9687 l -0.5625,-19.9063 c 5.54399,2.7043 12.59759,5.2719 19.5,6.9688 9.2983,2.2858 12.9371,2.9582 29.84375,5.5312 20.955,3.1891 102.90735,5.6605 123.99995,3.75 34.7729,-3.1497 44.5459,-4.9076 66.5625,-11.9375 7.6722,-2.4497 9.9375,-1.9858 9.9375,2.0313 0,1.5675 0.6481,5.0689 1.4375,7.7812 1.8828,6.4687 3.3933,25.9188 4.0625,51.9375 0.297,11.55 1.0102,29.53239 1.5937,39.93749 1.0839,19.3272 0.7233,26.7042 -1.4062,28.3125 -0.6606,0.4989 -5.6875,2.3881 -11.1875,4.1875 -5.5,1.7995 -14.5603,4.7759 -15.3853,5.5822 -1.3294,1.2992 -2.038,2.1863 0.5115,4.4004 2.7326,2.3727 8.1829,1.202 18.7488,1.0174 6.1516,-0.1075 12.2424,0.2832 13.62504,0.875 3.4046,1.4571 3.4429,1.4474 5.375,-0.6875 1.4486,-1.6006 1.7007,-4.2291 1.7187,-17.5 0.012,-8.5808 -0.2056,-15.9615 -0.5,-16.4375 -0.2941,-0.4761 -0.769,-11.6355 -1.0624,-24.78119 -1.2602,-56.4483 -4.2972,-83.3899 -10.03134,-89.375 l -2.5937,-2.7188 3.5312,-5.25 c 2.9741,-4.4195 3.56254,-6.1375 3.56254,-10.7187 0,-7.999 -4.06084,-15.0163 -12.00004,-20.7813 -4.467,-3.2436 -21.2211,-8.9974 -29.5625,-10.1562 -2.1772,-0.3024 -7.3125,-1.1775 -11.4375,-1.9375 -4.125,-0.7599 -14.1375,-1.5813 -22.25,-1.8125 -12.0828,-0.3444 -14.75,-0.1626 -14.75,0.9687 0,0.7596 0.959,1.375 2.1563,1.375 1.1973,0 4.4598,1.5683 7.25,3.4688 4.4536,3.0335 6.4981,3.6317 16.5937,5.0312 18.9996,2.6339 36.0706,6.4855 42.625,9.5938 6.2374,2.9581 12.375,7.8176 12.375,9.8125 0,0.6028 -1.5607,2.7976 -3.4375,4.875 -3.0046,3.3256 -8.0565,6.1745 -19.0625,10.75 -3.7391,1.5544 -15.3655,4.5382 -22,5.625 -29.0373,4.7569 -42.0633,5.5654 -82,5.25 -38.21815,-0.3018 -49.36885,-0.7147 -60.49995,-2.3438 -3.575,-0.5233 -11,-1.477 -16.5,-2.0937 -23.55531,-2.6414 -48.79512,-9.2846 -53.0625,-14 -2.94091,-3.2497 -1.16978,-8.1774 4.84375,-13.5 5.10326,-4.517 24.14318,-14.5962 30.21875,-16 1.64155,-0.3793 7.05,-2.0297 12,-3.6563 4.94997,-1.6266 11.25,-3.3775 14,-3.9062 8.05,-1.5479 33.3118,-4.6016 45.49995,-5.5 6.4369,-0.4746 59.0867,-0.4045 67.7813,0.094 20.592,1.1801 38.3617,6.1469 41.3575,7.1099 4.696,1.5094 6.2206,0.8867 4.6309,-3.6736 -2.0888,-5.9917 -6.3864,-11.5689 -36.2697,-13.0925 -15.9406,-0.8128 -32.1293,-1.1976 -47.5,-1.2188 z"
       style="fill:#161616"
       sodipodi:nodetypes="cscscsscssccsccscsccsssccsssscssscccsssscssccccsccccscccssccssssscsccsscssssscccccscc" />
    <path
       inkscape:connector-curvature="0"
       id="path3261"
       d="m 905.88466,721.36648 c -1.1478,-2.3186 -1.2233,-4.2573 -0.7567,-19.4339 0.285,-9.272 0.8241,-18.9267 1.1978,-21.4544 0.3736,-2.5279 0.8854,-7.8709 1.1372,-11.8734 0.2518,-4.0025 0.7525,-7.8578 1.1128,-8.5673 0.3603,-0.7097 0.6551,-2.7115 0.6551,-4.4486 0,-1.737 0.3055,-4.6035 0.6792,-6.3699 0.3734,-1.7665 1.0577,-6.3142 1.5204,-10.1061 0.4624,-3.7918 1.3118,-8.6709 1.8871,-10.8421 0.5755,-2.1715 1.0546,-4.9291 1.0649,-6.1283 0.011,-1.1991 0.8518,-6.3166 1.8703,-11.3724 1.0185,-5.0557 2.1413,-10.7434 2.4954,-12.6393 0.354,-1.8959 1.1796,-5.6877 1.8346,-8.4263 0.6551,-2.7385 1.4983,-6.4698 1.8738,-8.2921 0.3757,-1.8221 1.8433,-6.9352 3.2613,-11.3624 1.4181,-4.4272 2.5784,-8.5739 2.5784,-9.2151 0,-0.6411 0.825,-2.8816 1.8333,-4.9784 1.0083,-2.0972 1.8332,-4.5773 1.8332,-5.5118 0,-0.9345 0.2781,-2.0265 0.6182,-2.4265 0.3402,-0.4004 1.1923,-2.7961 1.8936,-5.3239 0.7014,-2.528 1.7359,-5.6304 2.2991,-6.8943 1.8521,-4.1572 8.3883,-21.5814 8.3883,-22.3621 0,-0.4203 0.6475,-1.3764 1.4389,-2.1246 0.7914,-0.7481 1.8231,-2.6113 2.2926,-4.1403 0.4694,-1.5289 1.2678,-3.297 1.774,-3.9289 0.5063,-0.632 1.1452,-2.0108 1.4201,-3.0642 0.2746,-1.0533 0.778,-2.6045 1.1184,-3.447 3.5525,-8.7927 3.3839,-10.6586 -0.8138,-9.0033 -1.867,0.7362 -2.698,0.679 -4.5727,-0.3149 -4.3735,-2.3188 -4.3771,-2.2995 1.6057,-8.5482 3.0999,-3.2375 8.111,-8.6065 11.1358,-11.9309 6.094,-6.698 8.5124,-8.1209 13.802,-8.1209 2.746,0 4.0176,0.4212 5.4452,1.8032 1.7071,1.6528 1.8997,2.499 2.3097,10.1498 0.246,4.5907 0.7682,11.4449 1.1605,15.2315 0.6013,5.8048 0.54,7.066 -0.3908,8.0382 -0.983,1.0269 -1.483,0.944 -4.5657,-0.7568 -4.6095,-2.5432 -5.9473,-5.4915 -5.9931,-13.2087 -0.019,-3.2652 -0.2989,-5.9367 -0.6212,-5.9367 -0.3223,0 -1.01,1.2927 -1.5282,2.8725 -0.5182,1.5801 -1.6164,4.4238 -2.4403,6.3198 -0.8239,1.8959 -2.6361,6.2048 -4.0271,9.5752 -1.391,3.3705 -3.9544,9.2306 -5.6964,13.0225 -1.7421,3.7917 -3.6837,8.1232 -4.3143,9.6254 -3.1936,7.6055 -7.3707,18.3367 -8.3294,21.3984 -0.5936,1.8959 -1.8736,5.3861 -2.8444,7.7561 -0.9709,2.3697 -1.7654,5.046 -1.7654,5.947 0,1.5446 -0.2297,2.1803 -2.3101,6.3877 -0.464,0.9384 -1.289,3.3514 -1.8332,5.3621 -0.5442,2.0108 -1.51,5.4656 -2.1459,7.6777 -1.0553,3.6691 -2.3244,8.8014 -3.9308,15.8949 -0.334,1.4745 -1.1178,4.6426 -1.7417,7.0403 -0.624,2.3974 -1.3453,6.017 -1.6028,8.0431 -0.2576,2.0263 -0.7596,4.3734 -1.1155,5.2161 -0.9803,2.3211 -6.3493,33.1929 -6.9275,39.8331 -0.1834,2.1066 -1.0228,9.0008 -1.8654,15.3205 -0.8426,6.3196 -1.3916,13.2059 -1.2203,15.303 0.1714,2.0971 0.034,4.51 -0.3039,5.3621 -1.1338,2.8541 -2.0168,25.1773 -1.275,32.2304 0.8174,7.7692 0.412,8.6341 -4.3607,9.3028 -2.7893,0.3908 -3.0472,0.2596 -4.2446,-2.1594 z"
       style="fill:#161616" />
    <path
       inkscape:connector-curvature="0"
       id="path3259"
       d="m 838.64586,604.63358 c 0.1908,1.4339 0.7544,0.7968 1.2526,2.9379 0.4981,2.1409 1.3223,6.5036 1.8317,9.6947 0.5094,3.1912 1.1321,6.0549 1.3838,6.3639 0.64,0.7853 2.6838,0.2024 12.1716,-3.4711 12.3781,-4.7927 19.4749,-9.2029 23.9278,-14.8697 1.9691,-2.5059 2.2934,-3.6364 2.263,-7.891 -0.042,-5.9329 -1.6437,-9.5469 -6.9365,-15.6528 -5.3223,-6.1397 -12.582,-10.7976 -22.8806,-14.6802 -8.5458,-3.2218 -21.75212,-6.3138 -23.02662,-5.3913 -0.3597,0.2603 -0.2954,1.3323 0.1429,2.3821 0.4384,1.0501 1.6206,4.8339 2.6271,8.4089 1.0065,3.5749 2.5695,8.986 3.47322,12.0247 1.7356,5.8359 3.1936,12.2483 3.77,16.5819 m -10.62162,-2.5943 c -0.4992,-2.3236 -0.9567,-3.4415 -1.8998,-6.8377 -0.943,-3.3962 -1.726,-6.7599 -1.7399,-7.4748 -0.014,-0.7151 -0.7133,-2.9087 -1.5545,-4.8749 -0.841,-1.9663 -2.3557,-6.7924 -3.3659,-10.7248 -1.0103,-3.9324 -2.3494,-7.5435 -2.9761,-8.0247 -0.8616,-0.6615 -5.09907,-0.6387 -19.27037,-0.8533 -10.30789,-0.156 -20.00569,3.5445 -23.06953,3.2878 -8.07964,-0.677 -6.14479,0.071 -6.50812,-1.7569 -0.15667,-0.7881 1.98992,-2.1729 1.98992,-2.1729 4.48135,-2.3102 13.47245,-5.7553 32.5116,-6.9686 5.3388,-0.3401 9.9206,-0.7807 10.182,-0.9789 0.6932,-0.5256 -3.054,-10.378 -6.5824,-17.3067 -1.0013,-1.9662 -2.7407,-5.6224 -3.8654,-8.1248 -1.1248,-2.5025 -2.8612,-6.1587 -3.8587,-8.1248 -0.9974,-1.9663 -2.413,-4.8912 -3.1455,-6.4999 -0.7325,-1.6088 -3.4123,-6.2326 -5.95513,-10.2751 -2.54277,-4.0427 -4.62328,-7.5269 -4.62328,-7.7428 0,-0.8226 -8.09309,-10.9962 -10.22741,-12.8564 -6.95849,-6.065 -7.78209,-8.9726 -2.62788,-9.277 9.55345,-0.5641 20.0105,11.8684 35.685,42.4262 2.5672,5.0049 5.5899,11.1472 6.7169,13.6497 1.1272,2.5024 2.4459,5.4274 2.9304,6.4998 3.346,7.405 6.003,14.0085 6.4723,16.0856 0.5693,2.5194 3.6094,4.389 7.137,4.389 1.7587,0 11.61582,2.44 19.04712,4.7148 2.5925,0.7937 7.4133,2.8895 10.7128,4.6575 13.9868,7.4944 17.3732,10.3987 23.9494,20.5391 1.7345,2.6745 3.5153,5.3708 3.9572,5.9914 0.442,0.6209 0.8036,1.8467 0.8036,2.7242 0,0.8775 0.3663,1.7672 0.8141,1.977 1.2109,0.5676 0.1252,11.4585 -1.3119,13.1594 -0.669,0.7918 -1.2163,1.9004 -1.2163,2.4633 0,4.624 -13.3032,13.748 -26.5676,18.2216 -1.6498,0.5563 -4.5422,1.5688 -6.4276,2.25 -1.8855,0.6812 -4.8753,1.6764 -6.6441,2.2117 l -3.216,0.9733 0.5604,7.0197 c 0.3081,3.861 0.562,7.7512 0.564,8.6449 0,0.8938 0.5278,4.6563 1.1682,8.3613 0.6404,3.7049 1.104,8.0923 1.0302,9.7497 -0.074,1.6575 0.1162,3.891 0.4223,4.9635 0.3061,1.0724 0.209,4.7286 -0.2158,8.1249 -0.4247,3.396 -0.5767,6.4195 -0.3379,6.7187 0.2388,0.2992 1.6441,-0.3237 3.1229,-1.3844 5.7975,-4.1582 8.431,-4.0841 9.5074,0.2673 0.4032,1.6302 0.1592,2.7814 -0.8326,3.9294 -0.7714,0.893 -1.1712,2.0811 -0.8884,2.6402 0.2829,0.559 -0.044,1.486 -0.7256,2.0599 -2.088,1.7574 -5.9717,10.6595 -6.9207,15.8637 -0.461,2.5282 -0.9752,3.2378 -2.7083,3.7376 -2.9952,0.8635 -7.4385,0.7679 -9.0998,-0.1957 -0.7703,-0.4469 -2.7581,-3.0062 -4.4175,-5.6875 -4.46582,-7.2159 -11.74942,-17.0211 -14.43532,-19.4329 -3.1699,-2.8464 -3.0835,-4.9481 0.2571,-6.2582 1.4462,-0.5673 3.3856,-0.8394 4.3414,-0.6094 2.8251,0.6801 7.589,4.2157 9.49192,7.0445 2.4673,3.6681 5.1147,6.2692 5.9716,5.8674 1.0696,-0.5012 0.8613,-6.9999 -0.6332,-19.7606 -0.7327,-6.2561 -1.5026,-13.5684 -1.7109,-16.2496 -0.6822,-8.7812 -3.0173,-21.1041 -4.16802,-21.9956 -0.939,-0.7274 -1.5584,-0.7006 -3.7593,0.1626 -1.4493,0.5684 -3.5219,1.0369 -4.6059,1.0411 -1.084,0.01 -4.092,0.477 -6.6845,1.0504 -2.5925,0.5734 -7.0275,1.2602 -9.8557,1.526 -2.8281,0.2657 -8.8058,1.0852 -13.2838,1.8208 -7.36775,1.2103 -17.92066,1.8504 -35.99478,2.1835 -10.64805,0.1961 -27.88692,-1.5475 -37.20427,-3.7632 -16.70726,-3.9729 -26.54388,-9.9914 -32.23826,-19.7247 -1.79468,-3.0677 -2.06619,-4.4378 -1.91355,-9.656 0.28007,-9.5718 2.46684,-13.1454 13.60459,-22.2316 4.18868,-3.4171 8.57997,-6.6995 9.75837,-7.2939 19.52403,-9.8501 24.67729,-12.0078 36.42335,-15.2515 10.6387,-2.938 21.5735,-4.5787 33.42377,-5.0149 5.05805,-0.1861 14.74808,0.7979 16.94238,1.7206 1.7468,0.7345 1.4677,0.8502 -3.2301,1.3388 -2.8281,0.2941 -6.22921,0.3816 -7.55793,0.1945 -1.32872,-0.1872 -4.22117,-0.028 -6.42765,0.3528 -2.20648,0.3813 -5.72978,0.8256 -7.82965,0.9873 -2.09978,0.162 -4.41374,0.686 -5.14212,1.1647 -0.72829,0.4786 -4.7952,1.6749 -9.03744,2.6584 -7.28742,1.6893 -29.2093,9.307 -31.50457,10.9474 -0.58423,0.4176 -2.97943,1.783 -5.32278,3.0341 -5.70518,3.0463 -17.80433,12.3473 -20.51491,15.7704 -5.02745,6.3491 -5.89005,8.3511 -5.9383,13.7812 -0.0797,9.0113 3.53915,12.6564 17.26938,17.393 11.60671,4.004 21.03984,5.2043 43.44012,5.5271 15.39542,0.222 18.49277,0.076 30.4242,-1.4392 19.90285,-2.5265 21.42405,-2.7477 26.99605,-3.9237 2.8282,-0.5969 6.4919,-1.3225 8.1417,-1.6122 5.0102,-0.8797 8.6738,-1.8536 9.9166,-2.6357 1.6604,-1.0453 1.1277,-5.2958 -3.1718,-25.3113"
       style="fill:#161616"
       sodipodi:nodetypes="ccscssccsccsscccccccsssscssccccsccscccsccccscssccscccscccscccccsccssccccsscccscscscsscsccccccccccscsscsccc" />
    <path
       inkscape:connector-curvature="0"
       id="path3257"
       d="m 737.19034,432.52548 c 15.97401,6.391 17.99931,6.9368 41.00961,13.2088 1.925,0.5247 6.2,1.3483 9.5,1.8302 3.3,0.4819 9.825,1.5796 14.5,2.4392 17.83747,3.28 56.54521,4.4905 83.63111,2.6152 19.5949,-1.3566 48.1731,-5.2192 59.3689,-8.0242 1.925,-0.4822 5.627,-1.1465 8.2267,-1.476 2.5997,-0.3295 4.9887,-1.0232 5.309,-1.5414 0.3203,-0.5182 1.9863,-0.9422 3.7023,-0.9422 1.716,0 4.502,-0.4155 6.191,-0.9233 1.6891,-0.5078 5.546,-1.4777 8.571,-2.1554 3.025,-0.6776 8.875,-2.3516 13,-3.7199 4.125,-1.3683 9.075,-2.8431 11.00004,-3.2773 5.3321,-1.2027 16.6146,-5.3717 25.3054,-9.3506 4.293,-1.9654 8.4985,-3.5735 9.3457,-3.5735 0.8472,0 2.7347,-0.6123 4.1946,-1.3607 1.4599,-0.7484 7.6043,-3.729 13.6543,-6.6236 15.903,-7.6089 31.0245,-16.4939 43.8243,-25.7501 13.6987,-9.9064 35.6511,-32.5881 41.7134,-43.0994 0.8458,-1.4664 2.681,-4.4662 4.0783,-6.6662 4.0531,-6.3817 10.4319,-19.4825 12.6593,-26 7.4046,-21.6652 9.2579,-33.5212 8.8056,-56.3298 -0.5545,-27.9635 -3.0912,-41.6208 -12.8472,-69.1702 -12.4462,-35.146 -38.334,-68.37969 -70.2337,-90.162894 -19.7598,-13.4933 -45.5209,-25.7893 -64,-30.548 -3.3,-0.8498 -9.825,-2.6122 -14.5,-3.9165 -19.73684,-5.5063 -37.65074,-7.579 -66.50004,-7.6941 -20.805,-0.083 -24.5747,0.1742 -39.5,2.6948 -16.6511,2.8122 -37.5958,7.4185 -46.1342,10.1462 -2.5488,0.8143 -5.1808,1.4805 -5.8489,1.4805 -0.6681,0 -2.6327,0.6379 -4.3658,1.4176 -1.7331,0.7796 -6.0761,2.4123 -9.65111,3.6281 -3.575,1.2157 -7.4,2.6922 -8.5,3.281 -1.76298,0.9437 -1.47997,1.1621 2.3881,1.8433 4.89608,0.8623 5.58547,1.2547 4.70551,2.6785 -0.59258,0.9589 -4.78106,2.6321 -23.09246,9.2254 -4.94937,1.7821 -13.94937,5.6049 -20,8.4951 -10.02655,4.7893 -13.66541,6.800004 -28.91174,15.975704 -7.36301,4.4312 -26.94189,19.1179 -34.08941,25.5713 -1.1,0.9932 -4.23798,3.73589 -6.97328,6.09489 -10.58231,9.1265 -32.29146,31.7526 -39.02672,40.6752 -2.2,2.9145 -5.59107,7.1699 -7.53572,9.4565 -8.12985,9.5593 -15.86194,22.0848 -25.00502,40.5063 -17.24179,34.7388 -21.21508,68.6397 -11.54015,98.463 3.88903,11.988 11.95767,28.5452 18.36622,37.6881 18.11851,25.8493 47.76836,47.9125 83.71467,62.2942 m -0.81538,8.4516 c -35.55321,-14.6977 -61.63316,-33.5314 -81.60544,-57.9645 -13.88533,-16.9867 -18.78696,-25.1602 -25.05631,-41.7813 -1.76337,-4.675 -3.8399,-9.9778 -4.6145,-11.7839 -0.7746,-1.8062 -1.40837,-4.5894 -1.40837,-6.1849 0,-1.5956 -0.49266,-4.1678 -1.09481,-5.7161 -1.51337,-3.8914 -2.19029,-27.2119 -1.05412,-36.3151 1.34654,-10.7888 4.16023,-25.3075 5.13336,-26.4884 0.45852,-0.5564 1.79409,-3.9366 2.96793,-7.5116 1.17383,-3.575 3.51454,-9.425 5.20156,-13 7.93762,-16.8208 8.52886,-17.8653 18.54657,-32.7651 2.86027,-4.2542 6.46027,-9.6918 8,-12.0835 4.2959,-6.673 23.35565,-28.3363 36.23671,-41.1866 32.32046,-32.24309 57.53908,-49.361494 97.0628,-65.885894 4.44028,-1.8564 8.92787,-4.5997 11,-6.7243 3.84614,-3.9435 7.17902,-5.6069 9.4718,-4.727 0.83531,0.3205 3.58332,-0.9597 6.25868,-2.9158 6.17055,-4.5115 15.18643,-8.5345 28.26953,-12.6144 5.775,-1.8009 11.85,-3.8838 13.5,-4.6286 3.292,-1.4861 26.9165,-6.5352 32.5,-6.9461 1.925,-0.1416 6.65,-0.8343 10.5,-1.5393 10.3175,-1.8894 54.2348,-1.6505 66.5,0.3617 5.225,0.8572 12.425,2.0415 16,2.6318 12.4944,2.0632 30.66524,7.385 47.00004,13.7651 50.4688,19.7124 88.0026,51.695504 113.1983,96.457794 5.8626,10.4154 13.6377,28.0067 16.707,37.8002 4.3293,13.8135 5.0947,16.5219 5.0947,18.0278 0,0.9336 0.8805,5.2468 1.9567,9.5848 2.5122,10.1268 4.27,34.7721 3.4868,48.8874 -1.0134,18.2659 -6.2292,40.5191 -12.7737,54.4988 -1.509,3.2234 -11.991,21.2673 -15.4804,26.6485 -9.1235,14.0694 -27.2624,32.4805 -41.3219,41.9418 -2.8287,1.9036 -6.7686,4.7071 -8.7553,6.2299 -1.9867,1.5229 -4.7372,3.3099 -6.1122,3.9712 -1.375,0.6613 -5.2,2.9871 -8.5,5.1685 -3.3,2.1814 -7.125,4.4328 -8.5,5.0031 -1.375,0.5704 -3.175,1.4686 -4,1.9962 -1.9517,1.248 -13.8635,7.042 -14.4776,7.042 -0.2598,0 -3.5211,1.4069 -7.2474,3.1265 -3.7262,1.7196 -9.7,4.1751 -13.275,5.4568 -3.575,1.2817 -8.975,3.2999 -12,4.4849 -3.025,1.185 -7.525,2.7454 -10,3.4677 -2.475,0.7222 -7.2,2.1976 -10.5,3.2785 -3.30004,1.081 -8.47504,2.5244 -11.50004,3.2076 -3.025,0.6833 -6.3958,1.7066 -7.4907,2.2741 -2.0349,1.0548 -15.878,4.1736 -25.2028,5.6781 -2.8565,0.4609 -5.5827,1.0784 -6.0582,1.3724 -3.6903,2.2807 -78.4885,10.1442 -89.7483,9.4352 -1.65,-0.1039 -6.825,-0.3049 -11.5,-0.4467 -42.75848,-1.2969 -82.19252,-8.9163 -113.825,-21.9931"
       style="fill:#161616"
       sodipodi:nodetypes="csscscsssccsscsssscccssssssscsccsccssssssssssccsscssscsssssssccsccsscsssscsscscssccssssccccscssc" />
    <path
       inkscape:connector-curvature="0"
       id="path3237"
       d="m 543.85131,227.78278 c -1.31585,-1.144 -1.20126,-2.6234 0.53745,-6.9392 2.39819,-5.9527 5.49124,-8.1216 16.67164,-11.6903 3.46347,-1.1055 6.29639,-2.3264 6.29539,-2.7132 -0.003,-0.8314 -22.35133,-7.3615 -33.25814,-9.7176 -4.19214,-0.9055 -8.93573,-2.0212 -10.5413,-2.4792 -4.0213,-1.1471 -34.4214,-7.6813 -49.66451,-10.6749 -13.46267,-2.6439 -21.27117,-3.9512 -43.03864,-7.2057 -7.62208,-1.1396 -18.32299,-2.7566 -23.77979,-3.5933 -23.17844,-3.5541 -90.10952,-5.8316 -100.25214,-3.4113 -2.66773,0.6365 -7.65672,1.2938 -11.08666,1.4605 -15.18289,0.7382 -29.41703,2.9999 -37.87621,6.0183 -7.69838,2.747 -11.1649,1.4899 -12.31617,-4.4663 -0.59719,-3.0896 -0.24145,-3.4881 4.32985,-4.8495 2.73928,-0.8159 5.91594,-2.0668 7.05925,-2.7798 2.68193,-1.6725 15.74058,-3.5731 22.86622,-3.3279 7.80147,0.2684 25.11022,-1.0802 29.53994,-2.3017 5.09959,-1.4062 26.99746,-1.7936 36.28706,-0.6419 4.19214,0.5197 14.21094,1.0611 22.264,1.203 8.05306,0.142 15.75281,0.7068 17.11055,1.255 1.35774,0.5483 5.55449,0.783 9.32611,0.5215 4.48322,-0.3109 8.63516,0.071 11.99191,1.1027 2.82393,0.8679 10.31825,2.0463 16.65401,2.6185 6.33577,0.5722 12.84945,1.7125 14.47485,2.5341 1.95868,0.9899 4.64103,1.2991 7.95414,0.9168 3.12927,-0.3611 6.97884,0.02 10.2929,1.0194 2.91172,0.8778 6.46982,1.5961 7.9069,1.5961 3.17903,0 43.82844,8.1204 51.09609,10.2073 1.90551,0.5472 7.51813,1.7946 12.47248,2.772 10.43387,2.0585 25.93172,5.4915 29.44892,6.5232 1.46684,0.4303 2.42521,0.2616 2.42521,-0.4269 0,-0.6261 -1.09134,-1.4314 -2.42521,-1.7895 -3.00839,-0.8076 -10.38786,-4.4395 -11.75666,-5.7861 -1.43923,-1.4159 0.27562,-7.7171 2.57859,-9.4751 1.70008,-1.2977 2.38863,-1.2641 5.72845,0.2802 2.08783,0.9654 9.4087,3.8166 16.26856,6.336 17.91725,6.5803 35.30031,14.1659 40.68932,17.756 4.53569,3.0216 8.50154,8.3024 10.38633,13.8299 0.81177,2.3807 0.2443,3.0544 -4.46848,5.3049 -4.93809,2.358 -7.21408,2.6529 -26.69566,3.4581 -24.21907,1.001 -29.25256,1.8302 -36.56564,6.0238 -5.95022,3.4122 -6.63374,3.5294 -8.93091,1.5321 z"
       style="fill:#161616" />
    <path
       inkscape:connector-curvature="0"
       id="path3235"
       d="m 1186.8102,219.64198 c -2.1786,-2.6689 -2.3846,-8.1501 -0.3574,-9.5093 3.5422,-2.3749 23.679,-10.3099 41.6638,-16.4176 4.8074,-1.6327 9.6514,-3.3919 10.7643,-3.9095 1.1131,-0.5176 2.8233,-0.9411 3.8004,-0.9411 0.9772,0 3.9998,-0.8585 6.717,-1.9077 2.7172,-1.0493 6.2514,-2.1378 7.8539,-2.4191 2.7384,-0.4806 11.7011,-3.0192 16.8986,-4.7864 3.8295,-1.3021 18.3053,-4.6431 23.3084,-5.3795 2.564,-0.3775 5.3117,-1.1471 6.106,-1.7103 0.7944,-0.5633 4.7277,-1.1275 8.7407,-1.2538 4.7419,-0.1493 9.0159,-0.9856 12.208,-2.3887 2.7014,-1.1874 6.6346,-2.115 8.7407,-2.0614 2.1059,0.054 6.9756,-0.6133 10.8215,-1.4822 3.8459,-0.8688 8.7315,-1.5867 10.8567,-1.5953 2.1254,-0.01 4.9098,-0.4957 6.1877,-1.0826 7.9067,-3.6309 102.1054,-6.6163 146.6974,-4.6492 12.4991,0.5514 25.3083,1.0506 28.4648,1.1094 l 5.7391,0.1068 -0.2794,-6.6506 c -0.1684,-4.0056 0.2296,-6.9206 1.0004,-7.3294 0.7039,-0.3733 2.967,0.1603 5.0291,1.1858 2.0621,1.0254 6.1093,2.4644 8.9937,3.1978 15.0797,3.8339 33.4816,10.5812 39.5594,14.505 2.2077,1.4253 4.7545,2.5914 5.6594,2.5914 0.905,0 3.6874,1.3878 6.1834,3.084 4.4718,3.0391 4.538,3.1826 4.538,9.845 0,9.1369 -0.8747,9.6913 -21.4402,13.5875 -4.4208,0.8376 -11.155,2.9485 -14.9649,4.6909 -8.5039,3.8892 -10.6287,3.2337 -11.1438,-3.4381 -0.3382,-4.3798 -0.1689,-4.6373 5.2444,-7.9813 4.8002,-2.9653 11.6698,-5.7018 20.6597,-8.2298 1.9338,-0.5438 2.0149,-0.8189 0.5828,-1.9769 -2.0183,-1.632 -38.5343,-4.8032 -58.2627,-5.0597 -7.4132,-0.096 -14.0945,-0.502 -14.8475,-0.9013 -1.4743,-0.7818 -84.0477,-0.9391 -97.5397,-0.1859 -4.4868,0.2506 -13.9267,0.7397 -20.9775,1.087 -7.0508,0.3473 -16.4908,1.1056 -20.9776,1.6851 -4.4869,0.5795 -10.2557,1.1879 -12.8197,1.3519 -5.469,0.3499 -23.8453,2.977 -27.1836,3.8861 -1.27,0.3459 -5.1131,1.0529 -8.5403,1.5711 -15.0113,2.27 -47.0059,9.5065 -55.179,12.4803 -1.9229,0.6997 -5.8562,1.8159 -8.7406,2.4805 -12.3068,2.8353 -57.4382,18.8745 -68.8264,24.4599 -6.3783,3.1284 -8.6071,3.1979 -10.939,0.3412 z"
       style="fill:#161616" />
    <path
       style="fill:#161616"
       d="m 1487.9849,663.60518 c -2.154,-2.2928 -2.2798,-3.0697 -1.7838,-11.0193 0.558,-8.9437 3.3281,-16.3433 8.0954,-21.6244 1.1864,-1.3143 3.3402,-3.9646 4.7861,-5.8896 1.446,-1.925 4.0263,-5.075 5.7341,-7 3.2914,-3.7102 3.3422,-3.8329 3.5216,-8.5 0.097,-2.5285 0.5082,-2.9859 2.6153,-2.9103 1.375,0.049 3.175,0.2743 4,0.5 1.0035,0.2745 1.4438,-0.2517 1.3303,-1.5897 -0.2702,-3.1859 -2.5316,-10.8828 -3.5992,-12.25 -1.2121,-1.55241 -8.9685,-1.61551 -17.4309,-0.14181 -4.7845,0.83321 -7.068,0.81641 -9.2022,-0.068 -3.1033,-1.2854 -5.3823,-5.1362 -4.4609,-7.5374 0.7469,-1.9462 2.2502,-2.223 17.3629,-3.1973 l 12.5,-0.8059 0.5,-9 c 0.4551,-8.1922 0.6885,-9.0269 2.6001,-9.2999 1.3402,-0.1914 3.3961,0.9961 5.6819,3.2819 3.1076,3.1076 3.5075,4.04 3.0205,7.0415 -0.8789,5.416 0.7005,6.4765 9.6456,6.4765 6.7592,0 7.9697,0.2837 9.8776,2.3144 4.5646,4.8589 1.8972,7.624 -7.51,7.7853 -9.2541,0.1586 -10.7644,0.8649 -11.1269,5.20381 -0.1712,2.0485 0.6631,7.6558 1.854,12.4605 l 2.1652,8.736 8.979,9.1999 c 9.4407,9.673 10.6653,12.5254 5.6285,13.1094 -3.4107,0.3954 -8.9308,-3.1513 -15.0799,-9.6889 -6.5015,-6.9122 -7.908,-7.5592 -11.0539,-5.0847 -3.9039,3.0708 -15.0491,16.9481 -17.5586,21.863 -1.2353,2.4192 -2.7028,6.9192 -3.2612,10 -0.9998,5.5157 -3.1382,10.1013 -4.7106,10.1013 -0.4415,0 -1.8455,-1.11 -3.12,-2.4667 z"
       id="path3239"
       inkscape:connector-curvature="0" />
    <path
       style="fill:#161616"
       d="m 1513.8705,550.66307 c 7.0818,-0.2751 10.2071,-1.0243 14.2901,-2.5674 l 0,-2e-4 c 7.0507,-2.6646 11.1812,-6.0188 13.8472,-11.2445 1.9056,-3.7354 1.9254,-4.0795 0.3352,-5.8366 -3.0633,-3.3849 -8.2846,-4.43 -20.9479,-4.1932 -6.8882,0.1288 -13.6023,-0.2658 -15.7613,-0.9262 -3.4318,-1.0499 -3.9877,-0.9393 -6.3473,1.2631 -3.0038,2.8037 -5.8546,8.0568 -6.8328,12.5908 -0.9266,4.2944 1.6041,9.1015 5.2095,9.896 1.5025,0.3311 3.1819,0.783 3.7319,1.0042 0.55,0.2212 5.5,0.2275 11,0.014 m -0.3448,10.1672 c -0.39,-0.075 -0.7802,-0.1993 -2.1552,-0.4052 -12.019,-1.8001 -14.4349,-2.7238 -18.7581,-7.1721 -2.3812,-2.45 -4.9847,-6.023 -5.7857,-7.94 -4.7123,-11.2783 1.6556,-23.835 15.8795,-31.3124 9.2319,-4.8531 12.0541,-4.7682 20.1517,0.6068 3.5494,2.3559 6.6277,3.5194 10.2516,3.8745 6.4828,0.6353 11.9926,3.4083 17.7688,8.9429 3.6122,3.4611 4.4922,4.9758 4.4922,7.7323 0,13.5694 -10.6345,21.7402 -32.2909,24.8103 -4.285,0.6075 -8.11,1.0432 -8.5,0.9683"
       id="path3066"
       inkscape:connector-curvature="0"
       sodipodi:nodetypes="ccccsscscsscccccscssssc" />
    <path
       style="fill:#161616"
       d="m 1250.4683,490.93068 c 15.125,-0.4873 26.3208,-0.9269 27.9708,-0.9767 1.65,-0.05 5.475,-0.2859 8.5,-0.5246 3.025,-0.2386 12.7,-0.7058 21.5,-1.038 8.8,-0.3323 18.0479,-0.8366 20.5509,-1.1206 7.6463,-0.8679 50.338,-2.0079 70.231,-1.8754 17.2234,0.1147 48.3295,2.7498 50.3758,4.2675 4.3464,3.2237 5.4789,6.0438 6.1193,15.2381 0.3589,5.1531 0.6383,10.9443 0.6209,12.8693 -0.038,4.1586 -2.9193,29.1768 -4.6647,40.5 -0.8901,5.7738 -1.1787,24.1011 -1.0374,65.8615 0.2181,64.4154 -0.092,61.6385 6.894,61.6385 4.8521,0 7.9011,1.4764 10.4544,5.0622 1.7166,2.4107 2.0259,3.6007 1.2525,4.8194 -0.8444,1.3308 -2.52,1.5563 -9.4293,1.2691 l -8.4023,-0.3493 -1.7164,3.5993 c -1.7603,3.6914 -3.8709,4.5598 -5.7097,2.3493 -0.5718,-0.6875 -1.8684,-2.3361 -2.8811,-3.6636 -1.6421,-2.1525 -2.751,-2.4515 -10.2496,-2.7639 -4.6246,-0.1926 -18.5333,0.1098 -30.9083,0.6719 -12.375,0.5622 -27.45,1.2489 -33.5,1.5261 -6.05,0.2773 -13.25,0.7153 -16,0.9734 -16.3815,1.5379 -82.0795,3.4824 -99.5,2.945 -33.1918,-1.0239 -47.3466,-2.9391 -51.183,-6.9251 -3.0164,-3.134 -4.8159,-8.5054 -3.6229,-10.8143 0.601,-1.1632 0.3644,-6.119 -0.6685,-14 -0.8793,-6.7097 -2.2493,-20.2995 -3.0445,-30.1995 -1.7289,-21.5241 -4.0859,-44.5512 -5.4762,-53.5 -2.7622,-17.7787 -5.2672,-47.49 -5.5673,-66.0309 -0.1827,-11.292 -0.6291,-21.3045 -0.9919,-22.25 -1.8575,-4.8405 0.8265,-5.5332 24.0543,-6.2079 8.8,-0.2556 28.375,-0.8634 43.5,-1.3508 m -4.5293,10.8144 c -9.625,0.53 -21.7207,1.2175 -29.9707,1.5277 -8.25,0.3102 -16.9022,0.8235 -19.2271,1.1407 l -4.2271,0.5768 0.5466,18.1399 c 0.657,21.804 0.669,21.9841 2.7974,42.1399 0.9292,8.8 2.1217,17.382 2.6498,19.071 0.5282,1.689 0.9604,5.0927 0.9604,7.5636 0,2.4709 0.7175,9.6389 1.5945,15.929 0.8771,6.29 1.7665,14.3614 1.9766,17.9364 0.2101,3.575 0.6101,7.85 0.8888,9.5 0.2787,1.65 1.2074,10.875 2.0638,20.5 2.214,24.8838 2.9554,30.0601 4.4365,30.9754 6.7906,4.1968 44.4777,5.4772 99.5398,3.3817 l 0,2e-4 c 11.55,-0.4395 21.675,-0.7068 22.5,-0.594 0.825,0.1129 9.6,-0.4571 19.5,-1.2666 20.3848,-1.6668 61.232,-3.4798 78.6275,-3.4898 8.8005,-0.01 11.9132,-0.3508 12.8023,-1.4221 0.8627,-1.0396 1.0192,-7.4785 0.5893,-24.25 -1.7672,-68.9384 -1.3548,-91.939 2.05,-114.3346 0.7944,-5.225 1.7345,-16.9688 2.0892,-26.0973 0.5307,-13.6582 0.3967,-16.757 -0.7567,-17.4994 -1.4662,-0.9438 -12.7387,-3.1881 -16.697,-3.3243 -2.0797,-0.072 -2.2351,0.2417 -1.6547,3.3355 0.5507,2.9355 0.2764,3.6532 -1.9547,5.115 -3.1422,2.0589 -3.2859,4.3227 -0.4995,7.865 3.558,4.5234 0.017,7.6708 -4.6546,4.1373 -2.5231,-1.9084 -5.8719,-1.9227 -7.4411,-0.032 -1.3096,1.5779 -7.5218,2.0828 -8.3877,0.6817 -0.2782,-0.4501 0.5803,-3.1626 1.9078,-6.0278 1.4476,-3.1246 2.3268,-6.6992 2.1967,-8.9317 -0.2161,-3.7097 -0.2034,-3.7223 3.7832,-3.738 5.543,-0.022 9.0473,-1.3372 7.5497,-2.8335 -1.5359,-1.5346 -65.6443,-1.4122 -87.5497,0.1672 -8.8,0.6344 -27.7,1.6125 -42,2.1734 -14.3,0.561 -33.875,1.4536 -43.5,1.9837"
       id="path3255-3"
       inkscape:connector-curvature="0"
       sodipodi:nodetypes="cccccsssssssccscssscsccsscssssssccsccssssssssccccscssssccsccscccsccssc" />
    <path
       style="fill:#161616"
       d="m 1289.5755,676.99098 c -0.2649,-0.4286 -1.2055,-8.4161 -2.0902,-17.75 -1.6704,-17.6237 -4.9578,-41.2752 -6.6225,-47.6452 -1.6546,-6.3319 -3.1171,-24.7831 -3.0552,-38.5448 0.051,-11.2319 0.3645,-13.8172 2.088,-17.1956 1.1157,-2.1869 1.644,-4.2139 1.174,-4.5044 -0.47,-0.2905 -4.6291,-0.075 -9.2425,0.48 -25.0081,3.0056 -36.3641,3.6711 -41.2577,2.4176 -4.9963,-1.2798 -7.2614,-3.2472 -5.624,-4.8847 1.2168,-1.2168 25.4563,-4.1799 41.0938,-5.0235 6.8199,-0.3679 18.4749,-1.4052 25.8998,-2.3051 10.7217,-1.2994 23.6282,-1.6494 62.7131,-1.7006 45.5865,-0.06 49.3421,0.065 50.9643,1.6856 4.8331,4.8297 -7.2213,7.351 -29.1774,6.1028 -18.7975,-1.0687 -58.1646,-0.6263 -74,0.8315 -6.5999,0.6076 -13.3121,1.1522 -14.9159,1.2102 -3.7769,0.1366 -4.3099,1.8999 -1.1919,3.9429 l 2.4659,1.6157 -0.5432,13.3326 c -0.5297,13.0027 0.8913,37.1643 2.6587,45.2043 6.1553,28.0008 7.6553,54.5682 3.4438,60.9957 -1.6178,2.4692 -3.8308,3.2723 -4.7809,1.735 z"
       id="path3253"
       inkscape:connector-curvature="0" />
    <path
       style="fill:#161616"
       d="m 1240.2139,662.77268 c -5.7563,-0.4002 -7.6849,-0.9627 -9.4862,-2.7663 -3.1957,-3.1999 -1.4596,-5.7642 3.8311,-5.6587 7.9027,0.1577 22.925,2.6283 24.3445,4.0038 3.6599,3.5462 -4.2758,5.4235 -18.6894,4.4212 z"
       id="path3251"
       inkscape:connector-curvature="0" />
    <path
       style="fill:#161616"
       d="m 1230.9229,643.89788 c -2.9931,-2.4987 -3.2649,-3.084 -2.0898,-4.5 1.0605,-1.2777 3.2415,-1.6276 10.1466,-1.6276 10.009,0 11.9594,0.4867 11.9594,2.9845 0,2.5597 -1.7513,3.5723 -8.4168,4.8666 -7.8804,1.5302 -7.6635,1.5624 -11.5994,-1.7235 z"
       id="path3249"
       inkscape:connector-curvature="0" />
    <path
       style="fill:#161616"
       d="m 1223.8768,628.00598 c -4.9918,-4.4602 -3.6847,-5.8572 6.2329,-6.6611 11.9665,-0.9699 25.8294,1.3584 25.8294,4.3381 0,2.0079 -3.1137,3.0107 -11.0338,3.554 -4.6564,0.3193 -10.5566,0.8307 -13.1116,1.1364 -4.1252,0.4936 -5.0115,0.2285 -7.9169,-2.3674 z"
       id="path3247"
       inkscape:connector-curvature="0" />
    <path
       style="fill:#161616"
       d="m 1232.4391,617.05888 c -5.5106,-1.4386 -9.8289,-7.5178 -6.25,-8.7987 0.6875,-0.2461 5.8665,-0.6161 11.509,-0.8223 10.863,-0.3969 13.7577,0.4408 13.0997,3.7913 -0.4295,2.1871 -1.7754,2.9172 -8.3587,4.5348 -7.346,1.8049 -7.8142,1.8655 -10,1.2949 z"
       id="path3245"
       inkscape:connector-curvature="0" />
    <path
       style="fill:#161616"
       d="m 1221.7142,599.21148 c -3.8459,-2.0871 -5.3975,-5.2474 -3.5053,-7.1396 1.2559,-1.2559 3.3753,-1.3037 14.8476,-0.3353 14.4981,1.224 17.8353,2.5095 14.6871,5.6577 -1.0339,1.0339 -4.4726,1.9227 -9.4642,2.4461 -10.9857,1.1519 -13.4566,1.0581 -16.5652,-0.6289 z"
       id="path3243"
       inkscape:connector-curvature="0" />
    <path
       style="fill:#161616"
       d="m 1213.7048,584.83038 c -5.5194,-4.9687 -3.4591,-5.7219 19.5329,-7.1409 13.9953,-0.8637 20.1106,-0.9099 20.8629,-0.1577 3.2791,3.2792 -5.5692,6.7676 -22.0328,8.6863 -7.3255,0.8537 -13.7191,1.5522 -14.2081,1.5522 -0.489,0 -2.3587,-1.323 -4.1549,-2.9399 z"
       id="path3241"
       inkscape:connector-curvature="0" />
    <path
       inkscape:connector-curvature="0"
       style="fill:#000000"
       d="m 1259.9487,470.5089 c -4.3302,-0.8203 -8.2344,-2.63116 -8.8876,-4.12223 -0.6403,-1.46258 -3.9063,-4.78653 -7.2573,-7.38653 -9.4672,-7.34512 -6.6767,-16.60007 2.9099,-9.65195 4.7282,3.42671 5.4609,2.81535 5.4609,-4.55579 0,-10.81213 -5.8487,-29.09227 -12.5044,-39.0817 -14.8076,-22.22485 -49.3611,-35.9705 -76.3599,-30.3766 -5.1058,1.05785 -10.2129,2.0116 -11.3494,2.11941 -3.5366,0.33552 -7.2319,-2.46918 -7.2319,-5.48893 0,-7.94899 37.1685,-9.63086 57.2365,-2.58995 12.1688,4.26941 15.2471,5.97681 30.2038,16.75188 18.3048,13.18724 27.0004,29.47984 31.4975,59.0155 l 1.4118,9.27176 6.7336,-5.17466 c 6.8339,-5.25161 13.4226,-5.76199 13.4226,-1.03972 0,3.12787 -12.9445,22.5152 -15.497,23.21 -1.1364,0.30937 -5.5415,-0.0958 -9.7891,-0.90049 z"
       id="path3104" />
  </g>
  <g
     inkscape:groupmode="layer"
     id="layer5"
     inkscape:label="text"
     style="display:inline">
    <text
       xml:space="preserve"
       style="font-style:normal;font-variant:normal;font-weight:bold;font-stretch:normal;line-height:0%;font-family:'DejaVu Sans';-inkscape-font-specification:'DejaVu Sans Bold';text-align:start;letter-spacing:0px;word-spacing:0px;writing-mode:lr-tb;text-anchor:start;display:inline;fill:#000000;fill-opacity:1;stroke:none"
       x="709.20923"
       y="268.20572"
       id="text3286"><tspan
         sodipodi:role="line"
         id="tspan3288"
         x="709.20923"
         y="268.20572"
         style="font-size:64px;line-height:1.25">E-MailRelay</tspan></text>
    <text
       xml:space="preserve"
       style="font-style:normal;font-variant:normal;font-weight:bold;font-stretch:normal;line-height:0%;font-family:'DejaVu Sans';-inkscape-font-specification:'DejaVu Sans Bold';text-align:start;letter-spacing:0px;word-spacing:0px;writing-mode:lr-tb;text-anchor:start;display:inline;fill:#000000;fill-opacity:1;stroke:none"
       x="412.44125"
       y="74.294838"
       id="text3290"><tspan
         sodipodi:role="line"
         id="tspan3292"
         x="412.44125"
         y="74.294838"
         style="font-size:48px;line-height:1.25">SMTP</tspan><tspan
         sodipodi:role="line"
         x="412.44125"
         y="134.29483"
         id="tspan3306"
         style="font-size:48px;line-height:1.25">store</tspan></text>
    <text
       xml:space="preserve"
       style="font-style:normal;font-variant:normal;font-weight:bold;font-stretch:normal;line-height:0%;font-family:'DejaVu Sans';-inkscape-font-specification:'DejaVu Sans Bold';text-align:start;letter-spacing:0px;word-spacing:0px;writing-mode:lr-tb;text-anchor:start;display:inline;fill:#000000;fill-opacity:1;stroke:none"
       x="1258.9043"
       y="69.236244"
       id="text3294"><tspan
         sodipodi:role="line"
         id="tspan3296"
         x="1258.9043"
         y="69.236244"
         style="font-size:48px;line-height:1.25">SMTP</tspan><tspan
         sodipodi:role="line"
         x="1258.9043"
         y="129.23624"
         id="tspan3308"
         style="font-size:48px;line-height:1.25">forward</tspan></text>
    <text
       xml:space="preserve"
       style="font-style:normal;font-variant:normal;font-weight:bold;font-stretch:normal;line-height:0%;font-family:'DejaVu Sans';-inkscape-font-specification:'DejaVu Sans Bold';text-align:start;letter-spacing:0px;word-spacing:0px;writing-mode:lr-tb;text-anchor:start;display:inline;fill:#000000;fill-opacity:1;stroke:none"
       x="587.80414"
       y="551.48431"
       id="text3298"><tspan
         sodipodi:role="line"
         id="tspan3300"
         x="587.80414"
         y="551.48431"
         style="font-size:48px;line-height:1.25">filter</tspan></text>
    <text
       xml:space="preserve"
       style="font-style:normal;font-variant:normal;font-weight:bold;font-stretch:normal;line-height:0%;font-family:'DejaVu Sans';-inkscape-font-specification:'DejaVu Sans Bold';text-align:start;letter-spacing:0px;word-spacing:0px;writing-mode:lr-tb;text-anchor:start;display:inline;fill:#000000;fill-opacity:1;stroke:none"
       x="1244.9161"
       y="370.42093"
       id="text3690"><tspan
         sodipodi:role="line"
         id="tspan3692"
         x="1244.9161"
         y="370.42093"
         style="font-size:48px;line-height:1.25">POP</tspan></text>
    <text
       xml:space="preserve"
       style="font-style:normal;font-variant:normal;font-weight:bold;font-stretch:normal;line-height:0%;font-family:'DejaVu Sans';-inkscape-font-specification:'DejaVu Sans Bold';text-align:start;letter-spacing:0px;word-spacing:0px;writing-mode:lr-tb;text-anchor:start;display:inline;fill:#000000;fill-opacity:1;stroke:none"
       x="785.66241"
       y="873.72546"
       id="text3302"><tspan
         sodipodi:role="line"
         id="tspan3304"
         x="785.66241"
         y="873.72546"
         style="font-size:48px;line-height:1.25">Spool</tspan></text>
  </g>
</svg>

